<svg width="35" height="72" viewBox="0 0 35 72" fill="none" xmlns="http://www.w3.org/2000/svg">
<path d="M17.5 0.5C22.1924 0.5 26.4438 2.40422 29.5205 5.47852H29.5215C32.5961 8.55519 34.5 12.8052 34.5 17.5C34.5 22.1945 32.5958 26.444 29.5215 29.5186C28.9417 30.0984 28.3346 30.7646 27.6846 31.4727C27.0377 32.1772 26.3509 32.9197 25.626 33.6357C24.3646 34.8817 22.9607 36.0726 21.3906 36.8711C21.6258 37.0738 21.8895 37.2938 22.1836 37.5498C22.711 38.0089 23.2956 38.5545 23.8613 39.2441C25.0005 40.6329 26.0351 42.5762 26.4326 45.5547C27.1415 50.8792 27.326 52.079 27.5684 53.5752L27.8516 55.335L27.8896 55.6387C28.0295 57.1438 27.4171 58.4188 26.418 58.8682C25.8677 59.1155 25.2428 59.0816 24.6855 58.7168C24.1451 58.3629 23.7073 57.7258 23.4092 56.833L23.3984 56.8018L23.3926 56.7695L22.9619 54.5449V55.0811L22.7451 68.6748C22.8805 69.8001 22.0933 70.8304 20.9668 70.9951L20.958 70.9961L20.9502 70.9971C20.8551 71.0077 20.7599 71.0127 20.665 71.0127C19.6403 71.0127 18.7491 70.2594 18.5986 69.2178L18.5967 69.2061L17.5693 60.6836L16.7969 69.1914L16.7959 69.2051L16.7939 69.2178C16.6435 70.2593 15.7522 71.0126 14.7275 71.0127C14.6321 71.0127 14.5396 71.0074 14.4443 70.9971L14.4346 70.9961L14.4258 70.9941C13.3019 70.83 12.5198 69.8063 12.6455 68.6875L12.0391 55.0957L12.0381 55.084V54.5391L11.6055 56.7705L11.5996 56.8027L11.5889 56.833C11.2912 57.726 10.853 58.3628 10.3125 58.7168C9.75541 59.0815 9.13119 59.1155 8.58105 58.8682C7.5153 58.3888 6.88946 56.9704 7.14844 55.335C7.60871 52.4209 7.62005 52.6548 8.56738 45.5547L8.64941 45.0078C9.09383 42.3352 10.0697 40.546 11.1377 39.2441C11.7035 38.5545 12.2882 38.0089 12.8154 37.5498C13.1092 37.294 13.3716 37.0737 13.6064 36.8711C12.0374 36.0725 10.6341 34.8816 9.37305 33.6357C8.64826 32.9197 7.96223 32.1772 7.31543 31.4727C6.66545 30.7646 6.05828 30.0983 5.47852 29.5186C2.40402 26.444 0.5 22.1945 0.5 17.5C0.5 12.8054 2.4043 8.55613 5.47852 5.47949L5.47949 5.47852C8.55614 2.40415 12.8054 0.5 17.5 0.5ZM14.6953 32.0088C14.4993 32.0089 14.3389 32.1707 14.3389 32.3662C14.3389 32.5643 14.4978 32.7235 14.6953 32.7236H20.3027C20.5015 32.7234 20.6591 32.5653 20.6592 32.3662L20.6523 32.2949C20.6192 32.1325 20.4755 32.009 20.3027 32.0088H14.6953ZM15.1689 28.1777C14.9085 28.1777 14.6974 28.389 14.6973 28.6494C14.6973 28.9085 14.9091 29.1211 15.1689 29.1211C15.4287 29.1209 15.6406 28.9085 15.6406 28.6494C15.6405 28.3891 15.4292 28.1779 15.1689 28.1777ZM19.8311 28.1777C19.5708 28.1779 19.3595 28.3891 19.3594 28.6494C19.3594 28.9084 19.5714 29.1209 19.8311 29.1211C20.0909 29.1211 20.3027 28.9086 20.3027 28.6494C20.3026 28.389 20.0915 28.1777 19.8311 28.1777ZM10.6875 16.7783C8.99979 15.7381 6.48618 15.2122 4.47168 15.7061C4.26643 15.757 4.17576 15.8491 4.12402 15.9717C4.05899 16.1258 4.03068 16.3964 4.11719 16.834H4.11621C4.42889 18.3871 5.09159 20.4301 6.48633 21.6885L6.77539 21.9297L6.94531 22.0547C8.72679 23.3225 11.3742 23.7011 13.9082 23.4639L14.0391 23.4404C14.1569 23.407 14.2396 23.3454 14.293 23.2676C14.3668 23.16 14.4417 22.937 14.3613 22.5146C13.891 20.0471 12.7402 18.0434 10.6875 16.7783ZM30.5254 15.7061C28.5134 15.2126 26.0005 15.7379 24.3105 16.7783C22.2599 18.0434 21.109 20.047 20.6387 22.5146C20.5582 22.9371 20.6342 23.16 20.708 23.2676C20.7793 23.3712 20.9021 23.446 21.0918 23.4639C23.7073 23.7088 26.4445 23.2978 28.2246 21.9297L28.5137 21.6885C29.9087 20.43 30.5703 18.3859 30.8809 16.833C30.9683 16.3959 30.9391 16.1254 30.874 15.9717C30.8221 15.8493 30.7308 15.7579 30.5254 15.707V15.7061Z" fill="#969292" stroke="#313131"/>
</svg>
