<svg width="27" height="55" viewBox="0 0 27 55" fill="none" xmlns="http://www.w3.org/2000/svg">
<path d="M24.9293 50.6152C25.6792 51.4277 25.7432 52.7884 25.1021 53.6953C24.7711 54.1634 24.2935 54.4511 23.772 54.4941C23.2485 54.5372 22.7339 54.3291 22.3463 53.9092L2.0025 31.8701C0.0848025 29.7926 0.00140652 26.3876 1.76227 24.1973L1.93805 23.9893L22.3218 1.11719C22.7022 0.690406 23.2128 0.471165 23.7369 0.50293C24.2596 0.534764 24.7431 0.812901 25.0816 1.27539C25.7372 2.17098 25.6896 3.53261 24.9537 4.3584L4.56989 27.2295C4.21615 27.6264 4.21799 28.1779 4.58551 28.5762L24.9293 50.6152Z" fill="white" stroke="white"/>
</svg>
