<svg width="27" height="55" viewBox="0 0 27 55" fill="none" xmlns="http://www.w3.org/2000/svg">
<path d="M1.11218 4.38477C0.362283 3.57234 0.298268 2.21162 0.939331 1.30469C1.2703 0.836566 1.74795 0.54891 2.26941 0.505859C2.79292 0.462778 3.30754 0.670898 3.69519 1.09082L24.0389 23.1299C25.9566 25.2074 26.04 28.6124 24.2792 30.8027L24.1034 31.0107L3.7196 53.8828C3.33921 54.3096 2.82862 54.5288 2.30457 54.4971C1.78187 54.4652 1.29839 54.1871 0.959839 53.7246C0.304262 52.829 0.351825 51.4674 1.08777 50.6416L21.4716 27.7705C21.8253 27.3736 21.8235 26.8221 21.4559 26.4238L1.11218 4.38477Z" fill="white" stroke="white"/>
</svg>
