<svg id="Layer_1" data-name="Layer 1" xmlns="http://www.w3.org/2000/svg" viewBox="0 0 181.65 176.62"><defs><style>.cls-1{fill:#3a0404;}.cls-2,.cls-3{fill:#3a0202;}.cls-2,.cls-5{opacity:0.68;}.cls-2,.cls-3,.cls-4,.cls-5,.cls-6,.cls-7,.cls-8{isolation:isolate;}.cls-3{opacity:0.36;}.cls-4{fill:#2b1401;opacity:0.82;}.cls-5{fill:#7c4132;}.cls-6,.cls-7{fill:#bc9595;}.cls-6{opacity:0.25;}.cls-7{opacity:0.4;}.cls-8{fill:#56251c;opacity:0.5;}</style></defs><g id="Layer_1-2" data-name="Layer 1"><path class="cls-1" d="M167.49,40.71c.16.26,1.81,4.67,5.1,13.49,1.79,4.83,3.25,9.79,5.17,14.56,2.8,6.93,5.14,11.39,3.16,14.74-.58,1-1.4,1.64-1.72,3.21-.53,2.58.91,4.56,1.61,6.15,2.28,5.15-2.34,8.08-4.14,20.48-.73,5-.19,6-1.48,8.84-1.74,3.86-4,4.91-6.62,8.36-3.27,4.34-3.43,7.66-4.9,11.83-5,14-19.16,21.86-22.55,23.6a50.43,50.43,0,0,1-16.86,5.09c-5,.54-5.27-.28-10.11.28-11.12,1.3-12.36,6-18.71,5.19-7.1-.87-7-6.86-15.45-8.32-5.44-.93-6.29,1.4-13.32.57-4.23-.5-3.88-1.34-13-4.15-9.67-3-12-2.62-15-5.56C36,156.51,37,155.44,33.81,152c-4.07-4.44-6.49-3.6-10.31-7-5.54-4.91-2.7-8.65-8.6-15.88-4-4.92-6-3.95-9.55-9A26.84,26.84,0,0,1,.46,108C-.68,98.25,5.77,96.23,4.84,87.19,4.07,79.73-.56,78.75.06,71.71.3,68.9,1.67,66.12,4.41,60.57,6,57.39,6.92,55.94,11.09,48.91c6.5-11,6.12-10.6,6.83-11.43C23,31.59,26.16,32.76,32.6,26.91c5.5-5,3.56-6.16,9.64-12.6,4.42-4.69,10.17-10.79,18.47-12,3.14-.48,4.59.06,11.32-.81C77.22.83,77.25.4,80.49.12c5.81-.5,7.44.74,15,1.32,6.49.5,5.87-.37,13,0s10.88.63,15.36,2.47c6.32,2.59,4.87,4.67,12.79,8.43,4.48,2.13,7.23,2.56,10.45,5.73,2.1,2.07,2.79,3.71,4.1,5.87C157,33.44,162.23,32.36,167.49,40.71Z"/><path class="cls-2" d="M80.65,47.07c.47-4.1,4-6.51,6.86-8.43s6.29-4.26,10.61-3.45S107,40,106.9,44.3c0,2.28-1.31,5.18-3.19,5.54-2.66.49-4.26-4.57-7.19-4.21-1.78.21-2,2.17-5.81,6.26-2.56,2.72-3.83,4.09-5.33,4C82.74,55.64,80.18,51.06,80.65,47.07Z"/><path class="cls-3" d="M134,126.55a8.36,8.36,0,0,0,4.55,4c3.29,1,6.33-.77,8.18-1.87,4.14-2.46,6.28-5.61,9-9.9,2.31-3.6,3.45-5.44,3-7.33-.78-3.11-4.87-5.41-7.86-4.71-2.15.51-1.86,2.12-5,4.7-3.51,2.87-5.37,2.08-9.69,5.59-2.2,1.79-2.77,2.84-3,3.7A7.61,7.61,0,0,0,134,126.55Z"/><path class="cls-2" d="M14.35,84.89c-1.29,2.65-2.44,5-1.55,6,1.14,1.18,4.93-.86,6-1.43,2.75-1.48,6.2-3.35,6.6-6.91.34-3-1.56-6.6-3.7-6.85C19,75.34,16.58,80.25,14.35,84.89Z"/><path class="cls-4" d="M141.35,36.2c.1,1.54,2,2.75,3.53,3.14.23.06,3.18.78,4.72-1.1A4.55,4.55,0,0,0,148.51,32C145.9,30.51,141.14,33.69,141.35,36.2Z"/><path class="cls-2" d="M42.93,38.53c-1.27-3.3,0-8.72,3.9-10A6.48,6.48,0,0,1,54,31.24c.91,1.57,1.23,4,.18,4.83-1.4,1.08-3.93-1.69-5.86-.63-2.12,1.17-1,5.69-2.47,6.06C45,41.8,43.55,40.12,42.93,38.53Z"/><path class="cls-2" d="M60.61,142.23c-2.21,2.21-.17,9.73,4.69,13.27,3.77,2.74,8.08,2.24,14.35,1.52s10.73-1.24,12-4.36c1.44-3.58-1.85-9.37-5.64-10.17-4.16-.87-6.41,4.8-11.3,3.91-2.85-.52-3.11-2.63-7.54-4C65.29,141.85,62,140.83,60.61,142.23Z"/><path class="cls-5" d="M29.12,136.82c1.55-1.34,3.56.07,5.76-.66,3.84-1.27,4.09-4.21,7.25-6.28,4.17-2.73,6.89.36,13.3-.94,6.07-1.23,10-5.29,14.59-10a44,44,0,0,0,8.87-12.49c6.34-13.81.72-23.3,7.6-28.67,2-1.56,5.77-3.32,8.89-2.18,2.55.93,2.75,3.11,7.12,6.18a29.85,29.85,0,0,0,5.2,2.86c4.16,1.85,5.2,1.33,8.28,2.79a22.49,22.49,0,0,1,6.78,4.86c3.91,4.39,6.21,12.07,3.51,17.72-2,4.18-4.62,2.81-8.72,8-5.12,6.49-3.06,11.18-7.55,13.89-3.85,2.32-6.85-.23-10,2.52-2.82,2.49-3.72,7.53-1.94,9.24,2,1.94,7.59-.3,11.06-2.9,4.68-3.5,3.66-6.24,9.23-12.33,4.06-4.43,5.09-3.51,8.49-7.86,3.65-4.66,3-6.42,6.11-9,4.48-3.68,8.75-2.42,9.46-4.84.82-2.82-5-4.42-5.77-9.86-.69-4.78,3.37-6.32,2.22-11.54a30.29,30.29,0,0,0-2.93-6.85h0s-3.83-3.71-4.37-5.92,0-5.65,2.11-7c2.43-1.63,4.85.84,12.09.36,3.31-.22,4.69-1.51,4.69-1.51s-.51-3.89.89-5.74c.88-1.16,1.8-.68,2.9-1.89,1.32-1.46.89-5.74.89-5.74a22.42,22.42,0,0,0-7.5-4.39,62.64,62.64,0,0,0-11.12-2s-6.82,4-12.37,4c-3,0-2.92-1-11-3-4.46-1.08-6.72-1.61-8.18-1C101.35,46,101.94,50.38,98.57,56c-4.24,7-12.84,12.69-18.2,10.83-3.93-1.37-6.4-6.65-6.4-6.65s-16.88,24-24.42,22.63c-6.89-1.25-11.37-24.55-11.37-24.55S35.62,60.13,28.05,76.7c-.65,1.43-5.11,11.21-10,21-3.68,7.31-5.53,11-6.34,10.84C8.17,108,3.54,80.33,15.36,55.63,25.05,35.39,41.6,25.93,49,21.84,62.35,14.46,89.63,4,100.46,14.57c5.53,5.39,3.48,13.06,9.78,15.79,5.82,2.53,9.44-3.21,21.12-4a59.41,59.41,0,0,1,20.46,2.12c-2.57-6.51-5.76-8.92-8.33-9.87-2.94-1.09-5.94-.58-10.82-3.09-1.3-.67-2.44-1.4-3.42-2a59.51,59.51,0,0,1-6.7-5c-4.66-3.86-13.64-1.65-26.14-1.89-12.87-.24-12.76-2.76-21.89-2a55.45,55.45,0,0,0-20.58,6.11C48,13.67,43.94,16.8,16.2,49.63,10.37,56.54,7.29,60.27,5.91,66.42c-1.72,7.64,2,9.46,3.27,23.19s-1.71,16.94,2.06,23.69c2.94,5.28,5.24,4.15,9.3,11,4.4,7.36,5.76,15.46,7.1,15.22C28.18,139.35,27.89,137.88,29.12,136.82Z"/><path class="cls-2" d="M68.42,5c-.55,10.66,4.69,19.64,12,21.94a18,18,0,0,0,15.19-2.48c3.64-2.72,4.23-6,7.3-6.25s3.68,2.66,8.12,4.1a15.05,15.05,0,0,0,12-1.37,15.82,15.82,0,0,0,7.13-10.39,81,81,0,0,0-21.88-7.68A82.81,82.81,0,0,0,68.42,5Z"/><path class="cls-2" d="M54,95.34c-3.76,2.89-3.58,9.8-3.46,11.12.21,2.43.6,6.86,4,9.24s8,1.15,10.15.52c4.61-1.32,4.19-1.71,12.17-8.86,5.89-5.27,6.07-6.64,6-7.41-.1-3.91-5.89-7-10-7.8a13,13,0,0,0-5.35.24c-1.93.43-2.72,1-5.07,1.33-1.59.21-1.79,0-3.33.19C58.69,94,55.6,94.13,54,95.34Z"/><path class="cls-6" d="M18.35,46.71c-1.66,4-1.23,6.29-4.17,12.16C11,65.21,9.08,65.3,8,69.22c-1.76,6.29,2.47,8.61,3.37,17.39,1,10-3.89,12.13-2.9,20.49.72,6.11,4,10.06,10.61,17.7,5.52,6.42,23.12,26.85,32,22.61,3.8-1.8,2.14-6.21,8.19-10.71.94-.7,6.34-4.71,13.39-4.41,4.38.18,6.2,1.9,7.75.69,2.32-1.8-1-6.23-.07-12.34,1.32-8.58,9.13-7.88,12.68-18.23,2.06-6,.75-10.17,4.69-13.69,2.61-2.33,4-1.26,5.9-3.18,5.3-5.47-3.59-16.79,1.15-22.67,3.72-4.61,11.49-.47,16-6.47,1.76-2.33,2-4.8,5-6.59,2.79-1.66,4.65-.75,5.57-2.23,1.36-2.18-2.12-5-2.81-10.85-.36-3,.34-4.25.58-7,.76-8.74-4.41-20.12-11.19-21.65-3.76-.85-4.76,2.07-10.88,1.79-4.91-.22-6.34-2.19-10.77-3.27C89.77,5,86.82,7.78,77.72,9.45c-14,2.57-15.34-2.42-23,.66C46.17,13.55,49,19.29,36.43,30.45,27,39,21.6,39,18.35,46.71Z"/><path class="cls-7" d="M14.49,78.34c1.26-6.2,1.3-9.37,4-14s4.4-4.36,7.66-9.65c4.18-6.76,2.52-9,6.47-13.51,3-3.38,4.15-2.33,8.63-6.62s3.65-5.8,7.47-9.24c1.2-1.07,7-6.31,14.44-6,4.71.16,5,2.37,8.47,1.78,5.4-.9,5.93-6.38,11.88-7.74,3.73-.86,7.82.31,8.08,1.7.31,1.59-4.34,4-8.08,5.93-4.39,2.28-5.85,2.31-6.91,4.18-1.47,2.6.33,4.4-1.23,6.77-1.82,2.79-5.35,1.91-6.05,3.95-.78,2.27,3.4,3.91,4.31,8.15s-1.69,10-5.36,11.13C63,56.89,57.61,48.41,54.44,50.25c-2.62,1.51.82,7.37-2.69,13.7-2.67,4.83-6.12,4-7.33,8.11-1.41,4.7,2.92,6.81,2.38,13.8-.12,1.63-.46,6-3.54,8.87C39.62,98.13,36,95.83,33.11,99c-2.65,2.93-2.64,8.21-1.45,11.66,1,3,2.63,3.71,2.81,6.72a11,11,0,0,1-1.68,6.07c-.55,1-3.34,6-6.23,5.73-3.23-.29-2.86-6.8-8.35-13.88-5-6.45-8.16-4.69-10.32-9.15C4.89,100.06,10.78,96.67,14.49,78.34Z"/><path class="cls-8" d="M96.08,173.16c-.33-.77,8.27-7,19.85-9.28,6.45-1.26,8.09-.16,13.44-1.8a38.31,38.31,0,0,0,15.36-9.92c11.13-12.31,2.16-25,6.58-48.3,4-21,24.63-37,24.63-37a20.34,20.34,0,0,1,1.84,9.26c-.24,4.59-2.08,6.46-3.07,11.94-.73,4.08-.09,5.2-.18,10.41a75.31,75.31,0,0,1-2.64,17.33c-1.58,5.46-2.7,6-9.14,18.58-7.21,14.11-5.76,13.37-8.35,16.73a43.53,43.53,0,0,1-21.83,14.71c-5.58,1.57-5.78.29-15.2,1.86C103.8,169.9,96.35,173.86,96.08,173.16Z"/><path class="cls-8" d="M76.9,163.1c1.26.48,3.21,1.26,5.53,2.37,8.11,3.87,9.8,6.53,13.65,7.69,4.74,1.44,7.12-1.09,16.55-4.15,15.81-5.12,17.63-.77,26-5.49,10.15-5.72,15.08-16.4,16-18.61,2.4-5.48,1.71-7.39,4.85-13.46,4.33-8.38,7.06-7.48,10.09-13.55,4.3-8.64-.31-12.34,2.52-29.86,1.34-8.28,2.5-8.26,2.23-12.76-.39-6.5-2.89-7.78-7-20.36-2.27-7-2-8.31-4.13-11.61-3-4.73-6.53-7-9.93-9.44-12.1-8.7-11.21-11.88-19.66-17.66-5-3.44-13.25-7.74-25.95-9.35a85,85,0,0,1,30.7,20.44c18.49,19.46,31.28,52.34,20.33,84.1-8.3,24-28.85,45.52-55.1,51.26A69,69,0,0,1,76.9,163.1Z"/></g></svg>