<svg width="95" height="77" viewBox="0 0 95 77" fill="none" xmlns="http://www.w3.org/2000/svg">
<path d="M93.8855 54.4206L90.8934 50.8531C88.9787 48.5704 85.9369 48.2727 83.7126 49.9899L81.7576 47.6595C82.0571 47.7105 82.259 47.7444 82.2697 47.7446C82.4861 47.7483 82.6995 47.6709 82.8765 47.5218C83.0902 47.3413 83.233 47.0712 83.2742 46.7708L86.1243 25.923C86.2099 25.2975 85.839 24.7131 85.2954 24.618L81.0254 23.87C78.2939 23.3925 75.7056 25.2759 74.8305 28.186L65.1908 26.5016C64.5082 26.382 63.8257 26.3389 63.1497 26.3656L63.2399 21.2998C63.2829 18.8868 62.5067 16.607 61.0561 14.8813C59.6096 13.1526 57.6578 12.1803 55.5601 12.144C53.4661 12.1077 51.4807 13.0117 49.9695 14.6903C48.4585 16.3689 47.6033 18.6199 47.5622 21.0281L47.4532 27.1455L43.6004 27.0787L39.7305 22.4647C40.0435 21.1158 40.2251 19.7054 40.251 18.2504C40.425 8.48096 33.6579 0.413217 25.166 0.266026C17.4279 0.1319 10.8894 6.62101 9.65741 15.1656L2.41757 23.2044C1.0682 24.7026 0.303797 26.7128 0.265465 28.8645C0.227137 31.016 0.91947 33.0514 2.21488 34.5958L17.9718 53.3813L17.9377 55.2989C17.8139 62.248 22.6272 67.9865 28.6673 68.0912L30.2314 68.1183L31.0019 69.0363C34.7642 73.5218 39.7685 75.818 44.8137 75.9054C49.858 75.9928 54.9435 73.8704 58.862 69.5192L68.9137 58.3988L79.2234 70.7006C79.4139 70.9277 79.6669 71.0442 79.9216 71.0486C80.1763 71.053 80.4336 70.9454 80.6318 70.725L93.8566 56.0409C94.2536 55.6004 94.2665 54.8745 93.8855 54.4206ZM69.947 56.3211L70.1016 47.6469C71.6695 47.4305 73.1927 46.6465 74.416 45.2879C74.8709 44.7831 75.2612 44.2222 75.5887 43.6149L79.8066 48.6433L71.3671 58.0141L69.947 56.3211ZM58.5498 44.9008L54.3018 39.8364L54.6331 37.4158C54.6346 37.4052 54.6365 37.3952 54.6382 37.3849C55.2138 37.7227 55.8273 37.9741 56.4744 38.1323C56.9577 38.2504 57.4438 38.313 57.9277 38.3214C59.0906 38.3415 60.237 38.0428 61.2917 37.4521L63.0431 40.2077C62.4855 40.6339 61.9557 41.119 61.4637 41.6656L58.5498 44.9008ZM63.4704 28.6502C63.5848 29.4422 63.5678 30.2423 63.418 31.0341C63.1064 32.6807 62.2568 34.0925 61.0253 35.01C59.7939 35.9274 58.3289 36.2407 56.8986 35.8904C56.2856 35.7405 55.7133 35.4781 55.1908 35.1106C55.8125 33.3489 56.8457 31.8128 58.2121 30.6593C59.7619 29.351 61.5893 28.6611 63.4704 28.6502ZM69.2751 38.1083C67.721 38.0813 66.2111 38.4286 64.819 39.1082L62.962 36.1866C64.1765 34.972 65.017 33.3486 65.3648 31.5103C65.5304 30.6357 65.5747 29.7538 65.5034 28.8766L70.9975 29.8367L69.8647 38.138C69.6692 38.1223 69.4728 38.1117 69.2751 38.1083ZM69.2343 40.4001C70.9784 40.4303 72.6351 41.031 74.0478 42.1181C73.7805 42.68 73.443 43.1914 73.0365 43.6429C70.8571 46.0624 67.3824 46.0024 65.2906 43.5086C64.902 43.0454 64.5855 42.5278 64.3406 41.9656C65.7963 40.9179 67.4815 40.3697 69.2343 40.4001ZM81.4612 45.2933L79.8901 45.0182L82.4321 26.4367L84.0015 26.7115L81.4612 45.2933ZM75.4181 30.6088C75.9642 30.7005 76.4715 30.2734 76.5569 29.6476C76.8553 27.4646 78.5771 25.9341 80.4619 26.1072L78.1084 43.3089L76.955 41.9338C75.534 40.2396 73.7678 39.0676 71.8308 38.4996L72.9659 30.18L75.4181 30.6088ZM57.0392 28.8138C55.7347 29.9148 54.6788 31.3018 53.9161 32.8816L49.4391 27.5441C49.4391 27.5441 49.5602 20.8828 49.5648 20.7937L61.2469 20.9962C61.2482 21.0859 61.1517 26.6599 61.1517 26.6599C59.686 27.0363 58.2885 27.7594 57.0392 28.8138ZM55.5195 14.4361C57.0841 14.4632 58.5393 15.1873 59.6188 16.4778C60.164 17.126 60.581 17.8795 60.8569 18.6969L50.0359 18.5094C50.3402 17.7028 50.7831 16.9648 51.35 16.3351C52.4768 15.0834 53.9577 14.409 55.5195 14.4361ZM48.2632 29.4521C48.2632 29.4521 53.0161 35.1061 53.0642 35.1459C52.8902 35.7699 52.7552 36.4126 52.6652 37.0719L52.5695 37.7714L45.5522 29.4054L48.2632 29.4523L48.2632 29.4521ZM57.1125 46.497L53.9828 49.9718L36.6406 29.2967C37.6002 27.9788 38.397 26.4996 38.9967 24.899L57.1125 46.497ZM38.2594 18.2158C38.2499 18.7493 38.2168 19.276 38.1612 19.7948C34.8291 23.3905 30.3893 24.8578 26.6051 23.6571C26.5577 22.2192 26.0664 20.8699 25.1924 19.8285C24.2482 18.7026 22.9774 18.0696 21.6143 18.046C21.3957 18.0422 21.1797 18.0599 20.9657 18.0872C19.1737 13.3748 20.5151 7.29479 24.3746 3.00963C24.5174 2.85106 24.6573 2.70361 24.7953 2.56214C24.9054 2.5609 25.0151 2.55621 25.1259 2.55813C32.5189 2.68628 38.4109 9.71037 38.2594 18.2158ZM21.5735 20.3378C22.4045 20.3522 23.1795 20.7381 23.7551 21.4244C24.3307 22.1107 24.6384 23.0155 24.6214 23.9718C24.6044 24.9281 24.2646 25.8214 23.6649 26.4873C23.0652 27.1532 22.2769 27.5121 21.4459 27.4977C20.6147 27.4833 19.8397 27.0973 19.2641 26.4107C18.6884 25.7248 18.3807 24.8202 18.3978 23.8639C18.4148 22.9077 18.7546 22.014 19.3543 21.3481C19.954 20.6822 20.7423 20.3234 21.5735 20.3378ZM21.6731 3.01639C18.3051 7.74421 17.2741 13.8405 19.0541 18.7894C18.6668 19.0374 18.3023 19.3397 17.9747 19.7037C16.9908 20.7959 16.4336 22.2615 16.4056 23.8297C16.3777 25.3979 16.8826 26.8818 17.8268 28.0072C18.771 29.1331 20.0418 29.7661 21.4051 29.7898C22.7685 29.8134 24.0608 29.2248 25.0445 28.1326C25.6084 27.5065 26.0265 26.7555 26.291 25.935C27.2012 26.2007 28.1392 26.3413 29.089 26.3578C31.9033 26.4066 34.8148 25.3816 37.3753 23.4203C35.406 29.3335 30.3784 33.5102 24.5763 33.4096C17.1828 33.2814 11.2909 26.2574 11.4424 17.7513C11.5693 10.6149 15.9118 4.67031 21.6731 3.01639ZM18.231 38.8303L5.19884 23.2933L9.45355 18.5691C9.61471 25.4208 13.1892 31.3218 18.3157 34.0642L18.231 38.8303ZM7.65258 37.7689L11.2316 33.795L12.7702 35.6293L9.19117 39.6032L7.65258 37.7689ZM2.25759 28.8991C2.28467 27.3787 2.8201 25.9589 3.76326 24.8912L9.85202 32.1503L6.27301 36.1242L3.65243 32.9999C2.72556 31.8949 2.23016 30.4383 2.25759 28.8991ZM10.5707 41.248L14.1497 37.274L18.1733 42.0709L18.0296 50.1404L10.5707 41.248ZM20.0354 57.122C21.9751 56.1452 24.2444 56.6287 25.7418 58.4136C27.3221 60.2977 27.5914 63.2004 26.4736 65.4342C23.121 64.374 20.5727 61.1212 20.0354 57.122ZM28.5461 65.792C29.5276 63.2712 29.3399 60.3599 28.0241 58.0411L33.0897 52.4163L38.9919 52.5186C39.0701 52.5199 39.1474 52.5247 39.2251 52.5295L38.9856 65.9709C38.9081 65.9727 28.6001 65.7941 28.5461 65.792ZM44.7199 59.3475C44.6699 62.151 43.1285 64.5323 40.9867 65.5047L41.2083 53.0642C43.3139 54.1105 44.7698 56.5441 44.7199 59.3475ZM57.4824 67.8745C50.6548 75.4547 39.895 75.5072 33.0814 68.1677L38.7113 68.2653C43.0342 68.3402 46.6232 64.3553 46.7118 59.382C46.8004 54.4088 43.3556 50.3017 39.0327 50.2267L33.7142 50.1346L33.9406 37.4265C33.9519 36.7937 33.5151 36.2728 32.965 36.2633C32.4149 36.2538 31.9598 36.7591 31.9485 37.392L31.7101 50.7715L26.7172 56.3154C24.8381 54.4397 22.273 53.865 19.9407 54.7216L20.2932 34.9344C21.6376 35.4056 23.0593 35.6755 24.5353 35.7011C28.6587 35.7726 32.4393 33.96 35.2607 30.9613L52.5452 51.5677L50.0825 54.3021C49.6854 54.7428 49.6724 55.4685 50.0537 55.9224C50.4344 56.3769 51.0657 56.3878 51.4621 55.9468L62.7506 43.413C63.0533 44.0217 63.4201 44.5886 63.8528 45.1045C65.0346 46.5134 66.5401 47.3507 68.1094 47.6161L67.9549 56.2865L57.4824 67.8745ZM72.7469 59.6585L81.1864 50.288L82.9041 52.3357C83.2853 52.7903 83.916 52.8012 84.3125 52.3602C85.6972 50.8232 87.8667 50.7975 89.2687 52.2475L77.4906 65.325L72.7469 59.6585ZM79.9709 68.2821L78.8701 66.9697L90.6577 53.8818L91.7582 55.1941L79.9709 68.2821Z" fill="white" stroke="white" stroke-width="0.52792"/>
</svg>
