<svg width="28" height="24" viewBox="0 0 28 24" fill="none" xmlns="http://www.w3.org/2000/svg">
<path d="M10.9601 11.3505C10.9601 10.8001 10.5136 10.3544 9.96406 10.3544C9.41372 10.3544 8.96759 10.8001 8.96759 11.3505C8.96759 11.9004 9.41372 12.3469 9.96406 12.3469C10.5136 12.3469 10.9601 11.9004 10.9601 11.3505Z" fill="#7D5B5B" stroke="black" stroke-width="0.251116"/>
<path d="M18.3324 11.3505C18.3324 10.8001 17.8859 10.3544 17.3363 10.3544C16.786 10.3544 16.3398 10.8001 16.3398 11.3505C16.3398 11.9004 16.786 12.3469 17.3363 12.3469C17.8859 12.3469 18.3324 11.9004 18.3324 11.3505Z" fill="#7D5B5B" stroke="black" stroke-width="0.251116"/>
<path d="M26.2009 9.65793C25.6705 9.1271 24.9499 8.77906 24.1539 8.72068C23.6562 6.38054 22.4037 4.31968 20.6642 2.80615C18.7637 1.15293 16.2751 0.150024 13.5583 0.150024C10.8456 0.150024 8.36045 1.14987 6.46106 2.79819C4.71092 4.31667 3.45267 6.38818 2.95813 8.74019C2.23609 8.83448 1.58614 9.16913 1.09724 9.65798C0.512942 10.2422 0.150024 11.0567 0.150024 11.9489C0.150024 12.8396 0.512942 13.654 1.09724 14.2383C1.68154 14.8226 2.49628 15.1859 3.38855 15.1859C3.44961 15.1859 3.50952 15.1843 3.56943 15.1813C4.34947 17.0345 5.6287 18.6259 7.23958 19.7856C7.98071 20.3192 8.79393 20.7615 9.66104 21.0961C9.5561 20.7301 9.50225 20.3459 9.50225 19.9543C9.50225 19.7738 9.51449 19.5929 9.53811 19.4166C9.03592 19.1773 8.55926 18.8937 8.11234 18.5724C6.57898 17.4692 5.39245 15.9105 4.75094 14.0978L4.5197 13.4433L3.85034 13.6272C3.69615 13.6689 3.54353 13.6914 3.38855 13.6914C2.90466 13.6914 2.47224 13.4971 2.15546 13.1804C1.83911 12.8632 1.64446 12.4317 1.64446 11.9488C1.64446 11.4645 1.83911 11.0326 2.15546 10.7158C2.47224 10.3991 2.9046 10.2048 3.38855 10.2048C3.41829 10.2048 3.46333 10.2078 3.52597 10.2121L4.22091 10.2658L4.32432 9.57893C4.66171 7.33376 5.80046 5.35079 7.43997 3.92813C7.84982 3.5728 8.29026 3.25265 8.75738 2.97174C8.79783 3.22518 8.86042 3.46253 8.94744 3.68043C9.08523 4.02658 9.27829 4.32653 9.50695 4.58261C9.90841 5.0318 10.4107 5.34816 10.9342 5.60729C11.7215 5.99384 12.5718 6.26178 13.2862 6.59575C13.6434 6.76133 13.9651 6.94147 14.2285 7.14909C14.493 7.35786 14.699 7.5891 14.8459 7.87076C14.9254 8.023 15.0825 8.11613 15.2543 8.11228C15.4261 8.10812 15.5787 8.00771 15.6508 7.85162C16.4259 6.17245 16.7052 4.85124 16.7057 3.81359C16.7068 3.10526 16.5732 2.53246 16.3855 2.08137C17.6135 2.47139 18.7321 3.10721 19.6835 3.93382C21.3245 5.36155 22.4603 7.34906 22.7954 9.59955L22.906 10.3407L23.6471 10.2273C23.746 10.2121 23.8326 10.2048 23.9116 10.2048C24.3959 10.2048 24.8263 10.3991 25.1446 10.7158C25.4614 11.0326 25.6545 11.4646 25.6556 11.9488C25.6545 12.4316 25.4614 12.8632 25.1446 13.1804C24.8263 13.4971 24.3959 13.6914 23.9116 13.6914C23.7112 13.6914 23.5204 13.6551 23.3349 13.5914L22.6266 13.3414L22.3797 14.0498C21.7465 15.8747 20.5612 17.4455 19.0247 18.5572C18.6229 18.8484 18.1974 19.1087 17.7501 19.333C17.7814 19.5377 17.7966 19.7441 17.7966 19.9544C17.7966 20.3177 17.7501 20.6733 17.66 21.0157C18.4599 20.6871 19.2118 20.2669 19.9005 19.7677C21.5038 18.6064 22.7773 17.0177 23.5531 15.1649C23.6696 15.1783 23.7905 15.1859 23.9114 15.1859C24.8041 15.1859 25.6166 14.8225 26.2009 14.2383C26.7856 13.654 27.15 12.8396 27.15 11.9489C27.15 11.0567 26.7856 10.2422 26.2009 9.65793ZM11.8379 5.03333C11.1875 4.75933 10.6174 4.45326 10.2304 4.0453C10.0366 3.84075 9.88389 3.61214 9.77479 3.33544C9.68545 3.10531 9.6275 2.83663 9.60989 2.51991C10.1969 2.24548 10.8166 2.02911 11.4627 1.88103C11.4658 2.3886 11.5837 3.18315 12.089 4.13801C12.3142 4.56621 12.6172 5.0249 13.0186 5.50578C12.6172 5.34399 12.2153 5.19328 11.8379 5.03333ZM15.268 6.43776C14.0062 5.42336 13.2884 4.48991 12.882 3.7194C12.4393 2.88056 12.3599 2.23219 12.3588 1.85667C12.3588 1.80631 12.3607 1.76201 12.363 1.72198C12.7541 1.67199 13.153 1.64446 13.5583 1.64446C14.1071 1.64446 14.6444 1.69372 15.1672 1.78416C15.2207 1.8467 15.2771 1.91847 15.3336 2.00279C15.5694 2.36075 15.8075 2.9229 15.8087 3.81364C15.8091 4.48648 15.6675 5.35048 15.268 6.43776Z" fill="#7D5B5B" stroke="black" stroke-width="0.3"/>
<path d="M13.6499 16.7048C12.755 16.7045 11.9371 17.0701 11.3517 17.6571C10.7647 18.2425 10.3992 19.0603 10.3999 19.9552C10.3992 20.8501 10.7647 21.668 11.3517 22.2534C11.9371 22.8404 12.755 23.2056 13.6499 23.2052C14.5448 23.2056 15.3626 22.8404 15.948 22.2534C16.535 21.668 16.9006 20.8502 16.8998 19.9552C16.9006 19.0603 16.535 18.2425 15.948 17.6571C15.3626 17.0701 14.5448 16.7045 13.6499 16.7048ZM15.1619 20.5937C15.0379 20.8868 14.8291 21.139 14.5666 21.3161C14.304 21.4932 13.9926 21.5955 13.6499 21.5958C13.4209 21.5955 13.2072 21.5496 13.0118 21.4669C12.7183 21.3432 12.466 21.134 12.289 20.8719C12.1119 20.6089 12.0097 20.2975 12.0097 19.9552C12.0097 19.7262 12.0554 19.5125 12.1379 19.3167C12.2619 19.0236 12.471 18.7713 12.7332 18.5943C12.9958 18.4172 13.3076 18.3149 13.6499 18.3146C13.8788 18.315 14.0922 18.3607 14.2883 18.4432C14.5818 18.5673 14.8337 18.7764 15.0108 19.0385C15.1879 19.3011 15.2901 19.6129 15.2905 19.9552C15.2901 20.1838 15.2443 20.3975 15.1619 20.5937Z" fill="#7D5B5B" stroke="black" stroke-width="0.251116"/>
<path d="M13.6498 14.7555C11.4424 14.7555 9.65259 15.8256 9.65259 17.1464C9.65259 17.541 9.81211 17.9135 10.0961 18.2421C10.2678 17.9582 10.4774 17.6922 10.7181 17.4514C11.4997 16.6687 12.5408 16.2366 13.6487 16.2366C14.7604 16.2366 15.8007 16.6686 16.5838 17.4533C16.8243 17.6922 17.0318 17.9582 17.2039 18.2421C17.4874 17.9135 17.6478 17.541 17.6478 17.1464C17.6478 15.8256 15.8587 14.7555 13.6498 14.7555Z" fill="#7D5B5B" stroke="black" stroke-width="0.251116"/>
</svg>
