<svg width="47" height="60" viewBox="0 0 47 60" fill="none" xmlns="http://www.w3.org/2000/svg">
<path d="M4.84 20.5001C0.44 16.1001 -0.96 12.4001 0.64 9.60007C3.74 4.10007 18.64 4.10007 31.04 6.90007L30.64 8.70007C19.04 6.20007 4.94 6.10007 2.34 10.6001C0.94 13.1001 3.64 16.7001 6.24 19.3001L4.84 20.5001Z" fill="#D3976E"/>
<path d="M32.2401 9.29983C31.2401 10.2998 30.2401 11.1998 29.3401 12.1998C28.4401 13.0998 29.8401 14.3998 30.6401 13.4998C31.6401 12.4998 32.6401 11.5998 33.5401 10.5998C34.4401 9.79983 33.1401 8.39983 32.2401 9.29983Z" fill="#FFCE31"/>
<path d="M37.8401 6.49989L40.7401 3.59989C41.6401 2.69989 40.2401 1.39989 39.4401 2.29989L36.5401 5.19989C35.6401 5.99989 36.9401 7.29989 37.8401 6.49989Z" fill="#FFCE31"/>
<path d="M36.4402 10.5998C37.4402 11.5998 38.4402 12.4998 39.3402 13.4998C40.2402 14.3998 41.5402 12.9998 40.6402 12.1998C39.6402 11.1998 38.6402 10.2998 37.7402 9.29983C36.9402 8.39983 35.5402 9.79983 36.4402 10.5998Z" fill="#FFCE31"/>
<path d="M29.3401 3.59983L32.2401 6.49983C33.1401 7.39983 34.4401 5.99983 33.5401 5.19983L30.6401 2.29983C29.8401 1.39983 28.4401 2.79983 29.3401 3.59983Z" fill="#FFCE31"/>
<path d="M34.04 12.0001V14.9001C34.04 16.1001 35.94 16.1001 35.94 14.9001V12.0001C35.94 10.8001 34.04 10.8001 34.04 12.0001Z" fill="#ED4C5C"/>
<path d="M34.04 0.9V3.7C34.04 4.9 35.94 4.9 35.94 3.7V0.9C35.94 -0.3 34.04 -0.3 34.04 0.9Z" fill="#ED4C5C"/>
<path d="M39.2401 8.7999H42.1401C43.3401 8.7999 43.3401 6.8999 42.1401 6.8999H39.2401C38.0401 6.9999 38.0401 8.7999 39.2401 8.7999Z" fill="#ED4C5C"/>
<path d="M1.73989 22.2001L7.73989 16.3001L11.5399 20.0001C15.0399 17.6001 19.3399 16.3001 23.9399 16.3001C36.1399 16.2001 46.0399 26.0001 46.0399 38.1001C46.0399 50.2001 36.1399 60.0001 23.8399 60.0001C11.6399 60.0001 1.63989 50.2001 1.63989 38.1001C1.63989 33.6001 3.03989 29.4001 5.43989 25.9001L1.73989 22.2001Z" fill="#262A2C"/>
</svg>
