<svg width="283" height="283" viewBox="0 0 283 283" fill="none" xmlns="http://www.w3.org/2000/svg">
<g clip-path="url(#clip0_89_683)">
<path d="M217.261 74.1952C201.014 59.9773 181.363 53.0214 161.841 52.6799C159.491 52.6388 157.759 54.8659 158.427 57.1191L169.84 95.6527C170.453 97.7208 170.062 99.9561 168.785 101.694L149.306 128.2C148.346 129.506 148.425 131.304 149.496 132.521L177.507 164.33C178.569 165.537 179.177 167.078 179.224 168.685L180.537 213.515C180.676 218.247 185.42 221.406 189.868 219.785C207.865 213.222 223.885 200.614 234.576 182.508C255.411 147.218 248.101 101.183 217.261 74.1952Z" fill="#2CB8E2"/>
<path d="M154.487 58.7036L167.938 96.5396C168.661 98.5719 168.39 100.825 167.208 102.629L156.943 118.291L164.8 122.292C167.054 123.44 169.671 123.645 172.076 122.863L181.239 119.884C182.828 119.367 184.259 118.437 185.377 117.194C185.935 116.575 186.408 115.885 186.787 115.142L192.856 103.225L197.709 105.696C198.823 106.263 200.054 106.564 201.304 106.573L206.05 106.609L209.866 108.552C210.452 108.85 211.073 109.076 211.715 109.223L233.749 114.29C235.497 114.692 237.269 114.428 238.849 113.711C237.331 119.272 235.254 124.764 232.536 130.102C226.515 141.926 218.136 151.759 208.269 159.333C207.417 157.892 206.188 156.709 204.66 155.932L203.109 155.142L203.485 154.402C205.226 150.981 204.583 146.83 201.889 144.096L191.794 133.851C188.972 130.986 184.582 130.366 181.076 132.335L174.497 136.031C173.647 136.508 172.887 137.117 172.235 137.841C171.714 138.42 171.271 139.065 170.918 139.759L169.224 143.086L166.285 142.644C163.819 142.273 161.385 142.994 159.469 144.51L179.275 164.708C180.4 165.857 181.09 167.363 181.223 168.965L184.937 213.677C185.33 218.402 190.247 221.292 194.607 219.429C212.523 211.773 227.959 198.041 237.492 179.322C248.675 157.36 249.518 132.867 241.868 111.344C241.878 111.329 241.888 111.313 241.899 111.298C237.256 98.2189 229.382 86.0759 218.341 76.1396C201.058 60.5852 179.217 53.3315 157.683 54.0929C155.325 54.1764 153.697 56.4801 154.487 58.7036Z" fill="#018DAD"/>
<path d="M196.463 155.093L198.188 151.705C198.769 150.565 198.555 149.181 197.657 148.27L187.56 138.023C186.619 137.068 185.156 136.861 183.987 137.518L177.408 141.214C176.896 141.501 176.481 141.933 176.215 142.456L173.549 147.691C172.969 148.831 171.724 149.472 170.458 149.281L165.401 148.521C164.794 148.429 164.196 148.539 163.67 148.793L179.274 164.707C180.4 165.855 181.089 167.361 181.222 168.964L181.95 177.72L202.239 188.052C202.651 188.261 203.104 188.372 203.566 188.376L220.965 188.504C222.091 188.512 223.125 187.883 223.635 186.88L223.907 186.346C224.74 184.71 223.905 182.717 222.153 182.163L209.718 178.237C208.803 177.948 208.083 177.235 207.786 176.322L203.44 162.958C203.197 162.208 202.665 161.586 201.963 161.228L197.763 159.09C196.3 158.345 195.718 156.556 196.463 155.093Z" fill="#9BDB76"/>
<path d="M181.949 177.721L202.239 188.053C202.651 188.262 203.104 188.373 203.566 188.376L220.965 188.504C222.091 188.513 223.125 187.884 223.635 186.881L223.907 186.347C224.741 184.71 223.905 182.717 222.153 182.164L209.718 178.237C208.802 177.948 208.082 177.235 207.786 176.322L203.44 162.958C203.423 162.905 203.381 162.867 203.361 162.815C196.599 167.29 189.248 170.739 181.57 173.154L181.949 177.721Z" fill="#7FE55D"/>
<path d="M212.69 71.4877C212.311 71.2012 211.924 70.9223 211.539 70.6411C209.831 69.3951 208.087 68.1841 206.268 67.0529C205.839 66.7857 205.394 66.5696 204.961 66.3105C203.274 65.3009 201.573 64.3045 199.795 63.3985C199.773 63.3881 199.752 63.3784 199.73 63.368C198.006 62.4892 196.258 61.6984 194.5 60.9462C193.815 60.6531 193.128 60.372 192.439 60.0977C190.922 59.4944 189.396 58.9322 187.859 58.4209C187.243 58.2157 186.628 58.0163 186.01 57.8257C184.411 57.3334 182.805 56.8924 181.191 56.4975C180.552 56.3406 179.912 56.1889 179.271 56.0473C177.389 55.6319 175.503 55.2569 173.609 54.9713C173.293 54.9235 172.977 54.8964 172.661 54.8525C170.94 54.6123 169.215 54.4301 167.49 54.2949C166.949 54.2526 166.409 54.2086 165.868 54.1767C163.931 54.0622 161.993 53.9996 160.058 54.0152C159.656 54.0186 159.256 54.0433 158.854 54.0518C158.513 54.0594 158.072 54.0769 157.583 54.1007C155.268 54.2123 153.708 56.5169 154.484 58.7004L157.32 66.6773L157.525 66.5257C158.165 66.0525 159.018 65.9821 159.727 66.3436L162.52 67.7665C163.264 68.145 164.173 67.8496 164.552 67.1058L164.791 66.6357C165.051 66.1256 165 65.5122 164.66 65.0525L163.764 63.8384C162.735 62.4454 163.738 60.4752 165.47 60.4883L167.913 60.5063L169.261 57.858L174.77 58.6863C176.41 58.9329 177.132 60.8928 176.043 62.1445L170.682 68.3066C170.586 68.4488 170.491 68.5893 170.395 68.7319L168.38 72.6893C168.068 73.3021 168.311 74.0518 168.924 74.3637C169.681 74.7495 169.838 75.7635 169.233 76.3596L164.847 80.6817C164.207 81.3125 163.236 81.4643 162.433 81.0622L167.935 96.5406C168.658 98.5729 168.388 100.826 167.205 102.63L160.218 113.291L167.495 116.997C168.343 117.429 169.329 117.506 170.235 117.211L179.397 114.232C180.303 113.937 181.054 113.295 181.487 112.446L189.299 97.1045C189.826 96.07 191.091 95.6584 192.126 96.1851L200.404 100.401C200.721 100.478 201.026 100.552 201.343 100.63L206.996 100.671C207.314 100.749 207.618 100.823 207.936 100.9L212.56 103.255C212.721 103.314 212.882 103.372 213.044 103.431L235.077 108.497C236.017 108.714 236.983 108.263 237.421 107.403L238.533 105.219C238.833 104.631 238.848 103.935 238.567 103.339C235.648 97.1601 231.984 91.3129 227.637 85.9355C227.535 85.8097 227.431 85.6852 227.329 85.5598C225.914 83.83 224.434 82.1438 222.876 80.5184C222.854 80.4955 222.831 80.4743 222.809 80.4514C221.35 78.9331 219.813 77.4773 218.232 76.0585C217.977 75.8302 217.729 75.596 217.471 75.3706C215.937 74.0239 214.337 72.7326 212.69 71.4877Z" fill="#9BDB76"/>
<path d="M232.248 101.745L214.84 97.7426L210.635 95.6018C209.529 95.0386 208.287 94.7355 207.044 94.7266L202.298 94.6915L194.826 90.8873C191.587 89.2387 187.627 89.973 185.196 92.6738C184.726 93.1962 184.326 93.7793 184.006 94.4063L176.636 108.879L169.327 111.256L163.499 108.288L160.221 113.29L167.498 116.995C168.347 117.427 169.332 117.505 170.238 117.21L179.401 114.231C180.005 114.034 180.542 113.682 180.959 113.218C181.168 112.986 181.346 112.727 181.49 112.445L189.302 97.1036C189.388 96.9351 189.493 96.7838 189.614 96.6499C190.235 95.9603 191.263 95.7433 192.129 96.1845L200.408 100.4C200.699 100.548 201.02 100.627 201.347 100.629L207 100.67C207.326 100.673 207.648 100.751 207.939 100.899L212.564 103.254C212.717 103.332 212.878 103.391 213.046 103.43L235.081 108.496C235.838 108.67 236.612 108.411 237.114 107.854C237.234 107.72 237.339 107.568 237.424 107.401L238.537 105.217C238.836 104.629 238.852 103.933 238.57 103.337L238.57 103.336C238.4 102.975 238.233 102.613 238.058 102.255C237.665 101.455 237.259 100.659 236.838 99.8691C236.605 99.4288 236.374 98.9873 236.133 98.5505C235.446 97.3124 234.738 96.0829 233.988 94.8722C232.887 97.1999 232.213 99.512 232.248 101.745Z" fill="#7FE55D"/>
<path d="M157.527 66.5264C158.168 66.0534 159.02 65.9828 159.729 66.3441L162.523 67.7667C163.145 68.0841 163.885 67.9278 164.331 67.4325C164.417 67.3361 164.493 67.227 164.554 67.1062L164.794 66.6359C165.054 66.1265 165.003 65.5132 164.663 65.0532L163.766 63.8388C163.123 62.9679 163.274 61.8718 163.901 61.1753C164.277 60.7577 164.823 60.4842 165.473 60.489L167.915 60.5067L169.264 57.8584L174.773 58.6867C176.412 58.9336 177.134 60.8935 176.046 62.1446L170.685 68.3067C170.572 68.4362 170.475 68.5791 170.398 68.7326L168.382 72.6897C168.071 73.3025 168.314 74.0516 168.927 74.3641C169.661 74.7384 169.831 75.7025 169.289 76.3044C169.272 76.3235 169.255 76.3416 169.236 76.36L164.85 80.682C164.21 81.3132 163.24 81.4647 162.436 81.0628L164.575 87.0793C166.212 86.8304 167.782 86.1385 169.022 84.9159L173.409 80.5927L173.589 80.4123L173.707 80.2807C175.214 78.6069 175.841 76.3765 175.43 74.1608C175.339 73.673 175.201 73.2023 175.019 72.7538L175.479 71.8511L180.53 66.0461C182.457 63.83 183.025 60.7413 182.01 57.9851C181.813 57.453 181.523 56.9779 181.227 56.5091C181.15 56.4902 181.075 56.4643 180.998 56.4463C175.773 55.184 170.462 54.4314 165.133 54.1582C164.917 54.1471 164.702 54.1496 164.486 54.14L164.232 54.6385C162.411 54.918 160.727 55.8163 159.482 57.1995C158.678 58.093 158.106 59.1296 157.772 60.227C156.918 60.3342 156.098 60.6307 155.307 61.0134L157.321 66.6791L157.527 66.5264Z" fill="#7FE55D"/>
<path d="M196.463 155.093L198.188 151.704C198.769 150.564 198.555 149.181 197.657 148.269L187.56 138.022C186.619 137.068 185.156 136.86 183.987 137.517L177.408 141.213C177.124 141.373 176.87 141.577 176.655 141.817C176.482 142.009 176.334 142.223 176.215 142.456L173.549 147.691C173.429 147.926 173.281 148.14 173.11 148.331C172.453 149.06 171.462 149.432 170.458 149.281L165.401 148.52C164.797 148.43 164.228 148.577 163.704 148.828L169.92 155.168C172.774 155.484 175.597 154.452 177.528 152.307C178.049 151.728 178.492 151.083 178.845 150.388L181.103 145.955L184.918 143.812L191.918 150.916L191.165 152.395C190.085 154.517 189.895 156.933 190.632 159.199C191.368 161.464 192.943 163.306 195.065 164.386L198.168 165.967L202.133 178.159C202.691 179.875 203.753 181.361 205.144 182.443L204.312 182.436L182.997 171.582C182.479 171.319 181.937 171.135 181.39 170.979L181.95 177.72L202.24 188.052C202.651 188.261 203.105 188.372 203.567 188.376L220.966 188.503C221.828 188.51 222.636 188.142 223.197 187.519C223.368 187.329 223.517 187.115 223.636 186.88L223.908 186.346C224.741 184.71 223.906 182.716 222.155 182.163L209.719 178.236C208.804 177.947 208.084 177.234 207.787 176.321L203.442 162.957C203.197 162.208 202.666 161.586 201.964 161.229L197.764 159.089C196.3 158.345 195.718 156.555 196.463 155.093Z" fill="#7FE55D"/>
<path d="M202.133 178.16C202.691 179.876 203.753 181.361 205.144 182.443L204.312 182.437L184.343 172.268C183.428 172.59 182.495 172.857 181.57 173.148L181.949 177.72L202.239 188.052C202.65 188.261 203.104 188.372 203.566 188.375L220.965 188.503C221.827 188.51 222.636 188.142 223.196 187.519C223.367 187.329 223.516 187.115 223.636 186.88L223.907 186.346C224.741 184.71 223.905 182.716 222.154 182.163L209.718 178.236C208.803 177.947 208.083 177.234 207.786 176.321L203.441 162.957C203.423 162.904 203.381 162.866 203.361 162.815C201.667 163.936 199.942 165.002 198.179 165.998L202.133 178.16Z" fill="#68A352"/>
<path d="M106.18 54.3063C80.0863 58.1757 55.9367 73.9206 42.4304 99.5569C23.1239 136.201 33.1134 182.359 65.9115 207.653C87.7883 224.524 114.544 229.179 138.817 223.374C141.68 222.69 143.632 220.033 143.388 217.099L139.233 167.092C139.167 166.291 138.822 165.538 138.259 164.964L107.713 133.812C106.579 132.655 106.403 130.864 107.292 129.509L126.261 100.565C126.852 99.6637 126.987 98.5366 126.625 97.5204L112.618 58.1176C111.674 55.4619 108.968 53.8931 106.18 54.3063Z" fill="#2CB8E2"/>
<path d="M119.404 147.518C118.883 148.097 118.439 148.743 118.086 149.438L117.478 150.631L112.996 152.088C111.51 152.572 110.171 153.441 109.126 154.603C108.605 155.182 108.161 155.827 107.808 156.521L106.78 158.54C105.448 159.042 104.251 159.859 103.298 160.918C101.838 162.54 101.025 164.636 101.008 166.818L100.986 169.918L100.869 170.147L97.7249 169.674C98.8701 167.915 99.314 165.704 98.681 163.321C98.1077 161.162 96.5198 159.398 94.5294 158.384L90.8321 156.502L84.2914 130.653L86.8014 125.723C88.0987 123.176 88.0922 120.138 86.7837 117.597C85.4758 115.055 83.0074 113.284 80.1812 112.86L76.1821 112.258C75.7457 112.192 75.3089 112.159 74.8745 112.157C74.3547 109.576 72.7044 107.246 70.1812 105.961L67.5297 104.611C63.9344 102.78 59.558 103.593 56.8589 106.592C56.3384 107.17 55.8945 107.817 55.5402 108.512L47.7332 123.845C46.2502 126.758 45.6004 129.988 45.8382 133.234C44.4058 133.709 43.0834 134.549 42.0235 135.726C42.0078 135.744 41.9994 135.767 41.9837 135.784C40.1789 132.617 38.5796 129.343 37.1911 125.986C31.2934 157.127 42.8896 190.282 68.8898 210.332C90.7664 227.203 117.522 231.859 141.795 226.054C141.996 226.005 142.152 225.88 142.343 225.814C142.846 225.643 143.347 225.464 143.773 225.176C144.261 224.844 144.665 224.418 145.031 223.966C145.095 223.887 145.189 223.836 145.249 223.754C145.639 223.219 145.927 222.615 146.121 221.976C146.129 221.948 146.15 221.927 146.158 221.899C146.351 221.227 146.427 220.512 146.366 219.779L142.211 169.772C142.145 168.971 141.8 168.218 141.237 167.643L120.538 146.534C120.147 146.844 119.745 147.14 119.404 147.518Z" fill="#018DAD"/>
<path d="M121.761 148.138C121.192 148.414 120.707 148.863 120.405 149.455L119.239 151.746C118.881 152.448 118.259 152.98 117.509 153.224L111.856 155.062C111.106 155.306 110.484 155.837 110.127 156.54L108.546 159.643C108.189 160.345 107.567 160.877 106.817 161.12L106.028 161.377C104.812 161.773 103.985 162.902 103.975 164.182L103.947 167.984C103.943 168.445 103.833 168.899 103.624 169.311L102.217 172.073C101.636 173.213 100.391 173.854 99.1258 173.664L93.5628 172.827C92.558 172.676 91.5457 173.049 90.8788 173.816L86.6745 178.648C85.3255 180.199 82.8474 179.945 81.8409 178.153L79.4371 173.874C78.9504 173.008 78.929 171.956 79.3797 171.07L81.8707 166.179C82.3816 165.176 83.4153 164.547 84.541 164.555L88.2148 164.582C88.9107 164.588 89.5493 164.199 89.8649 163.579C90.3254 162.675 89.9657 161.569 89.0616 161.109L83.9548 158.508C83.1912 158.12 82.6324 157.42 82.4221 156.589L75.2765 128.349C75.1001 127.651 75.1826 126.913 75.509 126.271L78.5259 120.347C79.4467 118.539 78.3254 116.361 76.3192 116.059L72.32 115.457C71.5402 115.34 70.7463 115.538 70.1121 116.006L62.4059 121.698C61.2504 122.552 60.8705 124.109 61.5035 125.399L65.7199 133.989C66.4152 135.405 65.8827 137.117 64.5075 137.889L61.278 139.704C59.4904 140.708 57.2465 139.643 56.8945 137.623L55.2352 128.097C55.1246 127.463 55.2231 126.811 55.5149 126.238L59.7859 117.851C60.1472 117.142 61.033 116.777 61.7255 117.169C62.4667 117.588 63.4006 117.302 63.7829 116.551L65.8056 112.578C66.5503 111.115 65.9685 109.325 64.5059 108.58L61.8578 107.231C60.395 106.486 58.6053 107.068 57.8603 108.531L50.0526 123.863C48.9878 125.955 48.5655 128.315 48.8395 130.646L49.5137 136.381C49.5805 136.95 48.9858 137.365 48.4742 137.105L47.0216 136.365C45.5587 135.62 43.7694 136.202 43.0246 137.665L40.8861 141.865C40.5284 142.567 40.4643 143.383 40.7084 144.132L42.1732 148.639C42.6112 149.987 42.0374 151.456 40.8025 152.15L36.0828 154.801C34.9434 155.441 34.33 156.756 34.6113 158.032C37.427 170.824 43.1311 182.916 51.3894 193.287L51.9279 192.229L70.1897 195.793C71.9053 196.128 73.7825 195.038 74.628 193.508C75.4745 191.977 77.0099 190.941 78.7555 190.737L85.2831 189.969C86.0663 189.877 86.7808 189.478 87.269 188.859L94.9977 179.072C95.5661 178.352 96.4351 177.935 97.3523 177.942L100.707 177.967C101.833 177.975 102.867 177.346 103.377 176.343L105.241 172.683C105.986 171.22 107.776 170.638 109.239 171.383L110.79 172.173C111.492 172.531 112.024 173.153 112.268 173.903L112.97 176.062C113.113 176.5 113.356 176.9 113.679 177.229L118.329 181.947C119.203 182.834 120.537 183.082 121.672 182.569L135.82 176.165C136.642 175.792 137.589 175.814 138.394 176.224L140.062 177.073L139.233 167.092C139.166 166.291 138.821 165.538 138.258 164.964L121.761 148.138Z" fill="#9BDB76"/>
<path d="M90.2471 191.539L97.9755 181.752C98.5439 181.032 99.4129 180.615 100.33 180.622L103.686 180.647C104.812 180.655 105.845 180.027 106.356 179.024L106.562 178.619C102.421 178.124 98.2862 177.319 94.189 176.201C94.0759 176.297 93.956 176.383 93.8569 176.497L89.6526 181.33C88.3037 182.88 85.8256 182.626 84.8187 180.835L82.4152 176.555C81.9285 175.689 81.9071 174.636 82.3578 173.751L83.0875 172.317C81.2744 171.544 79.4698 170.73 77.6872 169.822C64.2328 162.971 53.3726 153.059 45.4765 141.378L43.8631 144.546C43.5054 145.248 43.4413 146.064 43.6851 146.814L45.1505 151.32C45.5884 152.667 45.0147 154.136 43.7797 154.83L39.06 157.481C37.9231 158.12 37.3543 159.415 37.5976 160.69C38.0015 162.53 38.4689 164.353 38.9915 166.161C39.1774 166.802 39.3872 167.436 39.5875 168.073C40.0012 169.39 40.4467 170.696 40.9223 171.992C41.176 172.681 41.4245 173.371 41.6955 174.053C42.3681 175.749 43.0841 177.427 43.8637 179.08C44.1457 179.677 44.4583 180.26 44.7538 180.85C45.3788 182.1 46.0279 183.338 46.7136 184.557C47.1326 185.301 47.5661 186.038 48.0076 186.771C48.6402 187.821 49.3042 188.854 49.9827 189.879C50.4296 190.554 50.8589 191.238 51.3256 191.901C52.296 193.28 53.3229 194.623 54.377 195.948L54.9057 194.91L73.1675 198.473C74.929 198.817 76.7045 197.952 77.519 196.352C78.3445 194.731 79.9261 193.629 81.733 193.417L88.261 192.65C89.0441 192.556 89.7585 192.158 90.2471 191.539Z" fill="#7FE55D"/>
<path d="M116.227 179.2C116.36 179.445 116.461 179.709 116.658 179.908L121.307 184.627C122.181 185.514 123.516 185.762 124.65 185.248L138.798 178.844C139.621 178.472 140.568 178.494 141.373 178.903L143.04 179.753L142.66 175.171C134.152 177.851 125.241 179.253 116.227 179.2Z" fill="#7FE55D"/>
<path d="M136.347 173.429L124.086 178.979L121.384 176.236L120.899 174.745C120.162 172.479 118.588 170.636 116.466 169.556L114.914 168.765C114.586 168.599 114.252 168.454 113.913 168.331C114.494 167.933 115.029 167.466 115.503 166.939C116.025 166.36 116.468 165.714 116.821 165.02L117.842 163.014L122.325 161.557C123.811 161.073 125.15 160.204 126.195 159.042C126.716 158.463 127.16 157.818 127.513 157.124L127.707 156.742L130.647 157.184C130.761 157.201 130.873 157.18 130.988 157.192L124.773 150.854C124.426 151.02 124.083 151.205 123.821 151.495C123.65 151.685 123.502 151.899 123.382 152.135L122.215 154.426C122.096 154.659 121.948 154.874 121.776 155.065C121.43 155.45 120.986 155.741 120.486 155.904L114.833 157.742C114.333 157.905 113.889 158.196 113.543 158.58C113.371 158.772 113.223 158.987 113.104 159.22L111.524 162.323C111.405 162.556 111.257 162.771 111.084 162.962C110.738 163.347 110.295 163.638 109.794 163.801L109.005 164.057C108.497 164.222 108.057 164.516 107.716 164.895C107.241 165.423 106.958 166.117 106.952 166.862L106.924 170.664C106.921 171.125 106.81 171.58 106.601 171.991L105.194 174.754C105.074 174.989 104.925 175.203 104.754 175.393C104.098 176.122 103.106 176.495 102.103 176.344L96.5401 175.507C95.5517 175.359 94.5563 175.717 93.8894 176.458C93.8782 176.47 93.8669 176.483 93.8557 176.495L89.6514 181.328C89.6402 181.341 89.6284 181.354 89.6169 181.367C88.2602 182.874 85.8156 182.61 84.8181 180.833L82.4141 176.554C81.927 175.687 81.9059 174.635 82.3566 173.749L84.8476 168.858C84.9672 168.623 85.1155 168.409 85.2869 168.219C85.8477 167.596 86.6559 167.228 87.5182 167.235L91.192 167.262C91.7249 167.266 92.2244 167.039 92.5709 166.654C92.677 166.536 92.7682 166.404 92.8424 166.258C93.3026 165.355 92.9432 164.249 92.0391 163.788L86.9323 161.187C86.1686 160.799 85.6098 160.099 85.3996 159.268L78.254 131.028C78.0773 130.331 78.1598 129.592 78.4864 128.95L81.5034 123.026C82.4238 121.218 81.3029 119.04 79.2969 118.738L75.2975 118.137C74.5182 118.019 73.7237 118.217 73.0895 118.685L65.3831 124.377C65.2188 124.498 65.0702 124.633 64.9383 124.78C64.1397 125.667 63.9373 126.971 64.4807 128.077L68.6968 136.667C69.2452 137.785 69.0297 139.087 68.2387 139.966C68.0273 140.201 67.7745 140.406 67.4846 140.568L64.2555 142.382C62.4676 143.387 60.2239 142.321 59.8717 140.301L58.2123 130.775C58.1018 130.142 58.2002 129.489 58.492 128.916L62.7628 120.529C62.8235 120.411 62.8981 120.303 62.983 120.209C63.4217 119.721 64.1491 119.568 64.7616 119.879C65.3743 120.191 66.1012 120.038 66.5404 119.55C66.6254 119.456 66.6999 119.348 66.7603 119.229L68.7838 115.256C69.5286 113.793 68.9465 112.004 67.4839 111.259L64.8353 109.91C63.6103 109.286 62.1558 109.593 61.2783 110.568C61.108 110.758 60.9594 110.972 60.8377 111.21L53.0301 126.542C51.9652 128.634 51.5432 130.994 51.8169 133.325L52.4909 139.06C52.5169 139.281 52.4438 139.478 52.3139 139.623C52.1093 139.85 51.7649 139.944 51.4514 139.785L49.9991 139.045C48.7741 138.421 47.3196 138.728 46.4419 139.703C46.2715 139.892 46.1232 140.107 46.0015 140.344L43.8627 144.544C43.5053 145.247 43.4409 146.062 43.6848 146.812L45.1507 151.319C45.4863 152.351 45.228 153.455 44.5332 154.227C44.3213 154.462 44.0685 154.667 43.7794 154.829L39.0603 157.481C38.7707 157.643 38.5165 157.849 38.3033 158.086C37.6607 158.8 37.3864 159.798 37.6027 160.776C37.6027 160.776 37.6019 160.777 37.6014 160.779C37.6058 160.799 37.6097 160.819 37.614 160.839C38.0154 162.662 38.4788 164.471 38.9963 166.269C39.0452 166.436 39.1004 166.602 39.1504 166.769C41.0054 165.893 41.4144 165.461 41.9893 164.823L44.0673 162.479L43.8722 161.595L46.6917 160.011C47.5412 159.534 48.3016 158.925 48.952 158.203C51.0765 155.842 51.7862 152.5 50.8038 149.48L49.719 146.144L50.0122 145.568C51.8409 146.069 53.8022 145.762 55.3876 144.742C56.2706 146.064 57.5031 147.145 58.9763 147.844C61.5862 149.083 64.6484 148.979 67.1675 147.563L70.3967 145.749C71.2467 145.272 72.0079 144.663 72.6583 143.941C73.5416 142.959 74.1765 141.827 74.5517 140.626L79.6373 160.725C79.9335 161.895 80.4602 162.979 81.1722 163.92C81.0687 164.023 80.9678 164.13 80.8688 164.24C80.3483 164.819 79.9043 165.464 79.5512 166.159L77.0604 171.05C75.7039 173.713 75.7686 176.859 77.2317 179.463L79.6352 183.743C80.4819 185.25 81.7427 186.46 83.2348 187.252L81.039 187.511C78.2898 187.834 75.756 189.145 73.9044 191.203C73.5702 191.574 73.2614 191.966 72.9791 192.378L56.0439 189.073L51.6435 188.215L50.4224 190.613C50.4305 190.625 50.4384 190.638 50.4468 190.65C51.6784 192.461 52.9859 194.233 54.3687 195.963L54.9062 194.908L73.168 198.472C74.5779 198.747 75.9976 198.246 76.9252 197.216C77.1565 196.959 77.357 196.669 77.5195 196.35C77.7378 195.922 78.0095 195.529 78.3239 195.18C79.1979 194.209 80.4049 193.572 81.7337 193.415L88.2619 192.647C88.9811 192.563 89.642 192.219 90.1239 191.684C90.1665 191.637 90.2082 191.588 90.2476 191.538L97.976 181.751C98.0154 181.701 98.0571 181.652 98.0997 181.605C98.6662 180.975 99.4778 180.615 100.331 180.621L103.687 180.646C104.549 180.653 105.357 180.285 105.918 179.662C106.089 179.472 106.237 179.258 106.357 179.023L108.221 175.362C108.342 175.125 108.491 174.91 108.661 174.721C109.539 173.746 110.993 173.439 112.218 174.063L113.77 174.853C114.472 175.21 115.004 175.833 115.247 176.582L115.95 178.741C116.092 179.18 116.335 179.579 116.659 179.908L121.309 184.627C122.183 185.514 123.517 185.762 124.652 185.249L138.8 178.844C139.622 178.472 140.57 178.494 141.374 178.904L143.042 179.753L142.482 173.009C140.462 172.425 138.304 172.543 136.347 173.429ZM70.9113 127.685L73.3957 125.85L73.1909 126.252C72.5399 127.531 72.212 128.937 72.22 130.35L70.9113 127.685Z" fill="#7FE55D"/>
<path d="M115.597 60.8008C114.672 58.1983 112.043 56.5745 109.31 56.9745C109.131 57.0006 108.952 57.0277 108.772 57.0546C108.015 57.1705 107.262 57.3191 106.508 57.4548C105.429 57.6482 104.352 57.8554 103.28 58.09C102.419 58.2791 101.561 58.4806 100.705 58.6963C99.7223 58.9436 98.7463 59.2176 97.7712 59.4994C96.9217 59.7455 96.0694 59.9795 95.2268 60.2512C93.7209 60.7374 92.227 61.2686 90.7451 61.8384C89.8792 62.1711 89.0279 62.5406 88.1721 62.9018C87.1496 63.3338 86.1292 63.7703 85.1216 64.2429C84.7933 64.3963 84.4722 64.5645 84.1453 64.7228C84.3818 66.3729 85.0932 67.9644 86.3433 69.2334L87.0986 69.9994L87.0835 72.0815C87.0765 72.9903 87.2513 73.8664 87.5326 74.703C86.8409 75.0921 86.1861 75.5522 85.6386 76.1605C85.2077 76.6393 84.8406 77.1734 84.5475 77.7484L84.3202 78.1949C82.6765 81.4233 83.6548 85.2944 86.4456 87.4114C86.0033 88.8711 86.0107 90.3823 86.4783 91.8212C87.0879 93.6962 88.3916 95.2216 90.1484 96.1163C92.4193 97.2729 95.0044 97.1946 97.0999 96.0662C97.1652 96.4228 97.2208 96.7803 97.3349 97.1311C97.9994 99.1753 99.4206 100.838 101.336 101.813L105.536 103.952C106.401 104.393 107.319 104.664 108.244 104.772C108.395 105.033 108.562 105.287 108.744 105.534L111.347 109.059L113.189 114.723C113.971 117.128 115.676 119.124 117.93 120.271L118.043 120.328L129.239 103.245C129.83 102.343 129.965 101.216 129.604 100.2L115.597 60.8008Z" fill="#018DAD"/>
<path d="M87.2687 188.859L94.9974 179.071C95.0368 179.021 95.0785 178.973 95.1211 178.925C95.6876 178.296 96.4993 177.935 97.3523 177.941L100.707 177.966C101.57 177.973 102.378 177.605 102.939 176.982C103.11 176.792 103.258 176.578 103.378 176.343L103.584 175.937C99.4427 175.442 95.3084 174.638 91.2112 173.52C91.1108 173.605 91.0019 173.679 90.9125 173.778C90.9013 173.791 90.8903 173.803 90.8791 173.816L86.6748 178.649C86.6636 178.662 86.6518 178.675 86.6403 178.687C85.2836 180.195 82.8389 179.93 81.8412 178.153L79.4374 173.874C78.9507 173.008 78.9293 171.955 79.38 171.07L80.1097 169.636C78.2965 168.863 76.4923 168.049 74.7097 167.141L74.083 168.372C72.7301 171.029 72.7945 174.186 74.2546 176.786L76.6581 181.065C77.5048 182.572 78.7656 183.782 80.2577 184.574L78.0619 184.833C75.3129 185.155 72.7789 186.467 70.9273 188.524C70.5931 188.896 70.284 189.288 70.002 189.7L53.0668 186.395L51.2184 186.034C49.7074 185.74 48.1842 186.482 47.4859 187.854L47.4573 187.91C47.4577 187.918 47.4581 187.925 47.4588 187.933C48.3704 189.287 49.3687 190.597 50.3712 191.903C50.7168 192.356 51.0449 192.82 51.4001 193.267L51.9285 192.229L70.1903 195.793C71.6002 196.068 73.0199 195.568 73.9476 194.537C74.1788 194.28 74.3793 193.99 74.5415 193.671C74.7598 193.243 75.0315 192.85 75.3459 192.501C76.22 191.53 77.427 190.893 78.7558 190.736L85.2837 189.969C86.0031 189.885 86.6643 189.54 87.1456 189.005C87.1882 188.958 87.2293 188.909 87.2687 188.859Z" fill="#68A352"/>
<path d="M40.8946 158.916C41.6035 158.527 43.7141 157.332 43.7141 157.332C44.5635 156.855 45.3239 156.246 45.9749 155.523C48.0993 153.163 48.809 149.821 47.8266 146.801L47.2768 145.11C45.578 143.042 43.9887 140.899 42.4992 138.696L40.8858 141.864C40.5284 142.567 40.464 143.382 40.7079 144.132L42.1732 148.639C42.5089 149.671 42.2503 150.775 41.5557 151.547C41.3438 151.783 41.091 151.988 40.8019 152.149L36.0825 154.801C35.7926 154.963 35.5385 155.169 35.3255 155.406C34.7073 156.093 34.4415 157.044 34.6139 157.987C35.0642 160.04 35.5717 162.079 36.1695 164.092C36.9591 162.188 37.792 160.618 40.8946 158.916Z" fill="#68A352"/>
<path d="M121.354 176.188L121.109 176.299L121.032 176.22C118.45 176.439 115.854 176.536 113.25 176.521C113.382 176.765 113.484 177.029 113.68 177.228L118.33 181.947C119.204 182.834 120.538 183.082 121.673 182.569L135.821 176.164C136.644 175.792 137.591 175.814 138.396 176.224L140.063 177.073L139.683 172.487C133.734 174.36 127.597 175.634 121.354 176.188Z" fill="#68A352"/>
<path d="M88.3609 76.9993L94.6608 77.9466C95.6304 78.0924 96.1724 79.1451 95.7272 80.0188L94.5861 82.2596C94.2258 82.9664 93.361 83.2476 92.6539 82.8882L87.2686 80.1458C86.5618 79.7855 86.2806 78.9208 86.64 78.2137L86.8671 77.768C87.1476 77.2169 87.7492 76.9075 88.3609 76.9993Z" fill="#7FE55D"/>
<path d="M123.52 83.0879C123.512 83.084 123.502 83.0836 123.494 83.0794L121.419 82.023C120.385 81.4961 119.119 81.9076 118.593 82.9421L117.003 86.0626C116.935 86.2775 116.867 86.4882 116.798 86.7032L115.502 95.3232C115.433 95.5382 115.365 95.7497 115.296 95.9647L113.343 99.8002C112.982 100.509 113.053 101.362 113.525 102.003L116.356 105.835C116.532 106.178 116.706 106.514 116.882 106.858L118.842 112.883C119.136 113.789 119.778 114.541 120.627 114.973L121.32 115.326L129.238 103.245C129.829 102.343 129.965 101.216 129.603 100.2L123.52 83.0879Z" fill="#9BDB76"/>
<path d="M90.5777 65.0628L92.4496 66.9624C92.8409 67.3597 93.0583 67.8959 93.0544 68.4532L93.0274 72.127C93.0191 73.2877 93.953 74.2354 95.1135 74.244L97.748 74.2633C98.6874 74.27 99.3578 73.3545 99.0676 72.4606L99.0082 72.2785C98.6491 71.1744 99.2531 69.9889 100.357 69.6298C101.461 69.2708 102.065 68.0848 101.706 66.9812L101.056 64.9827L100.069 63.6462L102.63 63.6651C103.909 63.6747 104.883 64.8144 104.693 66.0788L103.707 72.6396C103.673 72.8632 103.604 73.0798 103.501 73.2811L101.353 77.498C101.101 77.9948 101.055 78.5717 101.227 79.102L102.258 82.2714L101.786 83.1988C101.302 84.1495 101.68 85.3123 102.631 85.7964L104.334 86.664C105.368 87.191 105.779 88.456 105.253 89.4906L103.114 93.6907C102.587 94.725 102.999 95.9903 104.034 96.5173L108.234 98.656C109.268 99.183 110.533 98.7712 111.06 97.7366L114.814 90.3649C115.225 89.5589 115.073 88.5805 114.438 87.9363L108.904 82.3204L110.253 79.6717L117.475 75.6147C118.382 75.1054 118.355 73.791 117.428 73.3195C117.121 73.1629 116.763 73.1349 116.435 73.2418L112.951 74.3748L114.3 71.7262L118.405 68.6943L115.592 60.7827C114.683 58.2236 112.114 56.5627 109.426 56.9525C109.411 56.955 109.395 56.9572 109.38 56.9594C109.295 56.9719 109.21 56.9808 109.126 56.9933C104.377 57.6988 99.6952 58.8011 95.1285 60.2812C94.763 60.4 94.4032 60.5371 94.0391 60.6608C93.1073 60.9768 92.1807 61.308 91.2591 61.6558C89.9041 62.2341 89.5304 63.9994 90.5777 65.0628Z" fill="#9BDB76"/>
<path d="M91.2164 85.4919L91.3045 85.537C92.0114 85.8973 92.2926 86.762 91.9332 87.4691L91.8883 87.5575C91.528 88.2644 90.6633 88.5456 89.9562 88.1862L89.8678 88.1413C89.1609 87.7811 88.8797 86.9163 89.2392 86.2092L89.284 86.1208C89.6448 85.4134 90.5098 85.1319 91.2164 85.4919Z" fill="#7FE55D"/>
<path d="M87.5333 59.4813C86.8217 60.2719 86.7786 61.5484 87.6003 62.3826L89.4722 64.2821C89.8634 64.6789 90.0809 65.2157 90.0767 65.7727L90.0497 69.4465C90.0414 70.6072 90.9753 71.5549 92.1358 71.5635L94.77 71.5825C95.1875 71.5857 95.5521 71.4066 95.8024 71.1285C96.1157 70.7803 96.251 70.2767 96.0893 69.7802L96.0299 69.598C95.7888 68.8575 95.9813 68.0806 96.4676 67.5403C96.7059 67.2755 97.0153 67.0678 97.3789 66.9494C97.7425 66.8315 98.0515 66.6235 98.2901 66.3584C98.7761 65.8184 98.9687 65.0415 98.7278 64.3007L98.0779 62.3022L97.0909 60.9657L99.6521 60.9846C100.931 60.9939 101.905 62.134 101.715 63.3983L100.728 69.9594C100.695 70.1827 100.625 70.3991 100.523 70.6006L98.3751 74.8175C98.1221 75.3146 98.077 75.8909 98.2493 76.4212L99.2802 79.5909L98.8082 80.5183C98.3242 81.469 98.7027 82.6321 99.6534 83.1161L101.356 83.9835C102.39 84.5105 102.802 85.7755 102.275 86.8101L100.136 91.0099C99.6092 92.0445 100.021 93.3101 101.056 93.8365L105.256 95.9753C106.122 96.4162 107.151 96.1991 107.771 95.5095C107.891 95.376 107.997 95.2241 108.083 95.0561L111.836 87.6844C112.247 86.8784 112.095 85.9 111.461 85.2558L105.927 79.6399L107.276 76.9913L114.498 72.9342C114.629 72.8606 114.741 72.7699 114.833 72.6677C115.378 72.0623 115.243 71.0426 114.451 70.639C114.143 70.4824 113.785 70.4544 113.458 70.5613L109.973 71.6943L111.322 69.0457L115.427 66.0138L113.414 60.3498C112.962 60.5677 112.506 60.7803 112.092 61.0871L107.79 64.264L107.573 64.4245L107.595 64.282C107.942 61.974 107.271 59.6329 105.755 57.8586C104.558 56.4574 102.922 55.5524 101.14 55.2137C100.579 55.3312 100.025 55.479 99.4659 55.608C98.236 55.8902 97.0095 56.1885 95.7914 56.5253C94.9695 56.7525 94.1527 56.9991 93.337 57.2509C92.2045 57.6007 91.0798 57.9785 89.9597 58.3752C89.3982 58.574 88.8341 58.7669 88.2765 58.9777C87.9852 59.1023 87.7272 59.2658 87.5333 59.4813Z" fill="#7FE55D"/>
<path d="M121.216 107.439L119.558 102.341C119.241 101.365 118.771 100.451 118.16 99.6238L116.741 97.7018L117.616 95.9829C118.009 95.2101 118.274 94.3844 118.403 93.5273L119.486 86.3255C120.543 86.5952 121.623 86.5815 122.68 86.4193L120.543 80.408C120.534 80.404 120.525 80.4037 120.516 80.3994L118.442 79.3428C117.576 78.9013 116.548 79.1189 115.927 79.8085C115.807 79.9424 115.701 80.0942 115.615 80.2622L114.026 83.3826C113.924 83.5838 113.854 83.8002 113.821 84.0238L112.525 92.6438C112.491 92.8674 112.422 93.0838 112.319 93.285L110.366 97.1205C110.005 97.8296 110.076 98.6825 110.548 99.3228L113.379 103.155C113.608 103.466 113.786 103.811 113.906 104.178L115.865 110.204C116.16 111.11 116.802 111.861 117.651 112.294L118.344 112.647L121.622 107.645L121.216 107.439Z" fill="#7FE55D"/>
</g>
<defs>
<clipPath id="clip0_89_683">
<rect width="200" height="200" fill="white" transform="translate(0 148.661) rotate(-48.0137)"/>
</clipPath>
</defs>
</svg>
