<svg width="76" height="76" viewBox="0 0 76 76" fill="none" xmlns="http://www.w3.org/2000/svg">
<path d="M39.1874 5.58838C20.5271 5.58838 5.34369 18.5036 5.34369 34.3829C5.44819 41.1136 8.07494 47.2126 12.3214 51.7916L12.3072 51.775C10.8893 57.9619 7.77807 63.2795 3.49119 67.3764L3.47932 67.3883C3.16582 67.7089 2.97107 68.1483 2.97107 68.6351C2.97107 69.6184 3.76907 70.4164 4.75232 70.4188C4.88057 70.4188 5.00644 70.4045 5.12757 70.3784L5.11569 70.3808C13.3569 69.0531 20.6624 65.7733 26.7733 61.0328L26.6664 61.1135C30.3928 62.4245 34.6892 63.1821 39.1637 63.1821C39.1732 63.1821 39.1851 63.1821 39.1946 63.1821C57.8549 63.1821 73.0359 50.2645 73.0359 34.3853C73.0359 18.506 57.8526 5.59075 39.1922 5.59075L39.1874 5.58838ZM39.1874 59.6173C39.1494 59.6173 39.1043 59.6173 39.0592 59.6173C34.7082 59.6173 30.5424 58.8288 26.6973 57.3848L26.9396 57.4655C26.8018 57.4227 26.6403 57.3966 26.4764 57.3943C26.4289 57.3895 26.3886 57.3729 26.3411 57.3729C25.9017 57.3729 25.5003 57.5344 25.1892 57.8004L25.1916 57.798C25.1678 57.817 25.1346 57.8075 25.1108 57.8289C20.8429 61.4365 15.6821 64.1297 10.0129 65.531L9.75644 65.5856C12.8202 61.7073 15.0171 57.0047 15.9766 51.8652L16.0074 51.6681C16.0074 51.6539 16.0074 51.6349 16.0074 51.6183C16.0074 51.5684 16.0051 51.5161 16.0003 51.4663V51.4734C16.0003 51.4615 16.0003 51.4496 16.0003 51.4378C16.0003 51.3926 15.9979 51.3499 15.9956 51.3071V51.3119C15.9861 50.882 15.8222 50.4925 15.5586 50.1956L15.5609 50.198L15.5348 50.1339C11.4878 46.1035 8.96319 40.5436 8.90619 34.3971V34.3853C8.90619 20.4725 22.4912 9.15325 39.1874 9.15325C55.8837 9.15325 69.4687 20.4725 69.4687 34.3853C69.4687 48.3004 55.8861 59.6196 39.1874 59.6196V59.6173Z" fill="#F2F2F2" stroke="#D89D9D"/>
<path d="M29.3281 29.3633L31.6719 25.3203H34.9531L31.168 31.543L35.0938 38H31.8242L29.3516 33.7578L26.8906 38H23.5977L27.5234 31.543L23.75 25.3203H27.0312L29.3281 29.3633ZM39.6055 37.332C39.6055 38.1602 39.3984 39.0039 38.9844 39.8633C38.5781 40.7227 38.0391 41.4336 37.3672 41.9961L35.7734 41.0938C35.9844 40.7422 36.1797 40.3867 36.3594 40.0273C36.5469 39.668 36.6953 39.2773 36.8047 38.8555C36.9141 38.4414 36.9688 37.9766 36.9688 37.4609V35.2227H39.6055V37.332ZM49.3906 25.3203H52.5898L47.5273 39.9219C47.4102 40.2344 47.2539 40.5742 47.0586 40.9414C46.8711 41.3086 46.625 41.6562 46.3203 41.9844C46.0234 42.3203 45.6484 42.5938 45.1953 42.8047C44.7422 43.0156 44.1953 43.1211 43.5547 43.1211C43.3828 43.1211 43.2148 43.1094 43.0508 43.0859C42.8945 43.0703 42.7422 43.0469 42.5938 43.0156C42.4453 42.9844 42.2969 42.9492 42.1484 42.9102V40.6016C42.2188 40.6094 42.3086 40.6172 42.418 40.625C42.5273 40.6328 42.6172 40.6367 42.6875 40.6367C43.3828 40.6367 43.9023 40.5156 44.2461 40.2734C44.5977 40.0312 44.8711 39.6211 45.0664 39.043L45.9805 36.5938L49.3906 25.3203ZM47.1406 34.6367L47.6562 37.8945L45.582 38.3047L41.0117 25.3203H44.2461L47.1406 34.6367Z" fill="white"/>
</svg>
