<!DOCTYPE svg PUBLIC "-//W3C//DTD SVG 1.1//EN" "http://www.w3.org/Graphics/SVG/1.1/DTD/svg11.dtd">
<!-- Uploaded to: SVG Repo, www.svgrepo.com, Transformed by: SVG Repo Mixer Tools -->
<svg fill="#7D5B5B" version="1.1" id="Layer_1" xmlns="http://www.w3.org/2000/svg" xmlns:xlink="http://www.w3.org/1999/xlink" viewBox="0 0 512 512" xml:space="preserve" width="800px" height="800px">
<g id="SVGRepo_bgCarrier" stroke-width="0"/>
<g id="SVGRepo_tracerCarrier" stroke-linecap="round" stroke-linejoin="round"/>
<g id="SVGRepo_iconCarrier"> <g> <g> <path d="M205.969,249.517c-12.261,0-22.236,9.975-22.236,22.236s9.975,22.236,22.236,22.236c12.257,0,22.232-9.973,22.236-22.236 C228.205,259.492,218.232,249.517,205.969,249.517z"/> </g> </g> <g> <g> <path d="M306.031,249.517c-12.261,0-22.236,9.975-22.236,22.236s9.975,22.236,22.236,22.236c12.257,0,22.232-9.973,22.236-22.236 C328.268,259.492,318.295,249.517,306.031,249.517z"/> </g> </g> <g> <g> <rect x="271.062" y="177.244" transform="matrix(0.8742 -0.4856 0.4856 0.8742 -52.8618 183.8174)" width="114.474" height="33.355"/> </g> </g> <g> <g> <rect x="167.074" y="136.694" transform="matrix(0.4856 -0.8742 0.8742 0.4856 -75.0088 260.3922)" width="33.355" height="114.474"/> </g> </g> <g> <g> <path d="M330.126,325.684c-15.127,29.317-42.144,46.132-74.126,46.132c-31.982,0-58.999-16.814-74.123-46.131l-29.642,15.292 c20.737,40.196,59.527,64.194,103.766,64.194c44.237,0,83.028-23.997,103.766-64.193L330.126,325.684z"/> </g> </g> <g> <g> <path d="M512,17.885l-32.316,38.339c-2.825,3.351-5.766,6.559-8.743,9.536c-16.211,16.21-35.913,28.49-57.415,35.866 C372.569,62.405,317.052,38.273,256,38.273S139.431,62.405,98.473,101.626C76.971,94.249,57.269,81.97,41.059,65.761 c-2.974-2.975-5.917-6.185-8.748-9.54L0,17.906l2.915,50.037c2.477,42.535,16.128,83.298,39.584,118.475 c-9.313,24.842-14.42,51.723-14.42,79.777c0,125.676,102.244,227.921,227.921,227.921S483.921,391.87,483.921,266.194 c0-28.053-5.108-54.935-14.421-79.777c23.457-35.179,37.108-75.942,39.585-118.476L512,17.885z M43.955,111.279 c9.702,6.61,20.017,12.271,30.786,16.907c-5.403,7.079-10.4,14.481-14.959,22.175C53.172,137.906,47.867,124.819,43.955,111.279z M256,460.761c-107.284,0-194.567-87.283-194.567-194.567S148.716,71.627,256,71.627s194.567,87.283,194.567,194.567 S363.284,460.761,256,460.761z M452.216,150.359c-4.558-7.693-9.555-15.095-14.958-22.174 c10.769-4.636,21.086-10.298,30.786-16.907C464.133,124.815,458.827,137.903,452.216,150.359z"/> </g> </g> </g>
</svg>