<svg width="377" height="143" viewBox="0 0 377 143" fill="none" xmlns="http://www.w3.org/2000/svg">
<path d="M375.494 54.5772L372.502 51.0097C370.587 48.727 367.545 48.4293 365.321 50.1465L363.366 47.8161C363.665 47.8671 363.867 47.901 363.878 47.9012C364.094 47.905 364.308 47.8276 364.485 47.6785C364.698 47.4979 364.841 47.2279 364.882 46.9274L367.733 26.0796C367.818 25.4541 367.447 24.8697 366.904 24.7746L362.634 24.0266C359.902 23.5491 357.314 25.4325 356.439 28.3426L346.799 26.6582C346.116 26.5386 345.434 26.4955 344.758 26.5222L344.848 21.4565C344.891 19.0435 344.115 16.7636 342.664 15.038C341.218 13.3093 339.266 12.3369 337.168 12.3006C335.074 12.2643 333.089 13.1684 331.578 14.8469C330.067 16.5255 329.212 18.7766 329.17 21.1847L329.061 27.3021L325.209 27.2353L321.339 22.6213C321.652 21.2725 321.833 19.862 321.859 18.407C322.033 8.63757 315.266 0.569833 306.774 0.422642C299.036 0.288516 292.498 6.77763 291.266 15.3223L284.026 23.361C282.676 24.8593 281.912 26.8694 281.874 29.0212C281.835 31.1726 282.528 33.208 283.823 34.7524L299.58 53.5379L299.546 55.4556C299.422 62.4046 304.235 68.1431 310.276 68.2478L311.84 68.2749L312.61 69.193C316.373 73.6784 321.377 75.9746 326.422 76.062C331.466 76.1495 336.552 74.027 340.47 69.6759L350.522 58.5554L360.832 70.8572C361.022 71.0843 361.275 71.2008 361.53 71.2052C361.785 71.2096 362.042 71.102 362.24 70.8816L375.465 56.1975C375.862 55.757 375.875 55.0311 375.494 54.5772ZM351.555 56.4777L351.71 47.8035C353.278 47.5871 354.801 46.8031 356.024 45.4445C356.479 44.9397 356.87 44.3788 357.197 43.7715L361.415 48.7999L352.975 58.1707L351.555 56.4777ZM340.158 45.0574L335.91 39.993L336.241 37.5724C336.243 37.5618 336.245 37.5518 336.246 37.5415C336.822 37.8793 337.436 38.1307 338.083 38.2889C338.566 38.407 339.052 38.4696 339.536 38.478C340.699 38.4982 341.845 38.1994 342.9 37.6087L344.651 40.3643C344.094 40.7905 343.564 41.2756 343.072 41.8222L340.158 45.0574ZM345.079 28.8068C345.193 29.5989 345.176 30.3989 345.026 31.1907C344.715 32.8373 343.865 34.2491 342.634 35.1666C341.402 36.084 339.937 36.3973 338.507 36.047C337.894 35.8971 337.322 35.6347 336.799 35.2672C337.421 33.5056 338.454 31.9694 339.82 30.8159C341.37 29.5077 343.198 28.8178 345.079 28.8068ZM350.883 38.2649C349.329 38.238 347.819 38.5852 346.427 39.2649L344.57 36.3432C345.785 35.1286 346.625 33.5052 346.973 31.6669C347.139 30.7923 347.183 29.9105 347.112 29.0332L352.606 29.9933L351.473 38.2946C351.277 38.2789 351.081 38.2683 350.883 38.2649ZM350.843 40.5567C352.587 40.5869 354.243 41.1876 355.656 42.2747C355.389 42.8366 355.051 43.348 354.645 43.7995C352.465 46.219 348.991 46.159 346.899 43.6652C346.51 43.202 346.194 42.6844 345.949 42.1222C347.405 41.0745 349.09 40.5263 350.843 40.5567ZM363.07 45.45L361.498 45.1749L364.04 26.5934L365.61 26.8682L363.07 45.45ZM357.026 30.7654C357.572 30.8571 358.08 30.43 358.165 29.8042C358.464 27.6212 360.185 26.0907 362.07 26.2638L359.717 43.4656L358.563 42.0904C357.142 40.3962 355.376 39.2242 353.439 38.6562L354.574 30.3366L357.026 30.7654ZM338.647 28.9704C337.343 30.0715 336.287 31.4585 335.524 33.0383L331.047 27.7008C331.047 27.7008 331.169 21.0394 331.173 20.9503L342.855 21.1528C342.857 21.2425 342.76 26.8166 342.76 26.8166C341.294 27.1929 339.897 27.916 338.647 28.9704ZM337.128 14.5927C338.692 14.6198 340.148 15.3439 341.227 16.6344C341.772 17.2826 342.189 18.0361 342.465 18.8535L331.644 18.666C331.949 17.8594 332.391 17.1215 332.958 16.4917C334.085 15.24 335.566 14.5656 337.128 14.5927ZM329.872 29.6087C329.872 29.6087 334.624 35.2627 334.672 35.3025C334.498 35.9265 334.363 36.5692 334.273 37.2285L334.178 37.9281L327.16 29.562L329.872 29.609L329.872 29.6087ZM338.721 46.6536L335.591 50.1284L318.249 29.4534C319.208 28.1355 320.005 26.6563 320.605 25.0556L338.721 46.6536ZM319.868 18.3725C319.858 18.9059 319.825 19.4326 319.77 19.9514C316.437 23.5471 311.998 25.0144 308.213 23.8138C308.166 22.3758 307.675 21.0265 306.801 19.9851C305.857 18.8592 304.586 18.2262 303.223 18.2026C303.004 18.1988 302.788 18.2165 302.574 18.2438C300.782 13.5314 302.123 7.4514 305.983 3.16625C306.126 3.00767 306.266 2.86022 306.404 2.71876C306.514 2.71752 306.623 2.71283 306.734 2.71475C314.127 2.84289 320.019 9.86698 319.868 18.3725ZM303.182 20.4944C304.013 20.5088 304.788 20.8948 305.363 21.581C305.939 22.2673 306.247 23.1722 306.23 24.1284C306.213 25.0847 305.873 25.978 305.273 26.6439C304.673 27.3098 303.885 27.6687 303.054 27.6543C302.223 27.6399 301.448 27.2539 300.872 26.5674C300.297 25.8814 299.989 24.9768 300.006 24.0205C300.023 23.0643 300.363 22.1707 300.963 21.5048C301.562 20.8389 302.351 20.48 303.182 20.4944ZM303.281 3.17301C299.913 7.90083 298.882 13.9971 300.662 18.946C300.275 19.194 299.911 19.4963 299.583 19.8603C298.599 20.9526 298.042 22.4181 298.014 23.9863C297.986 25.5545 298.491 27.0385 299.435 28.1638C300.379 29.2898 301.65 29.9228 303.013 29.9464C304.377 29.97 305.669 29.3815 306.653 28.2892C307.217 27.6631 307.635 26.9121 307.899 26.0917C308.809 26.3573 309.747 26.498 310.697 26.5144C313.512 26.5632 316.423 25.5382 318.984 23.5769C317.014 29.4901 311.987 33.6668 306.185 33.5662C298.791 33.4381 292.899 26.414 293.051 17.9079C293.178 10.7715 297.52 4.82692 303.281 3.17301ZM299.839 38.9869L286.807 23.4499L291.062 18.7257C291.223 25.5774 294.797 31.4784 299.924 34.2208L299.839 38.9869ZM289.261 37.9255L292.84 33.9516L294.378 35.7859L290.799 39.7598L289.261 37.9255ZM283.866 29.0557C283.893 27.5354 284.428 26.1155 285.372 25.0478L291.46 32.3069L287.881 36.2808L285.261 33.1565C284.334 32.0515 283.838 30.5949 283.866 29.0557ZM292.179 41.4046L295.758 37.4306L299.782 42.2275L299.638 50.297L292.179 41.4046ZM301.644 57.2787C303.583 56.3018 305.853 56.7854 307.35 58.5702C308.93 60.4543 309.2 63.357 308.082 65.5909C304.729 64.5306 302.181 61.2778 301.644 57.2787ZM310.154 65.9486C311.136 63.4278 310.948 60.5165 309.632 58.1977L314.698 52.5729L320.6 52.6752C320.678 52.6765 320.756 52.6813 320.833 52.6861L320.594 66.1275C320.516 66.1294 310.208 65.9507 310.154 65.9486ZM326.328 59.5041C326.278 62.3076 324.737 64.6889 322.595 65.6613L322.817 53.2208C324.922 54.2672 326.378 56.7007 326.328 59.5041ZM339.091 68.0311C332.263 75.6113 321.503 75.6638 314.69 68.3243L320.32 68.4219C324.643 68.4968 328.231 64.5119 328.32 59.5387C328.409 54.5654 324.964 50.4583 320.641 50.3834L315.323 50.2912L315.549 37.5831C315.56 36.9503 315.123 36.4295 314.573 36.4199C314.023 36.4104 313.568 36.9157 313.557 37.5486L313.318 50.9281L308.326 56.472C306.446 54.5963 303.881 54.0217 301.549 54.8782L301.901 35.091C303.246 35.5622 304.668 35.8321 306.144 35.8577C310.267 35.9292 314.048 34.1166 316.869 31.1179L334.153 51.7243L331.691 54.4587C331.294 54.8994 331.281 55.6251 331.662 56.079C332.043 56.5335 332.674 56.5444 333.07 56.1034L344.359 43.5696C344.662 44.1784 345.028 44.7452 345.461 45.2611C346.643 46.67 348.148 47.5073 349.718 47.7727L349.563 56.4432L339.091 68.0311ZM354.355 59.8151L362.795 50.4446L364.512 52.4924C364.894 52.9469 365.524 52.9578 365.921 52.5168C367.305 50.9799 369.475 50.9541 370.877 52.4041L359.099 65.4816L354.355 59.8151ZM361.579 68.4387L360.478 67.1263L372.266 54.0384L373.366 55.3507L361.579 68.4387Z" fill="white" stroke="white" stroke-width="0.52792"/>
<path d="M1.72876 134.843C7.46697 140.337 25.6267 146.13 52.36 125.354C85.7767 99.3845 70.081 33.461 130.839 16.9801C191.596 0.499241 201.216 44.9477 230.076 57.4332C253.164 67.4216 287.289 61.595 301.466 57.4332" stroke="white" stroke-width="5"/>
</svg>
