<svg width="187" height="187" viewBox="0 0 187 187" fill="none" xmlns="http://www.w3.org/2000/svg">
<g clip-path="url(#clip0_87_580)">
<path d="M41.568 23.011L30.066 11.499L41.568 0L53.068 11.507L41.568 23.011ZM55.612 37.049L67.112 25.546L55.603 14.038L44.104 25.537L55.612 37.049ZM69.634 51.072L81.133 39.573L69.626 28.066L58.122 39.567L69.634 51.072ZM83.659 65.103L95.162 53.604L83.659 42.1L72.16 53.611L83.659 65.103ZM39.049 25.537L27.53 14.038L16.03 25.537L27.537 37.049L39.049 25.537ZM53.067 39.573L41.559 28.066L30.053 39.573L41.56 51.08L53.067 39.573ZM55.596 42.1L44.084 53.619L55.595 65.126L67.096 53.619L55.596 42.1ZM13.5 28.074L2 39.581L13.519 51.093L25.027 39.581L13.5 28.074ZM16.03 53.611L27.537 65.118L39.057 53.611L27.546 42.091L16.03 53.611ZM53.075 67.633L41.568 56.113L30.061 67.633L41.568 79.14L53.075 67.633ZM67.097 81.643L55.596 70.144L44.084 81.651L55.589 93.163L67.097 81.643ZM134.492 115.933L145.989 104.432L134.492 92.926L122.991 104.432L134.492 115.933ZM148.522 129.959L160.019 118.462L148.505 106.944L137.004 118.445L148.522 129.959ZM162.555 143.989L174.057 132.491L162.555 120.998L151.05 132.499L162.555 143.989ZM176.565 135.004L165.064 146.514L176.585 158.027L188.086 146.53L176.565 135.004ZM107.675 108.511L86.595 129.594C83.51 132.676 78.458 132.688 75.364 129.594L68.353 122.553L51.506 139.405L48.697 136.599L65.552 119.756L58.517 112.727C55.423 109.629 55.432 104.568 58.517 101.487L79.584 80.414L73.974 74.783L69.626 79.141L58.123 67.641L69.626 56.122L81.125 67.633L76.775 71.979L82.398 77.603L103.475 56.532C106.573 53.43 111.622 53.43 114.711 56.532L131.57 73.377C134.66 76.471 134.66 81.52 131.57 84.61L110.479 105.689L116.114 111.316L120.469 106.944L131.975 118.445L120.469 129.974L108.968 118.469L113.316 114.105L107.675 108.511ZM114.154 61.58C111.384 58.801 106.816 58.801 104.048 61.58L63.605 102.022C60.826 104.799 60.826 109.368 63.605 112.145L114.154 61.58ZM122.982 132.491L134.5 143.989L146.005 132.491L134.5 120.973L122.982 132.491ZM160.019 146.514L148.522 135.004L137.004 146.514L148.522 158.027L160.019 146.514ZM151.034 160.556L162.555 172.074L174.057 160.556L162.555 149.05L151.034 160.556ZM106.431 120.998L94.918 132.512L106.431 144.021L117.933 132.5L106.431 120.998ZM120.446 135.004L108.948 146.529L120.446 158.026L131.963 146.529L120.446 135.004ZM134.475 149.034L122.974 160.555L134.475 172.056L145.989 160.555L134.475 149.034ZM137.013 174.577L148.531 186.102L160.028 174.577L148.531 163.08L137.013 174.577ZM43.956 144.129C39.544 139.721 38.278 133.566 39.558 127.867L34.204 129.67C33.591 136.11 35.46 142.746 40.397 147.684C45.335 152.622 51.971 154.493 58.429 153.896L60.212 148.513C54.535 149.815 48.374 148.545 43.956 144.129ZM28.818 131.453L23.911 133.097C24.233 140.976 27.311 148.782 33.298 154.801C39.298 160.796 47.102 163.854 54.982 164.174L56.615 159.269C49.462 159.33 42.306 156.677 36.848 151.243C31.417 145.769 28.756 138.614 28.818 131.453ZM19.058 134.708L14.209 136.331C15.207 145.66 19.094 154.728 26.219 161.862C33.356 168.999 42.421 172.878 51.755 173.872L53.382 169.011C44.764 168.338 36.338 164.896 29.768 158.32C23.198 151.755 19.745 143.315 19.058 134.708Z" fill="#F2F2F2" stroke="#F2F2F2"/>
</g>
<defs>
<clipPath id="clip0_87_580">
<rect width="186.103" height="186.103" fill="white"/>
</clipPath>
</defs>
</svg>
