<svg width="219" height="83" viewBox="0 0 219 83" fill="none" xmlns="http://www.w3.org/2000/svg">
<path d="M40.0037 18.3469L77.4325 28.4068" stroke="#CDCDCD" stroke-width="1.66676"/>
<path d="M33.662 1.39136C37.0231 16.9716 37.0231 16.9716 53.0574 15.7978C37.0231 16.9716 37.0231 16.9716 40.3843 32.5518C37.0231 16.9716 37.0231 16.9716 20.9889 18.1453C37.0231 16.9716 37.0231 16.9716 33.662 1.39136Z" fill="url(#paint0_linear_66_1408)" stroke="#565555" stroke-width="0.333372"/>
<path d="M72.4496 13.1033C75.8108 28.6835 75.8108 28.6835 91.845 27.5097C75.8108 28.6835 75.8108 28.6835 79.1719 44.2637C75.8108 28.6835 75.8108 28.6835 59.7765 29.8572C75.8108 28.6835 75.8108 28.6835 72.4496 13.1033Z" fill="url(#paint1_linear_66_1408)" stroke="#565555" stroke-width="0.333372"/>
<path d="M72.4496 13.1033C75.8108 28.6835 75.8108 28.6835 91.845 27.5097C75.8108 28.6835 75.8108 28.6835 79.1719 44.2637C75.8108 28.6835 75.8108 28.6835 59.7765 29.8572C75.8108 28.6835 75.8108 28.6835 72.4496 13.1033Z" fill="url(#paint2_linear_66_1408)" stroke="#565555" stroke-width="0.333372"/>
<path d="M20.7147 27.4928L20.685 23.6603L20.2298 23.6637L20.2236 22.8621L21.706 22.8511L21.7419 27.4851L20.7147 27.4928ZM25.7747 27.455L25.7518 24.4979C25.7495 24.197 25.6752 23.9771 25.5288 23.8381C25.3825 23.6965 25.1549 23.6269 24.8463 23.6292L23.0253 23.6428L23.0191 22.8413L24.9062 22.8272C25.5028 22.8227 25.9618 22.9672 26.2831 23.2605C26.6071 23.5512 26.7712 23.9741 26.7755 24.5292L26.798 27.4474L25.7747 27.455ZM23.0472 27.4754L23.0349 25.8879C23.0326 25.5896 23.0607 25.3676 23.1193 25.2219C23.1804 25.0762 23.2327 24.9681 23.2763 24.8977L24.0973 24.8916C24.0748 25.0007 24.0563 25.1267 24.0418 25.2695C24.0274 25.4123 24.0209 25.5848 24.0225 25.7871L24.0355 27.468L23.0472 27.4754ZM28.0489 27.438L28.3506 24.6964C28.3749 24.4835 28.4291 24.2821 28.5133 24.0921C28.5974 23.9021 28.6974 23.7548 28.8134 23.6502C28.8211 23.6423 28.8301 23.6345 28.8404 23.6266C28.8533 23.6161 28.8649 23.607 28.8752 23.5991L28.8674 23.5875C28.7611 23.6039 28.6304 23.6347 28.4751 23.6799C28.3198 23.7226 28.1839 23.7664 28.0675 23.8114L27.8399 23.0621C28.0391 22.988 28.2591 22.9241 28.4999 22.8704C28.7433 22.8141 28.992 22.7694 29.246 22.7364C29.5025 22.7034 29.745 22.686 29.9732 22.6843C30.6451 22.6793 31.1574 22.8505 31.5103 23.1981C31.8658 23.5431 32.0474 24.054 32.0553 24.731L32.076 27.408L30.0955 27.4228L30.0893 26.6212L31.0504 26.6141L31.0309 24.6064C31.0282 24.2562 30.9509 23.9883 30.799 23.8027C30.6497 23.6144 30.4376 23.5213 30.1626 23.5234C29.9292 23.5251 29.7418 23.6173 29.6005 23.7999C29.4619 23.9825 29.3756 24.2374 29.3419 24.5645L29.0605 27.4305L28.0489 27.438ZM8.39638 36.8924C8.3971 36.6512 8.41628 36.4474 8.4539 36.2811C8.49151 36.1122 8.55388 35.96 8.64103 35.8244C8.73076 35.6863 8.85158 35.544 9.00349 35.3976C9.12195 35.2852 9.22749 35.1793 9.32011 35.0801C9.4153 34.9782 9.48971 34.8726 9.54334 34.7632C9.59954 34.6512 9.62709 34.5239 9.62599 34.3813C9.62418 34.1478 9.56443 33.9693 9.44674 33.8456C9.33165 33.722 9.16256 33.661 8.93948 33.6626C8.7579 33.664 8.59362 33.721 8.44663 33.8336C8.30221 33.9437 8.22965 34.1206 8.22894 34.3645L7.22898 34.3719C7.23156 34.0347 7.3072 33.7527 7.4559 33.5259C7.60719 33.299 7.81081 33.1289 8.06675 33.0155C8.32526 32.8994 8.61404 32.8402 8.93309 32.8378C9.46226 32.8338 9.87442 32.963 10.1696 33.2254C10.4673 33.4852 10.618 33.855 10.6218 34.3349C10.6235 34.5632 10.5797 34.7684 10.4903 34.9507C10.4036 35.1329 10.2881 35.3037 10.1441 35.463C10 35.6197 9.84433 35.7778 9.67695 35.9373C9.5301 36.0681 9.43261 36.2089 9.38449 36.3598C9.33637 36.5106 9.31049 36.6859 9.30685 36.8856L8.39638 36.8924ZM8.88839 38.6242C8.7146 38.6255 8.57673 38.576 8.47478 38.4755C8.37283 38.3751 8.32128 38.2497 8.32011 38.0993C8.31893 37.9462 8.36853 37.8187 8.46891 37.7168C8.56927 37.6123 8.70634 37.5594 8.88014 37.5581C9.05653 37.5568 9.1957 37.6076 9.29767 37.7106C9.39962 37.811 9.45118 37.9378 9.45237 38.0908C9.45353 38.2413 9.40392 38.3674 9.30354 38.4694C9.20316 38.5713 9.06478 38.6229 8.88839 38.6242ZM11.2314 33.9296L15.1106 33.9006L15.1168 34.7021L14.3192 34.7081L14.3489 38.5406L13.3217 38.5483L13.292 34.7158L11.2376 34.7311L11.2314 33.9296ZM16.4518 36.5132L16.4377 34.6923L15.6634 34.6981L15.6572 33.8965L17.4548 33.8831L17.4751 36.5056L16.4518 36.5132ZM21.936 38.484L18.6279 33.8744L19.7718 33.8658L23.0721 38.4755L21.936 38.484ZM18.8427 38.5071L18.8304 36.9157C18.8268 36.4566 18.9044 36.0928 19.0632 35.8245C19.2245 35.5561 19.4837 35.357 19.8407 35.2272L20.2182 35.7419C19.947 35.8892 19.8127 36.1379 19.8154 36.4881L19.831 38.4997L18.8427 38.5071ZM23.0752 33.8412L21.5411 36.7281L20.8695 35.9316L21.9273 33.8497L23.0752 33.8412ZM24.3035 38.4663L24.2739 34.6338L23.8186 34.6372L23.8124 33.8356L25.2948 33.8246L25.3307 38.4586L24.3035 38.4663ZM28.4453 38.4354L28.4211 35.3071C28.4194 35.084 28.3532 34.912 28.2225 34.7911C28.0945 34.6675 27.9137 34.6066 27.6803 34.6083L26.2212 34.6192L26.215 33.8177L27.7402 33.8063C28.2694 33.8024 28.6842 33.9368 28.9846 34.2095C29.2876 34.4822 29.441 34.865 29.4449 35.3578L29.4686 38.4277L28.4453 38.4354ZM32.7201 38.493C32.3284 38.4959 31.9854 38.418 31.691 38.2594C31.3966 38.0982 31.1666 37.8729 31.001 37.5836C30.8379 37.2917 30.7548 36.9525 30.7518 36.566L30.7303 33.784L31.7497 33.7764L31.7721 36.6634C31.7745 36.9747 31.862 37.227 32.0347 37.4202C32.2074 37.6109 32.4325 37.7052 32.7101 37.7031C32.9876 37.7011 33.21 37.6034 33.3771 37.4102C33.5468 37.2144 33.6304 36.9608 33.628 36.6496L33.617 35.2294C33.6153 35.0089 33.566 34.842 33.4692 34.7285C33.3723 34.6125 33.2292 34.5552 33.0398 34.5566C32.9698 34.5572 32.8946 34.5668 32.8144 34.5856C32.7341 34.6017 32.6512 34.6244 32.5659 34.6536L32.444 33.993C32.5783 33.909 32.7295 33.843 32.8977 33.7951C33.066 33.7445 33.2253 33.7187 33.3757 33.7176C33.7648 33.7146 34.0719 33.8395 34.297 34.092C34.522 34.3445 34.6363 34.6939 34.6397 35.14L34.6505 36.5369C34.6535 36.9234 34.5744 37.2638 34.4133 37.5581C34.2547 37.8498 34.0295 38.0785 33.7376 38.2441C33.4484 38.4071 33.1092 38.4901 32.7201 38.493ZM37.8385 38.4547C37.439 38.4577 37.0869 38.3709 36.782 38.1941C36.4771 38.0174 36.2378 37.7676 36.0641 37.4446C35.8904 37.1217 35.7993 36.7449 35.7908 36.3144L35.7841 35.9564C35.7828 35.7852 35.8048 35.6113 35.8501 35.4345C35.8954 35.2552 35.9577 35.0913 36.037 34.9428C36.1188 34.7918 36.2087 34.6744 36.3066 34.5906C36.3169 34.5828 36.3259 34.5749 36.3337 34.5671C36.344 34.5566 36.3543 34.5488 36.3646 34.5435L36.3567 34.528C36.2712 34.5416 36.1612 34.5658 36.0265 34.6005C35.8945 34.6352 35.7754 34.6672 35.6693 34.6966L35.4728 33.947C35.6773 33.8832 35.9038 33.8284 36.1525 33.7824C36.4037 33.7339 36.659 33.6969 36.9182 33.6716C37.18 33.6437 37.425 33.6289 37.6533 33.6272C38.115 33.6238 38.5086 33.7065 38.8342 33.8752C39.1598 34.0414 39.4094 34.286 39.5831 34.609C39.7568 34.9293 39.8454 35.323 39.849 35.7899L39.8529 36.284C39.8562 36.7146 39.7748 37.0927 39.6087 37.4182C39.4426 37.7437 39.2072 37.997 38.9025 38.1783C38.6004 38.3596 38.2458 38.4517 37.8385 38.4547ZM37.828 37.6066C38.0304 37.605 38.2063 37.5493 38.3559 37.4392C38.5081 37.3291 38.6263 37.1765 38.7104 36.9813C38.7945 36.7861 38.8355 36.5588 38.8335 36.2994L38.8297 35.8131C38.8275 35.5277 38.7841 35.2842 38.6996 35.0825C38.6176 34.8808 38.4984 34.7273 38.3419 34.6221C38.1855 34.5169 37.9996 34.4651 37.7843 34.4667C37.5794 34.4683 37.4047 34.5254 37.2603 34.638C37.1159 34.748 37.0043 34.9084 36.9255 35.1191C36.8493 35.3298 36.8098 35.5856 36.8069 35.8865L36.8102 36.3145C36.8122 36.5739 36.8555 36.8006 36.94 36.9945C37.0271 37.1884 37.1463 37.3393 37.2976 37.4471C37.4515 37.5549 37.6283 37.6081 37.828 37.6066ZM44.178 38.3179L40.8698 33.7083L42.0138 33.6997L45.3141 38.3094L44.178 38.3179ZM41.0847 38.341L41.0724 36.7496C41.0688 36.2905 41.1464 35.9268 41.3052 35.6584C41.4665 35.39 41.7257 35.1909 42.0827 35.0611L42.4602 35.5758C42.189 35.7231 42.0547 35.9719 42.0574 36.322L42.073 38.3336L41.0847 38.341ZM45.3171 33.6751L43.783 36.5621L43.1115 35.7655L44.1693 33.6837L45.3171 33.6751Z" fill="white"/>
<path d="M63.7738 43.233L63.7499 40.1494C63.7485 39.964 63.6946 39.7942 63.5882 39.64L61.481 36.5802L62.697 36.5712L64.0667 38.7151L64.5074 39.3426C64.6053 39.4803 64.6755 39.6209 64.7181 39.7644C64.7608 39.908 64.7828 40.0711 64.7842 40.2537L64.8072 43.2253L63.7738 43.233ZM64.3349 39.5805L63.6558 38.714L64.7182 36.5561L65.9384 36.547L64.3349 39.5805ZM67.0494 41.4819L67.0178 37.3939L66.5322 37.3975L66.5256 36.5426L68.1068 36.5308L68.1451 41.4738L67.0494 41.4819ZM69.4752 41.4638L69.4685 40.6047L71.8757 40.5868L69.0717 36.5236L70.2877 36.5145L71.6949 38.6747L73.2771 40.9291L73.281 41.4354L69.4752 41.4638ZM71.9256 39.5238L71.2465 38.6573L72.3089 36.4994L73.5291 36.4903L71.9256 39.5238ZM74.9182 39.2774L74.9032 37.335L74.0773 37.3412L74.0707 36.4862L75.9881 36.4719L76.0098 39.2692L74.9182 39.2774ZM79.2498 41.4905C78.9897 41.4924 78.7045 41.4683 78.3942 41.418C78.0839 41.3705 77.7873 41.298 77.5043 41.2005L77.7056 40.398C77.9718 40.4734 78.2365 40.5296 78.4997 40.5663C78.7656 40.6031 78.9926 40.6208 79.1808 40.6194C79.6013 40.6107 79.9201 40.5073 80.1371 40.3092C80.3542 40.1112 80.4613 39.8254 80.4584 39.4518L80.4417 37.2937L78.7733 37.3061C78.7025 37.4644 78.6485 37.6363 78.6112 37.822C78.5739 38.0077 78.556 38.196 78.5575 38.3869L78.5598 38.6816C78.6208 38.7005 78.6956 38.7137 78.7842 38.7214C78.8728 38.729 78.9725 38.731 79.0831 38.7275L79.0893 39.5243C78.8708 39.5453 78.6675 39.551 78.4793 39.5413C78.2938 39.5316 78.1207 39.5039 77.9598 39.458C77.799 39.4094 77.649 39.3455 77.5101 39.2663L77.4977 38.7351C77.4956 38.464 77.524 38.2023 77.5829 37.9501C77.6418 37.6951 77.7259 37.4827 77.8353 37.3131L77.2875 37.3172L77.2808 36.4623L81.5266 36.4306L81.5486 39.2735C81.5526 39.7854 81.4534 40.2053 81.2512 40.5334C81.049 40.8586 80.7741 41.0986 80.4267 41.2534C80.0792 41.4082 79.6869 41.4872 79.2498 41.4905ZM53.6319 47.6391L57.7698 47.6083L57.7764 48.4632L56.9256 48.4696L56.9572 52.5576L55.8615 52.5658L55.8299 48.4777L53.6385 48.4941L53.6319 47.6391ZM59.2004 50.395L59.1853 48.4527L58.3594 48.4589L58.3528 47.6039L60.2702 47.5896L60.2919 50.3869L59.2004 50.395ZM65.0501 52.4972L61.5215 47.5802L62.7417 47.5711L66.262 52.4881L65.0501 52.4972ZM61.7506 52.5218L61.7375 50.8243C61.7337 50.3346 61.8165 49.9466 61.9858 49.6603C62.1579 49.3741 62.4344 49.1617 62.8152 49.0233L63.2179 49.5723C62.9285 49.7294 62.7853 49.9947 62.7882 50.3682L62.8048 52.5139L61.7506 52.5218ZM66.2653 47.5448L64.6289 50.6243L63.9126 49.7746L65.0409 47.554L66.2653 47.5448ZM67.5755 52.4783L67.5439 48.3903L67.0583 48.3939L67.0517 47.539L68.6329 47.5271L68.6712 52.4701L67.5755 52.4783ZM71.9934 52.4453L71.9676 49.1085C71.9658 48.8706 71.8952 48.6871 71.7558 48.5581C71.6192 48.4263 71.4264 48.3613 71.1774 48.3632L69.621 48.3748L69.6144 47.5198L71.2413 47.5077C71.8057 47.5035 72.2482 47.6468 72.5687 47.9377C72.8919 48.2286 73.0555 48.6369 73.0596 49.1626L73.085 52.4372L71.9934 52.4453ZM76.5532 52.5068C76.1354 52.5099 75.7695 52.4268 75.4555 52.2576C75.1415 52.0856 74.8962 51.8454 74.7194 51.5368C74.5455 51.2254 74.4569 50.8636 74.4537 50.4513L74.4307 47.4839L75.5181 47.4757L75.5419 50.5553C75.5445 50.8873 75.6379 51.1564 75.8221 51.3625C76.0063 51.5659 76.2465 51.6665 76.5425 51.6643C76.8386 51.6621 77.0757 51.5579 77.254 51.3518C77.435 51.1429 77.5242 50.8725 77.5216 50.5405L77.5099 49.0256C77.5081 48.7904 77.4555 48.6124 77.3522 48.4914C77.2489 48.3676 77.0962 48.3065 76.8942 48.308C76.8195 48.3086 76.7394 48.3189 76.6537 48.3389C76.5681 48.3561 76.4797 48.3803 76.3887 48.4114L76.2587 47.7068C76.4019 47.6172 76.5632 47.5468 76.7427 47.4956C76.9221 47.4417 77.0921 47.4142 77.2526 47.413C77.6676 47.4099 77.9951 47.543 78.2352 47.8124C78.4752 48.0818 78.5971 48.4544 78.6008 48.9303L78.6123 50.4203C78.6155 50.8325 78.5311 51.1956 78.3593 51.5096C78.1901 51.8208 77.9499 52.0647 77.6386 52.2413C77.33 52.4152 76.9682 52.5037 76.5532 52.5068ZM82.0128 52.466C81.5867 52.4692 81.2111 52.3765 80.8859 52.188C80.5607 51.9995 80.3054 51.733 80.1201 51.3885C79.9348 51.044 79.8377 50.6422 79.8286 50.1829L79.8215 49.8011C79.82 49.6185 79.8435 49.4329 79.8919 49.2444C79.9402 49.0531 80.0066 48.8783 80.0912 48.72C80.1785 48.5588 80.2743 48.4336 80.3788 48.3443C80.3898 48.3359 80.3994 48.3275 80.4077 48.3191C80.4186 48.308 80.4296 48.2996 80.4407 48.294L80.4322 48.2775C80.341 48.292 80.2236 48.3177 80.08 48.3548C79.9392 48.3918 79.8122 48.426 79.699 48.4573L79.4894 47.6578C79.7075 47.5897 79.9492 47.5312 80.2144 47.4822C80.4824 47.4304 80.7547 47.391 81.0312 47.364C81.3104 47.3343 81.5718 47.3185 81.8152 47.3167C82.3077 47.313 82.7276 47.4012 83.0749 47.5812C83.4222 47.7584 83.6884 48.0193 83.8737 48.3638C84.059 48.7056 84.1535 49.1254 84.1574 49.6235L84.1615 50.1506C84.165 50.6099 84.0782 51.0131 83.9011 51.3603C83.7239 51.7075 83.4728 51.9778 83.1478 52.1711C82.8255 52.3645 82.4472 52.4627 82.0128 52.466ZM82.0017 51.5613C82.2175 51.5596 82.4052 51.5001 82.5648 51.3827C82.7271 51.2653 82.8531 51.1025 82.9428 50.8943C83.0325 50.6861 83.0763 50.4437 83.0742 50.167L83.0701 49.6482C83.0678 49.3438 83.0215 49.0841 82.9313 48.8689C82.8439 48.6537 82.7167 48.4901 82.5498 48.3779C82.3829 48.2657 82.1846 48.2104 81.955 48.2121C81.7364 48.2138 81.5501 48.2746 81.3961 48.3948C81.242 48.5121 81.123 48.6832 81.039 48.908C80.9577 49.1327 80.9155 49.4056 80.9125 49.7266L80.916 50.1831C80.9182 50.4598 80.9643 50.7015 81.0544 50.9084C81.1474 51.1152 81.2745 51.2762 81.4359 51.3912C81.6 51.5062 81.7886 51.5628 82.0017 51.5613ZM88.7749 52.32L85.2462 47.4031L86.4664 47.394L89.9868 52.311L88.7749 52.32ZM85.4754 52.3447L85.4623 50.6472C85.4585 50.1575 85.5413 49.7695 85.7106 49.4832C85.8827 49.1969 86.1592 48.9846 86.5399 48.8461L86.9426 49.3951C86.6533 49.5523 86.5101 49.8176 86.513 50.1911L86.5296 52.3368L85.4754 52.3447ZM89.99 47.3677L88.3537 50.4471L87.6373 49.5975L88.7657 47.3768L89.99 47.3677Z" fill="white"/>
<defs>
<linearGradient id="paint0_linear_66_1408" x1="1003.43" y1="721.715" x2="-249.146" y2="2408.05" gradientUnits="userSpaceOnUse">
<stop stop-color="#D5D5D5"/>
<stop offset="1" stop-color="#8D8D8D"/>
</linearGradient>
<linearGradient id="paint1_linear_66_1408" x1="1042.22" y1="733.427" x2="-210.358" y2="2419.76" gradientUnits="userSpaceOnUse">
<stop stop-color="#D5D5D5"/>
<stop offset="1" stop-color="#8D8D8D"/>
</linearGradient>
<linearGradient id="paint2_linear_66_1408" x1="1042.22" y1="733.427" x2="-210.358" y2="2419.76" gradientUnits="userSpaceOnUse">
<stop stop-color="#D5D5D5"/>
<stop offset="1" stop-color="#8D8D8D"/>
</linearGradient>
</defs>
</svg>
