<svg width="219" height="83" viewBox="0 0 219 83" fill="none" xmlns="http://www.w3.org/2000/svg">
<path d="M40.0037 18.3444L77.432 28.4032L116.841 55.2885L114.064 53.394" stroke="#CDCDCD" stroke-width="1.66676"/>
<path d="M33.662 1.3916C37.0231 16.9718 37.0231 16.9718 53.0574 15.7981C37.0231 16.9718 37.0231 16.9718 40.3843 32.552C37.0231 16.9718 37.0231 16.9718 20.9889 18.1455C37.0231 16.9718 37.0231 16.9718 33.662 1.3916Z" fill="url(#paint0_linear_66_1356)" stroke="#565555" stroke-width="0.333372"/>
<path d="M72.4496 13.1034C75.8108 28.6836 75.8108 28.6836 91.845 27.5099C75.8108 28.6836 75.8108 28.6836 79.1719 44.2638C75.8108 28.6836 75.8108 28.6836 59.7765 29.8573C75.8108 28.6836 75.8108 28.6836 72.4496 13.1034Z" fill="url(#paint1_linear_66_1356)" stroke="#565555" stroke-width="0.333372"/>
<path d="M72.4496 13.1034C75.8108 28.6836 75.8108 28.6836 91.845 27.5099C75.8108 28.6836 75.8108 28.6836 79.1719 44.2638C75.8108 28.6836 75.8108 28.6836 59.7765 29.8573C75.8108 28.6836 75.8108 28.6836 72.4496 13.1034Z" fill="url(#paint2_linear_66_1356)" stroke="#565555" stroke-width="0.333372"/>
<path d="M111.006 38.4883C114.367 54.0685 114.367 54.0685 130.401 52.8948C114.367 54.0685 114.367 54.0685 117.728 69.6487C114.367 54.0685 114.367 54.0685 98.3326 55.2422C114.367 54.0685 114.367 54.0685 111.006 38.4883Z" fill="url(#paint3_linear_66_1356)" stroke="#565555" stroke-width="0.333372"/>
<path d="M20.7147 27.4929L20.685 23.6604L20.2298 23.6638L20.2236 22.8623L21.706 22.8512L21.7419 27.4853L20.7147 27.4929ZM25.7747 27.4551L25.7518 24.4981C25.7495 24.1972 25.6752 23.9772 25.5288 23.8382C25.3825 23.6966 25.1549 23.627 24.8463 23.6293L23.0253 23.6429L23.0191 22.8414L24.9062 22.8273C25.5028 22.8228 25.9618 22.9673 26.2831 23.2606C26.6071 23.5513 26.7712 23.9742 26.7755 24.5293L26.798 27.4475L25.7747 27.4551ZM23.0472 27.4755L23.0349 25.888C23.0326 25.5897 23.0607 25.3677 23.1193 25.222C23.1804 25.0763 23.2327 24.9682 23.2763 24.8979L24.0973 24.8917C24.0748 25.0009 24.0563 25.1268 24.0418 25.2696C24.0274 25.4124 24.0209 25.5849 24.0225 25.7873L24.0355 27.4681L23.0472 27.4755ZM28.0489 27.4382L28.3506 24.6966C28.3749 24.4837 28.4291 24.2822 28.5133 24.0922C28.5974 23.9022 28.6974 23.7549 28.8134 23.6503C28.8211 23.6424 28.8301 23.6346 28.8404 23.6267C28.8533 23.6163 28.8649 23.6071 28.8752 23.5992L28.8674 23.5876C28.7611 23.604 28.6304 23.6348 28.4751 23.68C28.3198 23.7227 28.1839 23.7665 28.0675 23.8115L27.8399 23.0622C28.0391 22.9881 28.2591 22.9242 28.4999 22.8705C28.7433 22.8142 28.992 22.7696 29.246 22.7365C29.5025 22.7035 29.745 22.6861 29.9732 22.6844C30.6451 22.6794 31.1574 22.8507 31.5103 23.1982C31.8658 23.5432 32.0474 24.0542 32.0553 24.7312L32.076 27.4081L30.0955 27.4229L30.0893 26.6214L31.0504 26.6142L31.0309 24.6065C31.0282 24.2563 30.9509 23.9884 30.799 23.8028C30.6497 23.6145 30.4376 23.5214 30.1626 23.5235C29.9292 23.5252 29.7418 23.6174 29.6005 23.8C29.4619 23.9827 29.3756 24.2375 29.3419 24.5646L29.0605 27.4306L28.0489 27.4382ZM8.39638 36.8926C8.3971 36.6513 8.41628 36.4475 8.4539 36.2812C8.49151 36.1123 8.55388 35.9601 8.64103 35.8246C8.73076 35.6864 8.85158 35.5441 9.00349 35.3977C9.12195 35.2853 9.22749 35.1795 9.32011 35.0802C9.4153 34.9783 9.48971 34.8727 9.54334 34.7633C9.59954 34.6514 9.62709 34.5241 9.62599 34.3814C9.62418 34.1479 9.56443 33.9694 9.44674 33.8458C9.33165 33.7221 9.16256 33.6611 8.93948 33.6628C8.7579 33.6641 8.59362 33.7211 8.44663 33.8338C8.30221 33.9438 8.22965 34.1207 8.22894 34.3646L7.22898 34.372C7.23156 34.0348 7.3072 33.7528 7.4559 33.526C7.60719 33.2992 7.81081 33.129 8.06675 33.0156C8.32526 32.8995 8.61404 32.8403 8.93309 32.8379C9.46226 32.8339 9.87442 32.9632 10.1696 33.2256C10.4673 33.4853 10.618 33.8552 10.6218 34.335C10.6235 34.5633 10.5797 34.7686 10.4903 34.9508C10.4036 35.1331 10.2881 35.3038 10.1441 35.4631C10 35.6199 9.84433 35.778 9.67695 35.9375C9.5301 36.0683 9.43261 36.2091 9.38449 36.3599C9.33637 36.5107 9.31049 36.686 9.30685 36.8858L8.39638 36.8926ZM8.88839 38.6243C8.7146 38.6256 8.57673 38.5761 8.47478 38.4757C8.37283 38.3753 8.32128 38.2498 8.32011 38.0994C8.31893 37.9463 8.36853 37.8189 8.46891 37.7169C8.56927 37.6124 8.70634 37.5595 8.88014 37.5582C9.05653 37.5569 9.1957 37.6077 9.29767 37.7108C9.39962 37.8112 9.45118 37.9379 9.45237 38.0909C9.45353 38.2414 9.40392 38.3676 9.30354 38.4695C9.20316 38.5714 9.06478 38.623 8.88839 38.6243ZM11.2314 33.9297L15.1106 33.9007L15.1168 34.7023L14.3192 34.7082L14.3489 38.5408L13.3217 38.5484L13.292 34.7159L11.2376 34.7312L11.2314 33.9297ZM16.4518 36.5133L16.4377 34.6924L15.6634 34.6982L15.6572 33.8967L17.4548 33.8832L17.4751 36.5057L16.4518 36.5133ZM21.936 38.4841L18.6279 33.8745L19.7718 33.8659L23.0721 38.4756L21.936 38.4841ZM18.8427 38.5072L18.8304 36.9158C18.8268 36.4567 18.9044 36.0929 19.0632 35.8246C19.2245 35.5562 19.4837 35.3571 19.8407 35.2273L20.2182 35.742C19.947 35.8893 19.8127 36.138 19.8154 36.4882L19.831 38.4998L18.8427 38.5072ZM23.0752 33.8413L21.5411 36.7283L20.8695 35.9317L21.9273 33.8498L23.0752 33.8413ZM24.3035 38.4664L24.2739 34.6339L23.8186 34.6373L23.8124 33.8358L25.2948 33.8247L25.3307 38.4588L24.3035 38.4664ZM28.4453 38.4355L28.4211 35.3072C28.4194 35.0841 28.3532 34.9121 28.2225 34.7912C28.0945 34.6676 27.9137 34.6067 27.6803 34.6085L26.2212 34.6194L26.215 33.8178L27.7402 33.8064C28.2694 33.8025 28.6842 33.9369 28.9846 34.2096C29.2876 34.4823 29.441 34.8651 29.4449 35.3579L29.4686 38.4279L28.4453 38.4355ZM32.7201 38.4931C32.3284 38.496 31.9854 38.4182 31.691 38.2595C31.3966 38.0983 31.1666 37.873 31.001 37.5837C30.8379 37.2918 30.7548 36.9526 30.7518 36.5661L30.7303 33.7841L31.7497 33.7765L31.7721 36.6636C31.7745 36.9748 31.862 37.2271 32.0347 37.4204C32.2074 37.611 32.4325 37.7053 32.7101 37.7033C32.9876 37.7012 33.21 37.6035 33.3771 37.4103C33.5468 37.2145 33.6304 36.961 33.628 36.6497L33.617 35.2295C33.6153 35.009 33.566 34.8421 33.4692 34.7287C33.3723 34.6127 33.2292 34.5554 33.0398 34.5568C32.9698 34.5573 32.8946 34.5669 32.8144 34.5857C32.7341 34.6019 32.6512 34.6245 32.5659 34.6537L32.444 33.9931C32.5783 33.9091 32.7295 33.8431 32.8977 33.7952C33.066 33.7446 33.2253 33.7188 33.3757 33.7177C33.7648 33.7148 34.0719 33.8396 34.297 34.0921C34.522 34.3447 34.6363 34.694 34.6397 35.1402L34.6505 36.537C34.6535 36.9235 34.5744 37.2639 34.4133 37.5582C34.2547 37.85 34.0295 38.0786 33.7376 38.2442C33.4484 38.4072 33.1092 38.4902 32.7201 38.4931ZM37.8385 38.4549C37.439 38.4579 37.0869 38.371 36.782 38.1943C36.4771 38.0176 36.2378 37.7677 36.0641 37.4448C35.8904 37.1218 35.7993 36.745 35.7908 36.3145L35.7841 35.9565C35.7828 35.7853 35.8048 35.6114 35.8501 35.4346C35.8954 35.2553 35.9577 35.0914 36.037 34.943C36.1188 34.7919 36.2087 34.6745 36.3066 34.5907C36.3169 34.5829 36.3259 34.575 36.3337 34.5672C36.344 34.5567 36.3543 34.5489 36.3646 34.5436L36.3567 34.5281C36.2712 34.5417 36.1612 34.5659 36.0265 34.6006C35.8945 34.6353 35.7754 34.6673 35.6693 34.6967L35.4728 33.9472C35.6773 33.8834 35.9038 33.8285 36.1525 33.7825C36.4037 33.734 36.659 33.697 36.9182 33.6718C37.18 33.6439 37.425 33.6291 37.6533 33.6274C38.115 33.6239 38.5086 33.7066 38.8342 33.8754C39.1598 34.0415 39.4094 34.2861 39.5831 34.6091C39.7568 34.9295 39.8454 35.3231 39.849 35.79L39.8529 36.2841C39.8562 36.7147 39.7748 37.0928 39.6087 37.4183C39.4426 37.7438 39.2072 37.9972 38.9025 38.1784C38.6004 38.3597 38.2458 38.4518 37.8385 38.4549ZM37.828 37.6067C38.0304 37.6052 38.2063 37.5494 38.3559 37.4393C38.5081 37.3292 38.6263 37.1766 38.7104 36.9814C38.7945 36.7862 38.8355 36.5589 38.8335 36.2995L38.8297 35.8132C38.8275 35.5278 38.7841 35.2843 38.6996 35.0826C38.6176 34.8809 38.4984 34.7274 38.3419 34.6222C38.1855 34.5171 37.9996 34.4653 37.7843 34.4669C37.5794 34.4684 37.4047 34.5255 37.2603 34.6381C37.1159 34.7481 37.0043 34.9085 36.9255 35.1192C36.8493 35.3299 36.8098 35.5857 36.8069 35.8866L36.8102 36.3146C36.8122 36.574 36.8555 36.8007 36.94 36.9946C37.0271 37.1885 37.1463 37.3394 37.2976 37.4472C37.4515 37.555 37.6283 37.6082 37.828 37.6067ZM44.178 38.318L40.8698 33.7084L42.0138 33.6999L45.3141 38.3096L44.178 38.318ZM41.0847 38.3411L41.0724 36.7498C41.0688 36.2906 41.1464 35.9269 41.3052 35.6585C41.4665 35.3901 41.7257 35.191 42.0827 35.0612L42.4602 35.576C42.189 35.7232 42.0547 35.972 42.0574 36.3222L42.073 38.3338L41.0847 38.3411ZM45.3171 33.6752L43.783 36.5622L43.1115 35.7656L44.1693 33.6838L45.3171 33.6752Z" fill="white"/>
<path d="M63.7738 43.2333L63.7499 40.1496C63.7485 39.9642 63.6946 39.7945 63.5882 39.6403L61.481 36.5805L62.697 36.5714L64.0667 38.7153L64.5074 39.3429C64.6053 39.4805 64.6755 39.6211 64.7181 39.7647C64.7608 39.9082 64.7828 40.0713 64.7842 40.2539L64.8072 43.2256L63.7738 43.2333ZM64.3349 39.5808L63.6558 38.7142L64.7182 36.5563L65.9384 36.5472L64.3349 39.5808ZM67.0494 41.4822L67.0178 37.3942L66.5322 37.3978L66.5256 36.5428L68.1068 36.531L68.1451 41.474L67.0494 41.4822ZM69.4752 41.4641L69.4685 40.605L71.8757 40.587L69.0717 36.5238L70.2877 36.5147L71.6949 38.6749L73.2771 40.9293L73.281 41.4357L69.4752 41.4641ZM71.9256 39.5241L71.2465 38.6575L72.3089 36.4996L73.5291 36.4905L71.9256 39.5241ZM74.9182 39.2776L74.9032 37.3353L74.0773 37.3414L74.0707 36.4865L75.9881 36.4722L76.0098 39.2695L74.9182 39.2776ZM79.2498 41.4907C78.9897 41.4927 78.7045 41.4685 78.3942 41.4182C78.0839 41.3707 77.7873 41.2983 77.5043 41.2008L77.7056 40.3982C77.9718 40.4737 78.2365 40.5298 78.4997 40.5666C78.7656 40.6033 78.9926 40.621 79.1808 40.6196C79.6013 40.6109 79.9201 40.5076 80.1371 40.3095C80.3542 40.1114 80.4613 39.8256 80.4584 39.4521L80.4417 37.2939L78.7733 37.3064C78.7025 37.4646 78.6485 37.6366 78.6112 37.8223C78.5739 38.0079 78.556 38.1962 78.5575 38.3871L78.5598 38.6818C78.6208 38.7007 78.6956 38.714 78.7842 38.7216C78.8728 38.7293 78.9725 38.7313 79.0831 38.7277L79.0893 39.5246C78.8708 39.5456 78.6675 39.5512 78.4793 39.5416C78.2938 39.5319 78.1207 39.5041 77.9598 39.4583C77.799 39.4097 77.649 39.3458 77.5101 39.2666L77.4977 38.7354C77.4956 38.4642 77.524 38.2025 77.5829 37.9503C77.6418 37.6953 77.7259 37.483 77.8353 37.3134L77.2875 37.3175L77.2808 36.4625L81.5266 36.4308L81.5486 39.2738C81.5526 39.7856 81.4534 40.2056 81.2512 40.5336C81.049 40.8588 80.7741 41.0989 80.4267 41.2536C80.0792 41.4084 79.6869 41.4874 79.2498 41.4907ZM53.6319 47.6394L57.7698 47.6085L57.7764 48.4635L56.9256 48.4698L56.9572 52.5578L55.8615 52.566L55.8299 48.478L53.6385 48.4944L53.6319 47.6394ZM59.2004 50.3953L59.1853 48.4529L58.3594 48.4591L58.3528 47.6041L60.2702 47.5898L60.2919 50.3871L59.2004 50.3953ZM65.0501 52.4974L61.5215 47.5805L62.7417 47.5714L66.262 52.4884L65.0501 52.4974ZM61.7506 52.5221L61.7375 50.8246C61.7337 50.3349 61.8165 49.9469 61.9858 49.6606C62.1579 49.3743 62.4344 49.1619 62.8152 49.0235L63.2179 49.5725C62.9285 49.7296 62.7853 49.995 62.7882 50.3685L62.8048 52.5142L61.7506 52.5221ZM66.2653 47.5451L64.6289 50.6245L63.9126 49.7749L65.0409 47.5542L66.2653 47.5451ZM67.5755 52.4786L67.5439 48.3905L67.0583 48.3942L67.0517 47.5392L68.6329 47.5274L68.6712 52.4704L67.5755 52.4786ZM71.9934 52.4456L71.9676 49.1087C71.9658 48.8708 71.8952 48.6873 71.7558 48.5583C71.6192 48.4265 71.4264 48.3615 71.1774 48.3634L69.621 48.375L69.6144 47.5201L71.2413 47.5079C71.8057 47.5037 72.2482 47.647 72.5687 47.938C72.8919 48.2289 73.0555 48.6371 73.0596 49.1629L73.085 52.4374L71.9934 52.4456ZM76.5532 52.507C76.1354 52.5101 75.7695 52.4271 75.4555 52.2579C75.1415 52.0859 74.8962 51.8456 74.7194 51.537C74.5455 51.2256 74.4569 50.8638 74.4537 50.4516L74.4307 47.4841L75.5181 47.476L75.5419 50.5555C75.5445 50.8875 75.6379 51.1566 75.8221 51.3628C76.0063 51.5661 76.2465 51.6667 76.5425 51.6645C76.8386 51.6623 77.0757 51.5582 77.254 51.3521C77.435 51.1432 77.5242 50.8727 77.5216 50.5407L77.5099 49.0259C77.5081 48.7907 77.4555 48.6126 77.3522 48.4916C77.2489 48.3679 77.0962 48.3068 76.8942 48.3083C76.8195 48.3088 76.7394 48.3191 76.6537 48.3391C76.5681 48.3564 76.4797 48.3805 76.3887 48.4117L76.2587 47.707C76.4019 47.6174 76.5632 47.547 76.7427 47.4959C76.9221 47.442 77.0921 47.4144 77.2526 47.4132C77.6676 47.4101 77.9951 47.5433 78.2352 47.8126C78.4752 48.082 78.5971 48.4547 78.6008 48.9306L78.6123 50.4205C78.6155 50.8328 78.5311 51.1959 78.3593 51.5098C78.1901 51.821 77.9499 52.0649 77.6386 52.2416C77.33 52.4154 76.9682 52.5039 76.5532 52.507ZM82.0128 52.4662C81.5867 52.4694 81.2111 52.3768 80.8859 52.1883C80.5607 51.9998 80.3054 51.7333 80.1201 51.3888C79.9348 51.0443 79.8377 50.6424 79.8286 50.1831L79.8215 49.8014C79.82 49.6187 79.8435 49.4332 79.8919 49.2447C79.9402 49.0534 80.0066 48.8786 80.0912 48.7202C80.1785 48.5591 80.2743 48.4338 80.3788 48.3445C80.3898 48.3361 80.3994 48.3277 80.4077 48.3194C80.4186 48.3082 80.4296 48.2999 80.4407 48.2942L80.4322 48.2777C80.341 48.2922 80.2236 48.318 80.08 48.355C79.9392 48.3921 79.8122 48.4262 79.699 48.4575L79.4894 47.658C79.7075 47.59 79.9492 47.5314 80.2144 47.4824C80.4824 47.4306 80.7547 47.3912 81.0312 47.3643C81.3104 47.3345 81.5718 47.3187 81.8152 47.3169C82.3077 47.3132 82.7276 47.4014 83.0749 47.5814C83.4222 47.7587 83.6884 48.0196 83.8737 48.3641C84.059 48.7058 84.1535 49.1257 84.1574 49.6237L84.1615 50.1508C84.165 50.6101 84.0782 51.0133 83.9011 51.3605C83.7239 51.7077 83.4728 51.978 83.1478 52.1714C82.8255 52.3647 82.4472 52.463 82.0128 52.4662ZM82.0017 51.5615C82.2175 51.5599 82.4052 51.5004 82.5648 51.383C82.7271 51.2655 82.8531 51.1027 82.9428 50.8945C83.0325 50.6863 83.0763 50.4439 83.0742 50.1672L83.0701 49.6484C83.0678 49.3441 83.0215 49.0843 82.9313 48.8692C82.8439 48.654 82.7167 48.4903 82.5498 48.3781C82.3829 48.2659 82.1846 48.2107 81.955 48.2124C81.7364 48.214 81.5501 48.2749 81.3961 48.395C81.242 48.5124 81.123 48.6834 81.039 48.9082C80.9577 49.1329 80.9155 49.4058 80.9125 49.7268L80.916 50.1833C80.9182 50.46 80.9643 50.7018 81.0544 50.9086C81.1474 51.1155 81.2745 51.2764 81.4359 51.3914C81.6 51.5064 81.7886 51.5631 82.0017 51.5615ZM88.7749 52.3203L85.2462 47.4033L86.4664 47.3942L89.9868 52.3112L88.7749 52.3203ZM85.4754 52.3449L85.4623 50.6475C85.4585 50.1577 85.5413 49.7697 85.7106 49.4834C85.8827 49.1972 86.1592 48.9848 86.5399 48.8464L86.9426 49.3954C86.6533 49.5525 86.5101 49.8178 86.513 50.1913L86.5296 52.337L85.4754 52.3449ZM89.99 47.3679L88.3537 50.4474L87.6373 49.5977L88.7657 47.3771L89.99 47.3679Z" fill="white"/>
<path d="M89.71 68.3196L89.6717 63.3766L93.7805 63.3459L93.8188 68.2889L89.71 68.3196ZM90.7948 67.4524L92.7206 67.438L92.6956 64.209L90.7698 64.2234L90.7948 67.4524ZM95.6386 66.1295L95.6235 64.1872L94.7976 64.1934L94.791 63.3384L96.7085 63.3241L96.7301 66.1214L95.6386 66.1295ZM98.0104 68.2576L98.0038 67.3985L100.411 67.3806L97.6069 63.3174L98.8229 63.3083L100.23 65.4685L101.812 67.7229L101.816 68.2292L98.0104 68.2576ZM100.461 66.3176L99.7817 65.4511L100.844 63.2932L102.064 63.2841L100.461 66.3176ZM102.96 68.2207L102.953 67.3616L105.36 67.3436L102.556 63.2804L103.772 63.2713L105.179 65.4316L106.761 67.6859L106.765 68.1923L102.96 68.2207ZM105.41 66.2807L104.731 65.4142L105.793 63.2562L107.013 63.2471L105.41 66.2807ZM108.216 68.1814L108.184 64.0934L107.699 64.097L107.692 63.2421L109.273 63.2303L109.312 68.1733L108.216 68.1814ZM112.601 68.2483C112.341 68.2503 112.056 68.2261 111.746 68.1758C111.435 68.1283 111.139 68.0559 110.856 67.9584L111.057 67.1558C111.323 67.2313 111.588 67.2874 111.851 67.3242C112.117 67.3609 112.344 67.3786 112.532 67.3772C112.953 67.3685 113.272 67.2652 113.489 67.0671C113.706 66.869 113.813 66.5832 113.81 66.2097L113.793 64.0515L112.125 64.064C112.054 64.2222 112 64.3942 111.963 64.5799C111.925 64.7655 111.908 64.9538 111.909 65.1447L111.911 65.4394C111.972 65.4583 112.047 65.4716 112.136 65.4792C112.224 65.4869 112.324 65.4889 112.435 65.4853L112.441 66.2822C112.222 66.3032 112.019 66.3088 111.831 66.2992C111.645 66.2895 111.472 66.2617 111.311 66.2159C111.15 66.1673 111.001 66.1034 110.862 66.0242L110.849 65.493C110.847 65.2218 110.876 64.9601 110.934 64.7079C110.993 64.4529 111.077 64.2406 111.187 64.071L110.639 64.0751L110.632 63.2201L114.878 63.1884L114.9 66.0314C114.904 66.5432 114.805 66.9632 114.603 67.2912C114.401 67.6164 114.126 67.8565 113.778 68.0112C113.431 68.166 113.038 68.245 112.601 68.2483ZM116.379 68.1205L116.701 65.1961C116.727 64.969 116.785 64.7541 116.875 64.5515C116.964 64.3488 117.071 64.1917 117.195 64.0801C117.203 64.0717 117.213 64.0633 117.224 64.055C117.237 64.0438 117.25 64.034 117.261 64.0256L117.252 64.0132C117.139 64.0307 117 64.0636 116.834 64.1118C116.668 64.1573 116.523 64.2041 116.399 64.252L116.156 63.4528C116.369 63.3737 116.604 63.3056 116.86 63.2483C117.12 63.1883 117.385 63.1406 117.656 63.1054C117.93 63.0702 118.188 63.0516 118.432 63.0498C119.149 63.0445 119.695 63.2272 120.071 63.5979C120.451 63.9658 120.644 64.5109 120.653 65.233L120.675 68.0884L118.562 68.1042L118.556 67.2492L119.581 67.2416L119.56 65.1001C119.557 64.7265 119.475 64.4408 119.313 64.2427C119.153 64.0419 118.927 63.9426 118.634 63.9448C118.385 63.9467 118.185 64.045 118.034 64.2398C117.886 64.4346 117.794 64.7065 117.758 65.0554L117.458 68.1124L116.379 68.1205ZM126.129 69.7743L126.084 63.9598L123.801 63.9768L123.795 63.1218L127.152 63.0968L127.204 69.7663L126.129 69.7743ZM129.015 65.8803L129 63.938L128.174 63.9441L128.167 63.0892L130.085 63.0749L130.106 65.8722L129.015 65.8803ZM134.864 67.9825L131.336 63.0655L132.556 63.0564L136.076 67.9734L134.864 67.9825ZM131.565 68.0071L131.552 66.3096C131.548 65.8199 131.631 65.4319 131.8 65.1456C131.972 64.8593 132.249 64.647 132.629 64.5086L133.032 65.0576C132.743 65.2147 132.6 65.48 132.602 65.8535L132.619 67.9992L131.565 68.0071ZM136.08 63.0301L134.443 66.1096L133.727 65.2599L134.855 63.0393L136.08 63.0301ZM93.6554 77.485C93.6561 77.2276 93.6766 77.0103 93.7167 76.8329C93.7568 76.6527 93.8234 76.4904 93.9163 76.3458C94.012 76.1984 94.1409 76.0467 94.303 75.8905C94.4293 75.7706 94.5419 75.6577 94.6407 75.5518C94.7422 75.4431 94.8216 75.3304 94.8788 75.2138C94.9387 75.0944 94.9681 74.9586 94.9669 74.8064C94.965 74.5574 94.9013 74.3669 94.7758 74.235C94.653 74.1031 94.4726 74.0381 94.2347 74.0399C94.041 74.0413 93.8658 74.1021 93.709 74.2223C93.5549 74.3396 93.4775 74.5284 93.4768 74.7885L92.4101 74.7964C92.4129 74.4367 92.4936 74.1359 92.6522 73.894C92.8136 73.652 93.0308 73.4705 93.3038 73.3495C93.5795 73.2257 93.8875 73.1625 94.2279 73.16C94.7923 73.1558 95.2319 73.2936 95.5468 73.5735C95.8644 73.8506 96.0251 74.2451 96.0291 74.757C96.031 75.0004 95.9843 75.2194 95.8889 75.4138C95.7963 75.6082 95.6732 75.7903 95.5196 75.9603C95.3659 76.1274 95.1998 76.2961 95.0213 76.4662C94.8647 76.6057 94.7607 76.7559 94.7094 76.9168C94.658 77.0777 94.6304 77.2646 94.6265 77.4777L93.6554 77.485ZM94.1802 79.3322C93.9948 79.3336 93.8477 79.2807 93.739 79.1736C93.6302 79.0665 93.5753 78.9327 93.574 78.7723C93.5727 78.609 93.6257 78.473 93.7327 78.3643C93.8398 78.2528 93.986 78.1964 94.1714 78.195C94.3595 78.1936 94.508 78.2478 94.6167 78.3577C94.7255 78.4648 94.7805 78.6 94.7818 78.7632C94.783 78.9237 94.7301 79.0583 94.623 79.167C94.5159 79.2757 94.3683 79.3308 94.1802 79.3322ZM96.6794 74.3246L100.817 74.2937L100.824 75.1487L99.973 75.155L100.005 79.2431L98.909 79.2512L98.8774 75.1632L96.686 75.1796L96.6794 74.3246ZM102.248 77.0805L102.233 75.1381L101.407 75.1443L101.4 74.2894L103.318 74.275L103.339 77.0723L102.248 77.0805ZM108.098 79.1826L104.569 74.2657L105.789 74.2566L109.309 79.1736L108.098 79.1826ZM104.798 79.2073L104.785 77.5098C104.781 77.0201 104.864 76.6321 105.033 76.3458C105.205 76.0595 105.482 75.8471 105.863 75.7087L106.265 76.2577C105.976 76.4148 105.833 76.6802 105.836 77.0537L105.852 79.1994L104.798 79.2073ZM109.313 74.2303L107.676 77.3097L106.96 76.4601L108.088 74.2394L109.313 74.2303ZM110.623 79.1638L110.591 75.0757L110.106 75.0794L110.099 74.2244L111.68 74.2126L111.719 79.1556L110.623 79.1638ZM115.041 79.1308L115.015 75.794C115.013 75.556 114.943 75.3725 114.803 75.2435C114.667 75.1117 114.474 75.0467 114.225 75.0486L112.668 75.0602L112.662 74.2053L114.289 74.1931C114.853 74.1889 115.296 74.3323 115.616 74.6232C115.939 74.9141 116.103 75.3224 116.107 75.8481L116.132 79.1226L115.041 79.1308ZM119.601 79.1922C119.183 79.1953 118.817 79.1123 118.503 78.9431C118.189 78.7711 117.944 78.5308 117.767 78.2222C117.593 77.9108 117.504 77.549 117.501 77.1368L117.478 74.1693L118.566 74.1612L118.589 77.2407C118.592 77.5727 118.685 77.8418 118.87 78.048C119.054 78.2513 119.294 78.3519 119.59 78.3497C119.886 78.3475 120.123 78.2434 120.301 78.0373C120.482 77.8284 120.572 77.5579 120.569 77.2259L120.557 75.7111C120.556 75.4759 120.503 75.2978 120.4 75.1768C120.296 75.0531 120.144 74.992 119.942 74.9935C119.867 74.994 119.787 75.0043 119.701 75.0243C119.616 75.0416 119.527 75.0657 119.436 75.0969L119.306 74.3922C119.449 74.3026 119.611 74.2322 119.79 74.1811C119.97 74.1272 120.14 74.0996 120.3 74.0984C120.715 74.0953 121.043 74.2285 121.283 74.4978C121.523 74.7672 121.645 75.1399 121.648 75.6158L121.66 77.1057C121.663 77.518 121.579 77.8811 121.407 78.195C121.238 78.5062 120.997 78.7501 120.686 78.9268C120.377 79.1006 120.016 79.1891 119.601 79.1922ZM125.06 79.1514C124.634 79.1546 124.259 79.062 123.933 78.8735C123.608 78.685 123.353 78.4185 123.168 78.074C122.982 77.7295 122.885 77.3276 122.876 76.8684L122.869 76.4866C122.868 76.3039 122.891 76.1184 122.939 75.9299C122.988 75.7386 123.054 75.5638 123.139 75.4054C123.226 75.2443 123.322 75.119 123.426 75.0297C123.437 75.0213 123.447 75.013 123.455 75.0046C123.466 74.9934 123.477 74.9851 123.488 74.9794L123.48 74.9629C123.389 74.9774 123.271 75.0032 123.128 75.0402C122.987 75.0773 122.86 75.1114 122.746 75.1427L122.537 74.3432C122.755 74.2752 122.997 74.2166 123.262 74.1676C123.53 74.1158 123.802 74.0764 124.079 74.0495C124.358 74.0197 124.619 74.0039 124.863 74.0021C125.355 73.9984 125.775 74.0866 126.122 74.2666C126.47 74.4439 126.736 74.7048 126.921 75.0493C127.106 75.391 127.201 75.8109 127.205 76.3089L127.209 76.836C127.213 77.2953 127.126 77.6985 126.949 78.0458C126.771 78.393 126.52 78.6632 126.195 78.8566C125.873 79.0499 125.495 79.1482 125.06 79.1514ZM125.049 78.2467C125.265 78.2451 125.453 78.1856 125.612 78.0682C125.775 77.9508 125.901 77.7879 125.99 77.5797C126.08 77.3715 126.124 77.1291 126.122 76.8524L126.118 76.3336C126.115 76.0293 126.069 75.7695 125.979 75.5544C125.891 75.3392 125.764 75.1755 125.597 75.0633C125.43 74.9511 125.232 74.8959 125.002 74.8976C124.784 74.8992 124.598 74.9601 124.444 75.0802C124.29 75.1976 124.17 75.3686 124.086 75.5934C124.005 75.8181 123.963 76.091 123.96 76.412L123.963 76.8685C123.966 77.1452 124.012 77.387 124.102 77.5938C124.195 77.8007 124.322 77.9616 124.483 78.0766C124.648 78.1916 124.836 78.2483 125.049 78.2467ZM131.822 79.0055L128.294 74.0885L129.514 74.0794L133.034 78.9964L131.822 79.0055ZM128.523 79.0301L128.51 77.3327C128.506 76.8429 128.589 76.4549 128.758 76.1686C128.93 75.8824 129.207 75.67 129.587 75.5316L129.99 76.0806C129.701 76.2377 129.558 76.503 129.56 76.8766L129.577 79.0223L128.523 79.0301ZM133.038 74.0531L131.401 77.1326L130.685 76.2829L131.813 74.0623L133.038 74.0531Z" fill="white"/>
<defs>
<linearGradient id="paint0_linear_66_1356" x1="1003.43" y1="721.715" x2="-249.146" y2="2408.05" gradientUnits="userSpaceOnUse">
<stop stop-color="#D5D5D5"/>
<stop offset="1" stop-color="#8D8D8D"/>
</linearGradient>
<linearGradient id="paint1_linear_66_1356" x1="1042.22" y1="733.427" x2="-210.358" y2="2419.76" gradientUnits="userSpaceOnUse">
<stop stop-color="#D5D5D5"/>
<stop offset="1" stop-color="#8D8D8D"/>
</linearGradient>
<linearGradient id="paint2_linear_66_1356" x1="1042.22" y1="733.427" x2="-210.358" y2="2419.76" gradientUnits="userSpaceOnUse">
<stop stop-color="#D5D5D5"/>
<stop offset="1" stop-color="#8D8D8D"/>
</linearGradient>
<linearGradient id="paint3_linear_66_1356" x1="1080.77" y1="758.812" x2="-171.802" y2="2445.15" gradientUnits="userSpaceOnUse">
<stop stop-color="#D5D5D5"/>
<stop offset="1" stop-color="#8D8D8D"/>
</linearGradient>
</defs>
</svg>
