<svg width="219" height="83" viewBox="0 0 219 83" fill="none" xmlns="http://www.w3.org/2000/svg">
<path d="M40.0037 18.3442L77.432 28.403L116.841 55.2884L114.064 53.3939" stroke="#CDCDCD" stroke-width="1.66676"/>
<path d="M33.662 1.39136C37.0231 16.9716 37.0231 16.9716 53.0574 15.7978C37.0231 16.9716 37.0231 16.9716 40.3843 32.5518C37.0231 16.9716 37.0231 16.9716 20.9889 18.1453C37.0231 16.9716 37.0231 16.9716 33.662 1.39136Z" fill="url(#paint0_linear_66_1356)" stroke="#565555" stroke-width="0.333372"/>
<path d="M72.4496 13.1033C75.8108 28.6835 75.8108 28.6835 91.845 27.5097C75.8108 28.6835 75.8108 28.6835 79.1719 44.2637C75.8108 28.6835 75.8108 28.6835 59.7765 29.8572C75.8108 28.6835 75.8108 28.6835 72.4496 13.1033Z" fill="url(#paint1_linear_66_1356)" stroke="#565555" stroke-width="0.333372"/>
<path d="M72.4496 13.1033C75.8108 28.6835 75.8108 28.6835 91.845 27.5097C75.8108 28.6835 75.8108 28.6835 79.1719 44.2637C75.8108 28.6835 75.8108 28.6835 59.7765 29.8572C75.8108 28.6835 75.8108 28.6835 72.4496 13.1033Z" fill="url(#paint2_linear_66_1356)" stroke="#565555" stroke-width="0.333372"/>
<path d="M111.006 38.4882C114.367 54.0684 114.367 54.0684 130.401 52.8946C114.367 54.0684 114.367 54.0684 117.728 69.6486C114.367 54.0684 114.367 54.0684 98.3326 55.2421C114.367 54.0684 114.367 54.0684 111.006 38.4882Z" fill="url(#paint3_linear_66_1356)" stroke="#565555" stroke-width="0.333372"/>
<path d="M20.7147 27.4928L20.685 23.6603L20.2298 23.6637L20.2236 22.8621L21.706 22.8511L21.7419 27.4851L20.7147 27.4928ZM25.7747 27.455L25.7518 24.4979C25.7495 24.197 25.6752 23.9771 25.5288 23.8381C25.3825 23.6965 25.1549 23.6269 24.8463 23.6292L23.0253 23.6428L23.0191 22.8413L24.9062 22.8272C25.5028 22.8227 25.9618 22.9672 26.2831 23.2605C26.6071 23.5512 26.7712 23.9741 26.7755 24.5292L26.798 27.4474L25.7747 27.455ZM23.0472 27.4754L23.0349 25.8879C23.0326 25.5896 23.0607 25.3676 23.1193 25.2219C23.1804 25.0762 23.2327 24.9681 23.2763 24.8977L24.0973 24.8916C24.0748 25.0007 24.0563 25.1267 24.0418 25.2695C24.0274 25.4123 24.0209 25.5848 24.0225 25.7871L24.0355 27.468L23.0472 27.4754ZM28.0489 27.438L28.3506 24.6964C28.3749 24.4835 28.4291 24.2821 28.5133 24.0921C28.5974 23.9021 28.6974 23.7548 28.8134 23.6502C28.8211 23.6423 28.8301 23.6345 28.8404 23.6266C28.8533 23.6161 28.8649 23.607 28.8752 23.5991L28.8674 23.5875C28.7611 23.6039 28.6304 23.6347 28.4751 23.6799C28.3198 23.7226 28.1839 23.7664 28.0675 23.8114L27.8399 23.0621C28.0391 22.988 28.2591 22.9241 28.4999 22.8704C28.7433 22.8141 28.992 22.7694 29.246 22.7364C29.5025 22.7034 29.745 22.686 29.9732 22.6843C30.6451 22.6793 31.1574 22.8505 31.5103 23.1981C31.8658 23.5431 32.0474 24.054 32.0553 24.731L32.076 27.408L30.0955 27.4228L30.0893 26.6212L31.0504 26.6141L31.0309 24.6064C31.0282 24.2562 30.9509 23.9883 30.799 23.8027C30.6497 23.6144 30.4376 23.5213 30.1626 23.5234C29.9292 23.5251 29.7418 23.6173 29.6005 23.7999C29.4619 23.9825 29.3756 24.2374 29.3419 24.5645L29.0605 27.4305L28.0489 27.438ZM8.39638 36.8924C8.3971 36.6512 8.41628 36.4474 8.4539 36.2811C8.49151 36.1122 8.55388 35.96 8.64103 35.8244C8.73076 35.6863 8.85158 35.544 9.00349 35.3976C9.12195 35.2852 9.22749 35.1793 9.32011 35.0801C9.4153 34.9782 9.48971 34.8726 9.54334 34.7632C9.59954 34.6512 9.62709 34.5239 9.62599 34.3813C9.62418 34.1478 9.56443 33.9693 9.44674 33.8456C9.33165 33.722 9.16256 33.661 8.93948 33.6626C8.7579 33.664 8.59362 33.721 8.44663 33.8336C8.30221 33.9437 8.22965 34.1206 8.22894 34.3645L7.22898 34.3719C7.23156 34.0347 7.3072 33.7527 7.4559 33.5259C7.60719 33.299 7.81081 33.1289 8.06675 33.0155C8.32526 32.8994 8.61404 32.8402 8.93309 32.8378C9.46226 32.8338 9.87442 32.963 10.1696 33.2254C10.4673 33.4852 10.618 33.855 10.6218 34.3349C10.6235 34.5632 10.5797 34.7684 10.4903 34.9507C10.4036 35.1329 10.2881 35.3037 10.1441 35.463C10 35.6197 9.84433 35.7778 9.67695 35.9373C9.5301 36.0681 9.43261 36.2089 9.38449 36.3598C9.33637 36.5106 9.31049 36.6859 9.30685 36.8856L8.39638 36.8924ZM8.88839 38.6242C8.7146 38.6255 8.57673 38.576 8.47478 38.4755C8.37283 38.3751 8.32128 38.2497 8.32011 38.0993C8.31893 37.9462 8.36853 37.8187 8.46891 37.7168C8.56927 37.6123 8.70634 37.5594 8.88014 37.5581C9.05653 37.5568 9.1957 37.6076 9.29767 37.7106C9.39962 37.811 9.45118 37.9378 9.45237 38.0908C9.45353 38.2413 9.40392 38.3674 9.30354 38.4694C9.20316 38.5713 9.06478 38.6229 8.88839 38.6242ZM11.2314 33.9296L15.1106 33.9006L15.1168 34.7021L14.3192 34.7081L14.3489 38.5406L13.3217 38.5483L13.292 34.7158L11.2376 34.7311L11.2314 33.9296ZM16.4518 36.5132L16.4377 34.6923L15.6634 34.6981L15.6572 33.8965L17.4548 33.8831L17.4751 36.5056L16.4518 36.5132ZM21.936 38.484L18.6279 33.8744L19.7718 33.8658L23.0721 38.4755L21.936 38.484ZM18.8427 38.5071L18.8304 36.9157C18.8268 36.4566 18.9044 36.0928 19.0632 35.8245C19.2245 35.5561 19.4837 35.357 19.8407 35.2272L20.2182 35.7419C19.947 35.8892 19.8127 36.1379 19.8154 36.4881L19.831 38.4997L18.8427 38.5071ZM23.0752 33.8412L21.5411 36.7281L20.8695 35.9316L21.9273 33.8497L23.0752 33.8412ZM24.3035 38.4663L24.2739 34.6338L23.8186 34.6372L23.8124 33.8356L25.2948 33.8246L25.3307 38.4586L24.3035 38.4663ZM28.4453 38.4354L28.4211 35.3071C28.4194 35.084 28.3532 34.912 28.2225 34.7911C28.0945 34.6675 27.9137 34.6066 27.6803 34.6083L26.2212 34.6192L26.215 33.8177L27.7402 33.8063C28.2694 33.8024 28.6842 33.9368 28.9846 34.2095C29.2876 34.4822 29.441 34.865 29.4449 35.3578L29.4686 38.4277L28.4453 38.4354ZM32.7201 38.493C32.3284 38.4959 31.9854 38.418 31.691 38.2594C31.3966 38.0982 31.1666 37.8729 31.001 37.5836C30.8379 37.2917 30.7548 36.9525 30.7518 36.566L30.7303 33.784L31.7497 33.7764L31.7721 36.6634C31.7745 36.9747 31.862 37.227 32.0347 37.4202C32.2074 37.6109 32.4325 37.7052 32.7101 37.7031C32.9876 37.7011 33.21 37.6034 33.3771 37.4102C33.5468 37.2144 33.6304 36.9608 33.628 36.6496L33.617 35.2294C33.6153 35.0089 33.566 34.842 33.4692 34.7285C33.3723 34.6125 33.2292 34.5552 33.0398 34.5566C32.9698 34.5572 32.8946 34.5668 32.8144 34.5856C32.7341 34.6017 32.6512 34.6244 32.5659 34.6536L32.444 33.993C32.5783 33.909 32.7295 33.843 32.8977 33.7951C33.066 33.7445 33.2253 33.7187 33.3757 33.7176C33.7648 33.7146 34.0719 33.8395 34.297 34.092C34.522 34.3445 34.6363 34.6939 34.6397 35.14L34.6505 36.5369C34.6535 36.9234 34.5744 37.2638 34.4133 37.5581C34.2547 37.8498 34.0295 38.0785 33.7376 38.2441C33.4484 38.4071 33.1092 38.4901 32.7201 38.493ZM37.8385 38.4547C37.439 38.4577 37.0869 38.3709 36.782 38.1941C36.4771 38.0174 36.2378 37.7676 36.0641 37.4446C35.8904 37.1217 35.7993 36.7449 35.7908 36.3144L35.7841 35.9564C35.7828 35.7852 35.8048 35.6113 35.8501 35.4345C35.8954 35.2552 35.9577 35.0913 36.037 34.9428C36.1188 34.7918 36.2087 34.6744 36.3066 34.5906C36.3169 34.5828 36.3259 34.5749 36.3337 34.5671C36.344 34.5566 36.3543 34.5488 36.3646 34.5435L36.3567 34.528C36.2712 34.5416 36.1612 34.5658 36.0265 34.6005C35.8945 34.6352 35.7754 34.6672 35.6693 34.6966L35.4728 33.947C35.6773 33.8832 35.9038 33.8284 36.1525 33.7824C36.4037 33.7339 36.659 33.6969 36.9182 33.6716C37.18 33.6437 37.425 33.6289 37.6533 33.6272C38.115 33.6238 38.5086 33.7065 38.8342 33.8752C39.1598 34.0414 39.4094 34.286 39.5831 34.609C39.7568 34.9293 39.8454 35.323 39.849 35.7899L39.8529 36.284C39.8562 36.7146 39.7748 37.0927 39.6087 37.4182C39.4426 37.7437 39.2072 37.997 38.9025 38.1783C38.6004 38.3596 38.2458 38.4517 37.8385 38.4547ZM37.828 37.6066C38.0304 37.605 38.2063 37.5493 38.3559 37.4392C38.5081 37.3291 38.6263 37.1765 38.7104 36.9813C38.7945 36.7861 38.8355 36.5588 38.8335 36.2994L38.8297 35.8131C38.8275 35.5277 38.7841 35.2842 38.6996 35.0825C38.6176 34.8808 38.4984 34.7273 38.3419 34.6221C38.1855 34.5169 37.9996 34.4651 37.7843 34.4667C37.5794 34.4683 37.4047 34.5254 37.2603 34.638C37.1159 34.748 37.0043 34.9084 36.9255 35.1191C36.8493 35.3298 36.8098 35.5856 36.8069 35.8865L36.8102 36.3145C36.8122 36.5739 36.8555 36.8006 36.94 36.9945C37.0271 37.1884 37.1463 37.3393 37.2976 37.4471C37.4515 37.5549 37.6283 37.6081 37.828 37.6066ZM44.178 38.3179L40.8698 33.7083L42.0138 33.6997L45.3141 38.3094L44.178 38.3179ZM41.0847 38.341L41.0724 36.7496C41.0688 36.2905 41.1464 35.9268 41.3052 35.6584C41.4665 35.39 41.7257 35.1909 42.0827 35.0611L42.4602 35.5758C42.189 35.7231 42.0547 35.9719 42.0574 36.322L42.073 38.3336L41.0847 38.341ZM45.3171 33.6751L43.783 36.5621L43.1115 35.7655L44.1693 33.6837L45.3171 33.6751Z" fill="white"/>
<path d="M63.7738 43.2331L63.7499 40.1495C63.7485 39.9641 63.6946 39.7943 63.5882 39.6402L61.481 36.5804L62.697 36.5713L64.0667 38.7152L64.5074 39.3428C64.6053 39.4804 64.6755 39.621 64.7181 39.7646C64.7608 39.9081 64.7828 40.0712 64.7842 40.2538L64.8072 43.2254L63.7738 43.2331ZM64.3349 39.5806L63.6558 38.7141L64.7182 36.5562L65.9384 36.5471L64.3349 39.5806ZM67.0494 41.4821L67.0178 37.394L66.5322 37.3977L66.5256 36.5427L68.1068 36.5309L68.1451 41.4739L67.0494 41.4821ZM69.4752 41.464L69.4685 40.6048L71.8757 40.5869L69.0717 36.5237L70.2877 36.5146L71.6949 38.6748L73.2771 40.9292L73.281 41.4355L69.4752 41.464ZM71.9256 39.524L71.2465 38.6574L72.3089 36.4995L73.5291 36.4904L71.9256 39.524ZM74.9182 39.2775L74.9032 37.3352L74.0773 37.3413L74.0707 36.4864L75.9881 36.472L76.0098 39.2693L74.9182 39.2775ZM79.2498 41.4906C78.9897 41.4925 78.7045 41.4684 78.3942 41.4181C78.0839 41.3706 77.7873 41.2981 77.5043 41.2006L77.7056 40.3981C77.9718 40.4736 78.2365 40.5297 78.4997 40.5665C78.7656 40.6032 78.9926 40.6209 79.1808 40.6195C79.6013 40.6108 79.9201 40.5074 80.1371 40.3094C80.3542 40.1113 80.4613 39.8255 80.4584 39.452L80.4417 37.2938L78.7733 37.3063C78.7025 37.4645 78.6485 37.6365 78.6112 37.8221C78.5739 38.0078 78.556 38.1961 78.5575 38.387L78.5598 38.6817C78.6208 38.7006 78.6956 38.7139 78.7842 38.7215C78.8728 38.7291 78.9725 38.7312 79.0831 38.7276L79.0893 39.5244C78.8708 39.5454 78.6675 39.5511 78.4793 39.5414C78.2938 39.5318 78.1207 39.504 77.9598 39.4582C77.799 39.4096 77.649 39.3456 77.5101 39.2664L77.4977 38.7353C77.4956 38.4641 77.524 38.2024 77.5829 37.9502C77.6418 37.6952 77.7259 37.4829 77.8353 37.3133L77.2875 37.3174L77.2808 36.4624L81.5266 36.4307L81.5486 39.2736C81.5526 39.7855 81.4534 40.2055 81.2512 40.5335C81.049 40.8587 80.7741 41.0987 80.4267 41.2535C80.0792 41.4083 79.6869 41.4873 79.2498 41.4906ZM53.6319 47.6393L57.7698 47.6084L57.7764 48.4633L56.9256 48.4697L56.9572 52.5577L55.8615 52.5659L55.8299 48.4779L53.6385 48.4942L53.6319 47.6393ZM59.2004 50.3952L59.1853 48.4528L58.3594 48.459L58.3528 47.604L60.2702 47.5897L60.2919 50.387L59.2004 50.3952ZM65.0501 52.4973L61.5215 47.5804L62.7417 47.5713L66.262 52.4883L65.0501 52.4973ZM61.7506 52.5219L61.7375 50.8245C61.7337 50.3347 61.8165 49.9467 61.9858 49.6605C62.1579 49.3742 62.4344 49.1618 62.8152 49.0234L63.2179 49.5724C62.9285 49.7295 62.7853 49.9948 62.7882 50.3684L62.8048 52.5141L61.7506 52.5219ZM66.2653 47.5449L64.6289 50.6244L63.9126 49.7747L65.0409 47.5541L66.2653 47.5449ZM67.5755 52.4784L67.5439 48.3904L67.0583 48.394L67.0517 47.5391L68.6329 47.5273L68.6712 52.4703L67.5755 52.4784ZM71.9934 52.4455L71.9676 49.1086C71.9658 48.8707 71.8952 48.6872 71.7558 48.5582C71.6192 48.4264 71.4264 48.3614 71.1774 48.3633L69.621 48.3749L69.6144 47.5199L71.2413 47.5078C71.8057 47.5036 72.2482 47.6469 72.5687 47.9378C72.8919 48.2287 73.0555 48.637 73.0596 49.1627L73.085 52.4373L71.9934 52.4455ZM76.5532 52.5069C76.1354 52.51 75.7695 52.427 75.4555 52.2577C75.1415 52.0858 74.8962 51.8455 74.7194 51.5369C74.5455 51.2255 74.4569 50.8637 74.4537 50.4514L74.4307 47.484L75.5181 47.4759L75.5419 50.5554C75.5445 50.8874 75.6379 51.1565 75.8221 51.3626C76.0063 51.566 76.2465 51.6666 76.5425 51.6644C76.8386 51.6622 77.0757 51.558 77.254 51.3519C77.435 51.1431 77.5242 50.8726 77.5216 50.5406L77.5099 49.0257C77.5081 48.7906 77.4555 48.6125 77.3522 48.4915C77.2489 48.3678 77.0962 48.3066 76.8942 48.3081C76.8195 48.3087 76.7394 48.319 76.6537 48.339C76.5681 48.3562 76.4797 48.3804 76.3887 48.4115L76.2587 47.7069C76.4019 47.6173 76.5632 47.5469 76.7427 47.4958C76.9221 47.4419 77.0921 47.4143 77.2526 47.4131C77.6676 47.41 77.9951 47.5431 78.2352 47.8125C78.4752 48.0819 78.5971 48.4545 78.6008 48.9304L78.6123 50.4204C78.6155 50.8327 78.5311 51.1958 78.3593 51.5097C78.1901 51.8209 77.9499 52.0648 77.6386 52.2414C77.33 52.4153 76.9682 52.5038 76.5532 52.5069ZM82.0128 52.4661C81.5867 52.4693 81.2111 52.3766 80.8859 52.1881C80.5607 51.9996 80.3054 51.7331 80.1201 51.3887C79.9348 51.0442 79.8377 50.6423 79.8286 50.183L79.8215 49.8012C79.82 49.6186 79.8435 49.4331 79.8919 49.2445C79.9402 49.0532 80.0066 48.8784 80.0912 48.7201C80.1785 48.5589 80.2743 48.4337 80.3788 48.3444C80.3898 48.336 80.3994 48.3276 80.4077 48.3193C80.4186 48.3081 80.4296 48.2997 80.4407 48.2941L80.4322 48.2776C80.341 48.2921 80.2236 48.3179 80.08 48.3549C79.9392 48.3919 79.8122 48.4261 79.699 48.4574L79.4894 47.6579C79.7075 47.5898 79.9492 47.5313 80.2144 47.4823C80.4824 47.4305 80.7547 47.3911 81.0312 47.3641C81.3104 47.3344 81.5718 47.3186 81.8152 47.3168C82.3077 47.3131 82.7276 47.4013 83.0749 47.5813C83.4222 47.7586 83.6884 48.0195 83.8737 48.3639C84.059 48.7057 84.1535 49.1256 84.1574 49.6236L84.1615 50.1507C84.165 50.61 84.0782 51.0132 83.9011 51.3604C83.7239 51.7076 83.4728 51.9779 83.1478 52.1713C82.8255 52.3646 82.4472 52.4629 82.0128 52.4661ZM82.0017 51.5614C82.2175 51.5598 82.4052 51.5003 82.5648 51.3829C82.7271 51.2654 82.8531 51.1026 82.9428 50.8944C83.0325 50.6862 83.0763 50.4438 83.0742 50.1671L83.0701 49.6483C83.0678 49.344 83.0215 49.0842 82.9313 48.869C82.8439 48.6539 82.7167 48.4902 82.5498 48.378C82.3829 48.2658 82.1846 48.2105 81.955 48.2122C81.7364 48.2139 81.5501 48.2748 81.3961 48.3949C81.242 48.5123 81.123 48.6833 81.039 48.9081C80.9577 49.1328 80.9155 49.4057 80.9125 49.7267L80.916 50.1832C80.9182 50.4599 80.9643 50.7017 81.0544 50.9085C81.1474 51.1154 81.2745 51.2763 81.4359 51.3913C81.6 51.5063 81.7886 51.563 82.0017 51.5614ZM88.7749 52.3202L85.2462 47.4032L86.4664 47.3941L89.9868 52.3111L88.7749 52.3202ZM85.4754 52.3448L85.4623 50.6473C85.4585 50.1576 85.5413 49.7696 85.7106 49.4833C85.8827 49.197 86.1592 48.9847 86.5399 48.8463L86.9426 49.3953C86.6533 49.5524 86.5101 49.8177 86.513 50.1912L86.5296 52.3369L85.4754 52.3448ZM89.99 47.3678L88.3537 50.4473L87.6373 49.5976L88.7657 47.3769L89.99 47.3678Z" fill="white"/>
<path d="M106.397 66.0491L106.382 64.1067L105.556 64.1129L105.549 63.2579L107.467 63.2436L107.489 66.0409L106.397 66.0491ZM108.566 68.2244C108.524 68.2247 108.48 68.2236 108.433 68.2212C108.386 68.2188 108.34 68.215 108.296 68.2098L108.288 67.2179C108.346 67.2257 108.403 67.2322 108.459 67.2373C108.517 67.2424 108.571 67.2448 108.62 67.2444C108.858 67.2371 109.064 67.1913 109.238 67.107C109.414 67.0227 109.56 66.9054 109.675 66.7551C109.79 66.6048 109.876 66.4312 109.933 66.2344L109.916 64.0804L108.824 64.0885L108.818 63.2335L110.984 63.2174L111.004 65.7407C111.006 66.0064 111.035 66.2649 111.093 66.5162L111.442 68.1572L110.429 68.1648L110.128 66.8638L110.099 66.864C110.062 67.1105 109.973 67.3367 109.831 67.5425C109.688 67.7484 109.508 67.913 109.291 68.0363C109.073 68.1597 108.831 68.2224 108.566 68.2244ZM112.738 68.1475L112.707 64.0595L112.221 64.0631L112.215 63.2082L113.796 63.1964L113.834 68.1394L112.738 68.1475ZM117.435 68.2079C117.009 68.2111 116.633 68.1185 116.308 67.93C115.983 67.7415 115.728 67.475 115.543 67.1305C115.357 66.786 115.26 66.3841 115.251 65.9249L115.244 65.5431C115.242 65.3604 115.266 65.1749 115.314 64.9864C115.363 64.7951 115.429 64.6203 115.514 64.4619C115.601 64.3008 115.697 64.1755 115.801 64.0862C115.812 64.0778 115.822 64.0695 115.83 64.0611C115.841 64.0499 115.852 64.0416 115.863 64.0359L115.855 64.0194C115.763 64.0339 115.646 64.0597 115.502 64.0967C115.362 64.1338 115.235 64.1679 115.121 64.1992L114.912 63.3997C115.13 63.3317 115.372 63.2731 115.637 63.2241C115.905 63.1723 116.177 63.1329 116.454 63.106C116.733 63.0762 116.994 63.0604 117.238 63.0586C117.73 63.0549 118.15 63.1431 118.497 63.3231C118.845 63.5004 119.111 63.7613 119.296 64.1058C119.481 64.4475 119.576 64.8674 119.58 65.3654L119.584 65.8925C119.587 66.3518 119.501 66.7551 119.323 67.1023C119.146 67.4495 118.895 67.7197 118.57 67.9131C118.248 68.1064 117.87 68.2047 117.435 68.2079ZM117.424 67.3032C117.64 67.3016 117.828 67.2421 117.987 67.1247C118.149 67.0073 118.276 66.8444 118.365 66.6362C118.455 66.4281 118.499 66.1856 118.497 65.9089L118.493 65.3901C118.49 65.0858 118.444 64.826 118.354 64.6109C118.266 64.3957 118.139 64.232 117.972 64.1198C117.805 64.0076 117.607 63.9524 117.377 63.9541C117.159 63.9557 116.972 64.0166 116.818 64.1367C116.664 64.2541 116.545 64.4252 116.461 64.6499C116.38 64.8746 116.338 65.1475 116.335 65.4685L116.338 65.925C116.341 66.2017 116.387 66.4435 116.477 66.6503C116.57 66.8572 116.697 67.0181 116.858 67.1331C117.022 67.2481 117.211 67.3048 117.424 67.3032ZM90.8129 79.3116L90.7747 74.3686L94.8835 74.3379L94.9217 79.2809L90.8129 79.3116ZM91.8978 78.4443L93.8236 78.4299L93.7986 75.201L91.8728 75.2154L91.8978 78.4443ZM96.7415 77.1215L96.7265 75.1791L95.9006 75.1853L95.894 74.3303L97.8114 74.316L97.8331 77.1133L96.7415 77.1215ZM98.7887 74.3087L102.927 74.2778L102.933 75.1328L102.082 75.1391L102.114 79.2272L101.018 79.2354L100.987 75.1473L98.7954 75.1637L98.7887 74.3087ZM104.357 77.0646L104.342 75.1223L103.516 75.1284L103.51 74.2735L105.427 74.2592L105.449 77.0565L104.357 77.0646ZM110.207 79.1668L106.678 74.2498L107.898 74.2407L111.419 79.1577L110.207 79.1668ZM106.907 79.1914L106.894 77.4939C106.891 77.0042 106.973 76.6162 107.143 76.3299C107.315 76.0436 107.591 75.8313 107.972 75.6928L108.375 76.2419C108.085 76.399 107.942 76.6643 107.945 77.0378L107.962 79.1835L106.907 79.1914ZM111.422 74.2144L109.786 77.2939L109.069 76.4442L110.198 74.2235L111.422 74.2144ZM112.732 79.1479L112.701 75.0599L112.215 75.0635L112.208 74.2085L113.79 74.1967L113.828 79.1397L112.732 79.1479ZM117.15 79.1149L117.124 75.7781C117.123 75.5401 117.052 75.3566 116.913 75.2276C116.776 75.0958 116.583 75.0309 116.334 75.0327L114.778 75.0444L114.771 74.1894L116.398 74.1772C116.963 74.173 117.405 74.3164 117.725 74.6073C118.049 74.8982 118.212 75.3065 118.216 75.8322L118.242 79.1068L117.15 79.1149ZM121.71 79.1763C121.292 79.1795 120.926 79.0964 120.612 78.9272C120.298 78.7552 120.053 78.5149 119.876 78.2063C119.702 77.895 119.614 77.5332 119.611 77.1209L119.588 74.1534L120.675 74.1453L120.699 77.2248C120.701 77.5569 120.795 77.8259 120.979 78.0321C121.163 78.2355 121.403 78.3361 121.699 78.3339C121.995 78.3316 122.233 78.2275 122.411 78.0214C122.592 77.8125 122.681 77.5421 122.678 77.21L122.667 75.6952C122.665 75.46 122.612 75.2819 122.509 75.161C122.406 75.0372 122.253 74.9761 122.051 74.9776C121.976 74.9782 121.896 74.9884 121.811 75.0084C121.725 75.0257 121.637 75.0499 121.545 75.081L121.416 74.3764C121.559 74.2868 121.72 74.2164 121.9 74.1652C122.079 74.1113 122.249 74.0838 122.409 74.0826C122.824 74.0795 123.152 74.2126 123.392 74.482C123.632 74.7513 123.754 75.124 123.758 75.5999L123.769 77.0898C123.772 77.5021 123.688 77.8652 123.516 78.1792C123.347 78.4903 123.107 78.7342 122.795 78.9109C122.487 79.0848 122.125 79.1732 121.71 79.1763ZM127.17 79.1356C126.744 79.1387 126.368 79.0461 126.043 78.8576C125.717 78.6691 125.462 78.4026 125.277 78.0581C125.092 77.7136 124.994 77.3117 124.985 76.8525L124.978 76.4707C124.977 76.2881 125 76.1025 125.049 75.914C125.097 75.7227 125.163 75.5479 125.248 75.3895C125.335 75.2284 125.431 75.1032 125.536 75.0138C125.547 75.0055 125.556 74.9971 125.564 74.9887C125.575 74.9776 125.586 74.9692 125.598 74.9636L125.589 74.947C125.498 74.9615 125.38 74.9873 125.237 75.0244C125.096 75.0614 124.969 75.0955 124.856 75.1268L124.646 74.3273C124.864 74.2593 125.106 74.2008 125.371 74.1518C125.639 74.0999 125.911 74.0606 126.188 74.0336C126.467 74.0038 126.729 73.988 126.972 73.9862C127.465 73.9826 127.884 74.0707 128.232 74.2508C128.579 74.428 128.845 74.6889 129.031 75.0334C129.216 75.3751 129.31 75.795 129.314 76.293L129.318 76.8201C129.322 77.2794 129.235 77.6827 129.058 78.0299C128.881 78.3771 128.63 78.6474 128.305 78.8407C127.982 79.034 127.604 79.1323 127.17 79.1356ZM127.158 78.2308C127.374 78.2292 127.562 78.1697 127.722 78.0523C127.884 77.9349 128.01 77.7721 128.1 77.5639C128.189 77.3557 128.233 77.1132 128.231 76.8365L128.227 76.3178C128.225 76.0134 128.178 75.7537 128.088 75.5385C128.001 75.3233 127.874 75.1596 127.707 75.0474C127.54 74.9352 127.341 74.88 127.112 74.8817C126.893 74.8833 126.707 74.9442 126.553 75.0643C126.399 75.1817 126.28 75.3528 126.196 75.5775C126.115 75.8023 126.072 76.0751 126.069 76.3961L126.073 76.8527C126.075 77.1293 126.121 77.3711 126.211 77.578C126.304 77.7848 126.431 77.9457 126.593 78.0607C126.757 78.1757 126.945 78.2324 127.158 78.2308ZM133.932 78.9896L130.403 74.0727L131.623 74.0636L135.144 78.9806L133.932 78.9896ZM130.632 79.0143L130.619 77.3168C130.615 76.827 130.698 76.439 130.867 76.1528C131.04 75.8665 131.316 75.6541 131.697 75.5157L132.099 76.0647C131.81 76.2218 131.667 76.4872 131.67 76.8607L131.686 79.0064L130.632 79.0143ZM135.147 74.0373L133.51 77.1167L132.794 76.2671L133.923 74.0464L135.147 74.0373Z" fill="white"/>
<defs>
<linearGradient id="paint0_linear_66_1356" x1="1003.43" y1="721.715" x2="-249.146" y2="2408.05" gradientUnits="userSpaceOnUse">
<stop stop-color="#D5D5D5"/>
<stop offset="1" stop-color="#8D8D8D"/>
</linearGradient>
<linearGradient id="paint1_linear_66_1356" x1="1042.22" y1="733.427" x2="-210.358" y2="2419.76" gradientUnits="userSpaceOnUse">
<stop stop-color="#D5D5D5"/>
<stop offset="1" stop-color="#8D8D8D"/>
</linearGradient>
<linearGradient id="paint2_linear_66_1356" x1="1042.22" y1="733.427" x2="-210.358" y2="2419.76" gradientUnits="userSpaceOnUse">
<stop stop-color="#D5D5D5"/>
<stop offset="1" stop-color="#8D8D8D"/>
</linearGradient>
<linearGradient id="paint3_linear_66_1356" x1="1080.77" y1="758.812" x2="-171.802" y2="2445.15" gradientUnits="userSpaceOnUse">
<stop stop-color="#D5D5D5"/>
<stop offset="1" stop-color="#8D8D8D"/>
</linearGradient>
</defs>
</svg>
