<svg width="229" height="87" viewBox="0 0 229 87" fill="none" xmlns="http://www.w3.org/2000/svg">
<path d="M41.7566 19.1062L80.8256 29.5756L121.961 57.5628L173.592 57.1748L203.053 28.6571" stroke="#CDCDCD" stroke-width="1.73592"/>
<path d="M35.1384 1.44894C38.6444 17.6657 38.6444 17.6657 55.3752 16.4429C38.6444 17.6657 38.6444 17.6657 42.1504 33.8825C38.6444 17.6657 38.6444 17.6657 21.9135 18.8886C38.6444 17.6657 38.6444 17.6657 35.1384 1.44894Z" fill="url(#paint0_linear_208_920)" stroke="#565555" stroke-width="0.347079"/>
<path d="M75.6256 13.6438C79.1316 29.8605 79.1316 29.8605 95.8625 28.6377C79.1316 29.8605 79.1316 29.8605 82.6376 46.0773C79.1316 29.8605 79.1316 29.8605 62.4008 31.0834C79.1316 29.8605 79.1316 29.8605 75.6256 13.6438Z" fill="url(#paint1_linear_208_920)" stroke="#565555" stroke-width="0.347079"/>
<path d="M75.6256 13.6438C79.1316 29.8605 79.1316 29.8605 95.8625 28.6377C79.1316 29.8605 79.1316 29.8605 82.6376 46.0773C79.1316 29.8605 79.1316 29.8605 62.4008 31.0834C79.1316 29.8605 79.1316 29.8605 75.6256 13.6438Z" fill="url(#paint2_linear_208_920)" stroke="#565555" stroke-width="0.347079"/>
<path d="M172.778 40.6892C176.284 56.9059 176.284 56.9059 193.015 55.6831C176.284 56.9059 176.284 56.9059 179.79 73.1227C176.284 56.9059 176.284 56.9059 159.553 58.1288C176.284 56.9059 176.284 56.9059 172.778 40.6892Z" fill="url(#paint3_linear_208_920)" stroke="#565555" stroke-width="0.347079"/>
<path d="M115.871 40.0753C119.377 56.292 119.377 56.292 136.108 55.0692C119.377 56.292 119.377 56.292 122.883 72.5088C119.377 56.292 119.377 56.292 102.646 57.5149C119.377 56.292 119.377 56.292 115.871 40.0753Z" fill="url(#paint4_linear_208_920)" stroke="#565555" stroke-width="0.347079"/>
<path d="M196.448 12.7358C199.954 28.9526 199.954 28.9526 216.685 27.7297C199.954 28.9526 199.954 28.9526 203.46 45.1693C199.954 28.9526 199.954 28.9526 183.223 30.1754C199.954 28.9526 199.954 28.9526 196.448 12.7358Z" fill="url(#paint5_linear_208_920)" stroke="#565555" stroke-width="0.347079"/>
<path d="M21.6404 29.2576L21.6097 25.266L21.1356 25.2696L21.1292 24.4348L22.6731 24.4232L22.7102 29.2496L21.6404 29.2576ZM26.9104 29.218L26.8867 26.1382C26.8843 25.8248 26.8069 25.5958 26.6545 25.451C26.5021 25.3036 26.2651 25.231 25.9436 25.2335L24.0471 25.2477L24.0407 24.4129L26.0061 24.3982C26.6274 24.3935 27.1055 24.5439 27.4401 24.8494C27.7775 25.1521 27.9484 25.5926 27.9528 26.1707L27.9762 29.21L26.9104 29.218ZM24.0697 29.2393L24.057 27.586C24.0546 27.2753 24.0839 27.0441 24.1449 26.8923C24.2085 26.7406 24.2631 26.628 24.3084 26.5547L25.1635 26.5483C25.14 26.662 25.1208 26.7931 25.1057 26.9418C25.0906 27.0906 25.0839 27.2703 25.0855 27.481L25.099 29.2316L24.0697 29.2393ZM29.2789 29.2002L29.5933 26.3448C29.6186 26.1231 29.6751 25.9133 29.7628 25.7154C29.8504 25.5175 29.9546 25.3641 30.0753 25.2551C30.0834 25.2469 30.0927 25.2388 30.1035 25.2306C30.1169 25.2197 30.129 25.2101 30.1397 25.2019L30.1315 25.1898C30.0209 25.2069 29.8847 25.239 29.723 25.2861C29.5612 25.3306 29.4197 25.3762 29.2985 25.423L29.0615 24.6427C29.2689 24.5655 29.4981 24.4989 29.7489 24.443C30.0024 24.3843 30.2614 24.3378 30.5259 24.3034C30.7931 24.269 31.0456 24.2509 31.2834 24.2491C31.9831 24.2438 32.5167 24.4222 32.8842 24.7842C33.2544 25.1434 33.4435 25.6756 33.4517 26.3807L33.4731 29.1687L31.4105 29.1842L31.404 28.3494L32.405 28.3419L32.3848 26.2509C32.382 25.8862 32.3015 25.6072 32.1434 25.4138C31.9878 25.2178 31.7669 25.1208 31.4805 25.123C31.2374 25.1248 31.0423 25.2208 30.8951 25.411C30.7507 25.6012 30.6609 25.8667 30.6257 26.2074L30.3325 29.1923L29.2789 29.2002ZM8.80698 38.5915C8.80775 38.3402 8.82773 38.128 8.86692 37.9548C8.90609 37.7789 8.97107 37.6203 9.06184 37.4792C9.15529 37.3353 9.28114 37.1871 9.43936 37.0346C9.56274 36.9175 9.67267 36.8072 9.76913 36.7038C9.86828 36.5977 9.94578 36.4877 10.0016 36.3738C10.0602 36.2572 10.0889 36.1246 10.0877 35.976C10.0859 35.7329 10.0237 35.5469 9.90108 35.4182C9.78122 35.2894 9.60512 35.2259 9.37278 35.2276C9.18367 35.2291 9.01257 35.2884 8.85947 35.4057C8.70906 35.5204 8.63348 35.7046 8.63273 35.9586L7.59127 35.9664C7.59398 35.6152 7.67277 35.3215 7.82765 35.0852C7.98524 34.849 8.19731 34.6718 8.46387 34.5536C8.73311 34.4327 9.03388 34.371 9.36618 34.3685C9.9173 34.3644 10.3466 34.499 10.654 34.7722C10.964 35.0428 11.121 35.4279 11.1248 35.9277C11.1267 36.1655 11.081 36.3792 10.9879 36.5691C10.8975 36.7589 10.7773 36.9367 10.6273 37.1027C10.4773 37.2659 10.3151 37.4306 10.1407 37.5967C9.98778 37.7329 9.88624 37.8796 9.83612 38.0366C9.786 38.1937 9.75903 38.3763 9.75523 38.5843L8.80698 38.5915ZM9.31932 40.3951C9.13831 40.3964 8.99472 40.3448 8.88855 40.2403C8.78238 40.1357 8.72869 40.0051 8.72749 39.8484C8.72626 39.689 8.77792 39.5562 8.88248 39.4501C8.98701 39.3412 9.12977 39.2861 9.31078 39.2847C9.49448 39.2834 9.63943 39.3363 9.74563 39.4436C9.8518 39.5481 9.9055 39.6801 9.90672 39.8395C9.90793 39.9962 9.85625 40.1276 9.7517 40.2338C9.64715 40.3399 9.50302 40.3937 9.31932 40.3951ZM11.7598 35.5055L15.8 35.4752L15.8064 36.31L14.9757 36.3162L15.0064 40.3078L13.9365 40.3158L13.9058 36.3242L11.7662 36.3403L11.7598 35.5055ZM17.1967 38.1961L17.1821 36.2996L16.3757 36.3057L16.3693 35.4709L18.2414 35.4568L18.2625 38.1881L17.1967 38.1961ZM22.9083 40.2484L19.4631 35.4476L20.6545 35.4387L24.0916 40.2395L22.9083 40.2484ZM19.6867 40.2726L19.6739 38.6152C19.6702 38.137 19.7511 37.7582 19.9164 37.4786C20.0845 37.1991 20.3544 36.9917 20.7262 36.8566L21.1194 37.3926C20.8369 37.546 20.6971 37.8051 20.6999 38.1698L20.716 40.2649L19.6867 40.2726ZM24.095 35.4128L22.4971 38.4197L21.7977 37.5901L22.8995 35.4218L24.095 35.4128ZM25.3741 40.2298L25.3434 36.2383L24.8692 36.2418L24.8628 35.4071L26.4068 35.3955L26.4439 40.2218L25.3741 40.2298ZM29.6877 40.1974L29.6627 36.9393C29.6609 36.707 29.592 36.5279 29.4559 36.4019C29.3225 36.2732 29.1343 36.2098 28.8911 36.2116L27.3715 36.223L27.3651 35.3883L28.9536 35.3763C29.5047 35.3722 29.9367 35.5121 30.2496 35.7962C30.5652 36.0802 30.725 36.4788 30.7289 36.9921L30.7535 40.1894L29.6877 40.1974ZM34.1399 40.2572C33.7319 40.2602 33.3747 40.1792 33.0681 40.014C32.7615 39.8461 32.522 39.6115 32.3494 39.3102C32.1796 39.0062 32.0931 38.6529 32.09 38.2503L32.0677 35.3529L33.1295 35.3449L33.1526 38.3518C33.1551 38.676 33.2463 38.9387 33.4261 39.14C33.606 39.3386 33.8404 39.4368 34.1295 39.4346C34.4186 39.4324 34.6501 39.3307 34.8242 39.1295C35.0009 38.9255 35.0881 38.6614 35.0856 38.3373L35.0742 36.8582C35.0724 36.6285 35.0211 36.4546 34.9202 36.3365C34.8193 36.2157 34.6703 36.156 34.4731 36.1575C34.4001 36.1581 34.3219 36.1681 34.2382 36.1877C34.1546 36.2045 34.0684 36.2281 33.9794 36.2585L33.8526 35.5705C33.9924 35.483 34.1499 35.4143 34.3251 35.3643C34.5003 35.3117 34.6663 35.2848 34.823 35.2836C35.2282 35.2805 35.548 35.4105 35.7824 35.6735C36.0168 35.9365 36.1357 36.3004 36.1393 36.765L36.1505 38.2198C36.1536 38.6224 36.0712 38.9769 35.9034 39.2835C35.7382 39.5873 35.5036 39.8255 35.1996 39.998C34.8984 40.1677 34.5451 40.2541 34.1399 40.2572ZM39.4707 40.2171C39.0546 40.2202 38.6878 40.1298 38.3703 39.9458C38.0528 39.7617 37.8036 39.5015 37.6227 39.1652C37.4418 38.8288 37.3469 38.4364 37.3381 37.988L37.3311 37.6152C37.3298 37.4369 37.3527 37.2557 37.3999 37.0717C37.4471 36.8849 37.512 36.7142 37.5945 36.5596C37.6798 36.4022 37.7734 36.28 37.8754 36.1927C37.8861 36.1846 37.8955 36.1764 37.9036 36.1682C37.9143 36.1573 37.9251 36.1491 37.9358 36.1437L37.9276 36.1275C37.8385 36.1417 37.7239 36.1669 37.5837 36.203C37.4462 36.2392 37.3222 36.2725 37.2116 36.3031L37.007 35.5225C37.22 35.456 37.4559 35.3989 37.7149 35.351C37.9766 35.3004 38.2424 35.2619 38.5124 35.2356C38.7851 35.2065 39.0402 35.1911 39.278 35.1893C39.7589 35.1857 40.1688 35.2718 40.5079 35.4475C40.847 35.6206 41.1069 35.8753 41.2878 36.2117C41.4687 36.5453 41.561 36.9553 41.5648 37.4416L41.5687 37.9562C41.5722 38.4047 41.4874 38.7984 41.3144 39.1374C41.1414 39.4765 40.8962 39.7404 40.5788 39.9292C40.2642 40.118 39.8948 40.2139 39.4707 40.2171ZM39.4598 39.3337C39.6705 39.3322 39.8538 39.274 40.0096 39.1594C40.1681 39.0447 40.2912 38.8858 40.3788 38.6825C40.4664 38.4792 40.5091 38.2425 40.5071 37.9723L40.5032 37.4658C40.5009 37.1686 40.4557 36.915 40.3676 36.7049C40.2823 36.4948 40.1581 36.335 39.9952 36.2254C39.8322 36.1159 39.6386 36.062 39.4144 36.0636C39.201 36.0653 39.0191 36.1247 38.8687 36.242C38.7183 36.3566 38.602 36.5236 38.5199 36.7431C38.4406 36.9625 38.3994 37.229 38.3964 37.5424L38.3998 37.9881C38.4019 38.2583 38.447 38.4944 38.535 38.6963C38.6257 38.8983 38.7498 39.0554 38.9074 39.1677C39.0676 39.28 39.2518 39.3353 39.4598 39.3337ZM46.0732 40.0743L42.628 35.2736L43.8194 35.2646L47.2565 40.0654L46.0732 40.0743ZM42.8515 40.0985L42.8388 38.4411C42.8351 37.9629 42.916 37.5841 43.0813 37.3046C43.2494 37.025 43.5193 36.8177 43.8911 36.6825L44.2843 37.2185C44.0018 37.3719 43.8619 37.631 43.8647 37.9957L43.8808 40.0908L42.8515 40.0985ZM47.2599 35.2388L45.6619 38.2456L44.9626 37.416L46.0644 35.2477L47.2599 35.2388Z" fill="white"/>
<path d="M66.5921 45.6475L66.5674 42.4359C66.5659 42.2428 66.5098 42.066 66.399 41.9055L64.2045 38.7188L65.471 38.7093L66.8974 40.9421L67.3563 41.5957C67.4583 41.739 67.5314 41.8854 67.5758 42.0349C67.6202 42.1845 67.6431 42.3543 67.6446 42.5445L67.6684 45.6394L66.5921 45.6475ZM67.1767 41.8434L66.4694 40.9409L67.5761 38.6934L68.8469 38.6839L67.1767 41.8434ZM70.0038 43.8236L69.971 39.5659L69.4653 39.5697L69.4584 38.6793L71.1053 38.6669L71.1449 43.815L70.0038 43.8236ZM72.5302 43.8046L72.5233 42.9099L75.0303 42.891L72.1102 38.6594L73.3767 38.6499L74.8421 40.8996L76.4899 43.2475L76.4939 43.7748L72.5302 43.8046ZM75.0823 41.784L74.3751 40.8815L75.4818 38.634L76.7526 38.6245L75.0823 41.784ZM78.1992 41.5272L78.1836 39.5042L77.3234 39.5107L77.3166 38.6202L79.3136 38.6052L79.336 41.5186L78.1992 41.5272ZM82.7103 43.8319C82.4394 43.8339 82.1424 43.8088 81.8192 43.7564C81.4961 43.707 81.1872 43.6315 80.8924 43.53L81.1021 42.6941C81.3794 42.7727 81.6551 42.8311 81.9291 42.8694C82.2061 42.9077 82.4425 42.9261 82.6385 42.9246C83.0765 42.9156 83.4085 42.8079 83.6346 42.6016C83.8606 42.3953 83.9722 42.0976 83.9692 41.7086L83.9519 39.4609L82.2143 39.4739C82.1406 39.6387 82.0843 39.8178 82.0455 40.0112C82.0066 40.2046 81.988 40.4007 81.9895 40.5995L81.9918 40.9064C82.0554 40.9261 82.1333 40.94 82.2256 40.9479C82.3179 40.9559 82.4216 40.958 82.5369 40.9542L82.5433 41.7841C82.3158 41.806 82.104 41.8119 81.908 41.8019C81.7148 41.7918 81.5345 41.7629 81.3669 41.7152C81.1994 41.6645 81.0433 41.598 80.8985 41.5155L80.8856 40.9623C80.8835 40.6799 80.9131 40.4073 80.9745 40.1446C81.0358 39.879 81.1235 39.6579 81.2374 39.4813L80.6668 39.4856L80.6599 38.5951L85.0819 38.5619L85.1046 41.5228C85.1087 42.0559 85.0055 42.4933 84.7949 42.8349C84.5842 43.1737 84.2979 43.4237 83.9361 43.5849C83.5742 43.7461 83.1656 43.8284 82.7103 43.8319ZM56.0257 49.7806L60.3352 49.7482L60.3421 50.6386L59.4559 50.6453L59.4887 54.9029L58.3476 54.9115L58.3148 50.6538L56.0325 50.671L56.0257 49.7806ZM61.825 52.6505L61.8095 50.6276L60.9493 50.634L60.9424 49.7436L62.9394 49.7286L62.9618 52.642L61.825 52.6505ZM67.9174 54.8396L64.2426 49.7188L65.5134 49.7093L69.1796 54.8301L67.9174 54.8396ZM64.481 54.8654L64.4674 53.0975C64.4635 52.5875 64.5497 52.1834 64.7261 51.8852C64.9054 51.587 65.1933 51.3658 65.5899 51.2216L66.0093 51.7934C65.7079 51.9571 65.5588 52.2334 65.5617 52.6224L65.5789 54.8572L64.481 54.8654ZM69.1832 49.6817L67.4788 52.889L66.7328 52.0041L67.9081 49.6913L69.1832 49.6817ZM70.5476 54.8198L70.5148 50.5622L70.0091 50.566L70.0022 49.6755L71.6491 49.6631L71.6887 54.8113L70.5476 54.8198ZM75.1488 54.7852L75.1221 51.31C75.1202 51.0621 75.0466 50.871 74.9015 50.7367C74.7593 50.5994 74.5585 50.5318 74.2991 50.5337L72.6782 50.5459L72.6713 49.6555L74.3657 49.6427C74.9536 49.6383 75.4144 49.7876 75.7481 50.0906C76.0848 50.3935 76.2552 50.8187 76.2594 51.3662L76.2856 54.7767L75.1488 54.7852ZM79.8978 54.849C79.4626 54.8523 79.0816 54.7658 78.7546 54.5896C78.4275 54.4105 78.172 54.1602 77.988 53.8388C77.8068 53.5146 77.7146 53.1377 77.7113 52.7084L77.6875 49.6178L78.82 49.6093L78.8447 52.8166C78.8473 53.1624 78.9446 53.4426 79.1364 53.6573C79.3283 53.8691 79.5783 53.9739 79.8867 53.9715C80.195 53.9692 80.442 53.8607 80.6277 53.6461C80.8162 53.4285 80.9092 53.1469 80.9065 52.8011L80.8944 51.2233C80.8925 50.9784 80.8377 50.7929 80.7301 50.6669C80.6225 50.5381 80.4635 50.4744 80.2532 50.476C80.1754 50.4766 80.0919 50.4873 80.0027 50.5082C79.9135 50.5261 79.8215 50.5513 79.7266 50.5837L79.5913 49.8499C79.7404 49.7565 79.9085 49.6832 80.0954 49.6299C80.2823 49.5738 80.4593 49.5451 80.6264 49.5438C81.0587 49.5406 81.3998 49.6792 81.6498 49.9598C81.8998 50.2403 82.0267 50.6284 82.0305 51.124L82.0424 52.6758C82.0457 53.1052 81.9579 53.4834 81.7788 53.8104C81.6026 54.1344 81.3524 54.3885 81.0282 54.5725C80.7068 54.7536 80.33 54.8457 79.8978 54.849ZM85.5839 54.8063C85.1402 54.8096 84.7489 54.7131 84.4102 54.5168C84.0716 54.3205 83.8057 54.043 83.6128 53.6842C83.4198 53.3254 83.3186 52.9069 83.3092 52.4285L83.3018 52.0309C83.3003 51.8407 83.3248 51.6474 83.3751 51.4511C83.4255 51.2519 83.4947 51.0698 83.5827 50.9049C83.6737 50.737 83.7735 50.6066 83.8823 50.5136C83.8938 50.5048 83.9038 50.4961 83.9124 50.4874C83.9238 50.4758 83.9353 50.4671 83.9468 50.4612L83.938 50.444C83.843 50.4591 83.7207 50.486 83.5712 50.5246C83.4245 50.5631 83.2922 50.5987 83.1743 50.6313L82.9561 49.7986C83.1832 49.7278 83.4349 49.6668 83.7112 49.6157C83.9903 49.5618 84.2738 49.5207 84.5618 49.4926C84.8526 49.4616 85.1248 49.4452 85.3784 49.4433C85.8914 49.4394 86.3287 49.5312 86.6903 49.7187C87.052 49.9033 87.3293 50.175 87.5222 50.5338C87.7152 50.8897 87.8137 51.327 87.8176 51.8457L87.8219 52.3946C87.8255 52.873 87.7351 53.293 87.5506 53.6546C87.366 54.0162 87.1045 54.2977 86.766 54.4991C86.4304 54.7005 86.0364 54.8029 85.5839 54.8063ZM85.5724 53.864C85.7971 53.8623 85.9926 53.8003 86.1588 53.678C86.3279 53.5557 86.4592 53.3861 86.5526 53.1693C86.646 52.9525 86.6916 52.7 86.6894 52.4118L86.6853 51.8715C86.6828 51.5545 86.6346 51.284 86.5407 51.0599C86.4496 50.8358 86.3172 50.6653 86.1434 50.5485C85.9696 50.4316 85.7631 50.3741 85.5239 50.3759C85.2963 50.3776 85.1022 50.441 84.9418 50.5661C84.7814 50.6884 84.6574 50.8665 84.5698 51.1006C84.4852 51.3347 84.4413 51.6189 84.4381 51.9532L84.4417 52.4287C84.4439 52.7168 84.492 52.9686 84.5859 53.1841C84.6826 53.3995 84.815 53.5671 84.9831 53.6869C85.1541 53.8066 85.3505 53.8656 85.5724 53.864ZM92.6266 54.6539L88.9518 49.5331L90.2226 49.5236L93.8888 54.6444L92.6266 54.6539ZM89.1902 54.6797L89.1766 52.9118C89.1727 52.4018 89.2589 51.9977 89.4353 51.6995C89.6146 51.4013 89.9025 51.1802 90.2991 51.036L90.7185 51.6077C90.4171 51.7714 90.268 52.0477 90.2709 52.4367L90.2881 54.6715L89.1902 54.6797ZM93.8924 49.496L92.188 52.7033L91.442 51.8184L92.6173 49.5056L93.8924 49.496Z" fill="white"/>
<path d="M93.6925 70.8098L93.6529 65.6617L97.9322 65.6296L97.9718 70.7777L93.6925 70.8098ZM94.8224 69.9065L96.8281 69.8915L96.8022 66.5286L94.7966 66.5436L94.8224 69.9065ZM99.8672 68.5286L99.8517 66.5056L98.9915 66.5121L98.9846 65.6217L100.982 65.6067L101.004 68.52L99.8672 68.5286ZM102.337 70.7449L102.33 69.8501L104.838 69.8313L101.917 65.5996L103.184 65.5901L104.649 67.8399L106.297 70.1877L106.301 70.7151L102.337 70.7449ZM104.89 68.7243L104.182 67.8218L105.289 65.5743L106.56 65.5647L104.89 68.7243ZM107.492 70.7061L107.485 69.8114L109.992 69.7925L107.072 65.5609L108.338 65.5514L109.804 67.8012L111.452 70.149L111.456 70.6764L107.492 70.7061ZM110.044 68.6855L109.337 67.7831L110.443 65.5356L111.714 65.526L110.044 68.6855ZM112.966 70.665L112.933 66.4073L112.428 66.4111L112.421 65.5207L114.068 65.5083L114.107 70.6564L112.966 70.665ZM117.534 70.7344C117.263 70.7365 116.966 70.7113 116.643 70.659C116.319 70.6095 116.011 70.5341 115.716 70.4325L115.926 69.5967C116.203 69.6753 116.478 69.7337 116.753 69.772C117.029 69.8103 117.266 69.8287 117.462 69.8272C117.9 69.8181 118.232 69.7105 118.458 69.5041C118.684 69.2978 118.796 69.0002 118.793 68.6111L118.775 66.3634L117.038 66.3765C116.964 66.5413 116.908 66.7204 116.869 66.9138C116.83 67.1072 116.811 67.3033 116.813 67.5021L116.815 67.809C116.879 67.8287 116.957 67.8425 117.049 67.8505C117.141 67.8584 117.245 67.8605 117.36 67.8568L117.367 68.6867C117.139 68.7086 116.927 68.7145 116.731 68.7044C116.538 68.6944 116.358 68.6655 116.19 68.6177C116.023 68.5671 115.867 68.5006 115.722 68.4181L115.709 67.8649C115.707 67.5825 115.736 67.3099 115.798 67.0472C115.859 66.7816 115.947 66.5605 116.061 66.3838L115.49 66.3881L115.483 65.4977L119.905 65.4645L119.928 68.4254C119.932 68.9585 119.829 69.3959 119.618 69.7375C119.408 70.0763 119.121 70.3262 118.759 70.4875C118.398 70.6487 117.989 70.731 117.534 70.7344ZM121.468 70.6011L121.804 67.5554C121.831 67.3189 121.891 67.0951 121.985 66.884C122.078 66.6729 122.189 66.5093 122.318 66.393C122.326 66.3843 122.337 66.3756 122.348 66.3669C122.362 66.3552 122.375 66.345 122.387 66.3363L122.378 66.3234C122.26 66.3416 122.115 66.3758 121.942 66.4261C121.77 66.4735 121.619 66.5222 121.489 66.5722L121.237 65.7398C121.458 65.6574 121.702 65.5864 121.97 65.5268C122.24 65.4642 122.516 65.4146 122.799 65.3779C123.084 65.3412 123.353 65.3218 123.606 65.3199C124.353 65.3143 124.922 65.5046 125.314 65.8907C125.709 66.2739 125.911 66.8415 125.919 67.5936L125.942 70.5675L123.742 70.584L123.735 69.6936L124.803 69.6856L124.781 67.4552C124.778 67.0662 124.693 66.7685 124.524 66.5623C124.358 66.3532 124.122 66.2498 123.817 66.2521C123.557 66.254 123.349 66.3564 123.192 66.5594C123.038 66.7622 122.943 67.0454 122.905 67.4088L122.592 70.5927L121.468 70.6011ZM131.623 72.3231L131.576 66.2672L129.199 66.2851L129.192 65.3947L132.689 65.3684L132.742 72.3147L131.623 72.3231ZM134.628 68.2674L134.613 66.2444L133.752 66.2509L133.746 65.3605L135.743 65.3454L135.765 68.2588L134.628 68.2674ZM140.721 70.4564L137.046 65.3357L138.317 65.3261L141.983 70.447L140.721 70.4564ZM137.284 70.4823L137.271 68.7144C137.267 68.2043 137.353 67.8002 137.529 67.502C137.709 67.2039 137.996 66.9827 138.393 66.8385L138.812 67.4103C138.511 67.5739 138.362 67.8503 138.365 68.2393L138.382 70.474L137.284 70.4823ZM141.986 65.2985L140.282 68.5058L139.536 67.621L140.711 65.3081L141.986 65.2985ZM97.7976 79.8989C97.7984 79.6309 97.8198 79.4045 97.8616 79.2198C97.9034 79.0321 97.9727 78.863 98.0695 78.7124C98.1692 78.5589 98.3034 78.4009 98.4722 78.2382C98.6038 78.1133 98.721 77.9957 98.8239 77.8854C98.9297 77.7723 99.0124 77.6549 99.0719 77.5334C99.1344 77.409 99.165 77.2676 99.1638 77.1091C99.1618 76.8498 99.0954 76.6514 98.9647 76.5141C98.8368 76.3767 98.649 76.3089 98.4012 76.3108C98.1994 76.3123 98.0169 76.3757 97.8536 76.5008C97.6932 76.623 97.6126 76.8196 97.6118 77.0905L96.5009 77.0989C96.5038 76.7242 96.5878 76.4109 96.753 76.1589C96.9211 75.9069 97.1473 75.7179 97.4316 75.5919C97.7188 75.4629 98.0397 75.3971 98.3941 75.3944C98.982 75.39 99.4398 75.5336 99.7677 75.825C100.098 76.1136 100.266 76.5245 100.27 77.0576C100.272 77.3112 100.223 77.5392 100.124 77.7417C100.028 77.9441 99.8993 78.1338 99.7393 78.3108C99.5793 78.4849 99.4063 78.6606 99.2203 78.8378C99.0572 78.9831 98.9488 79.1395 98.8954 79.3071C98.8419 79.4746 98.8132 79.6694 98.8091 79.8913L97.7976 79.8989ZM98.3441 81.8227C98.1511 81.8242 97.9979 81.7692 97.8846 81.6576C97.7714 81.5461 97.7141 81.4067 97.7128 81.2396C97.7115 81.0696 97.7666 80.928 97.8782 80.8147C97.9897 80.6986 98.1419 80.6398 98.335 80.6384C98.531 80.6369 98.6856 80.6934 98.7989 80.8078C98.9121 80.9193 98.9694 81.0601 98.9707 81.2301C98.972 81.3973 98.9169 81.5375 98.8053 81.6507C98.6938 81.7639 98.5401 81.8213 98.3441 81.8227ZM100.947 76.6072L105.257 76.5749L105.264 77.4653L104.378 77.4719L104.41 81.7296L103.269 81.7382L103.236 77.4805L100.954 77.4977L100.947 76.6072ZM106.747 79.4772L106.731 77.4543L105.871 77.4607L105.864 76.5703L107.861 76.5553L107.883 79.4686L106.747 79.4772ZM112.839 81.6663L109.164 76.5455L110.435 76.5359L114.101 81.6568L112.839 81.6663ZM109.403 81.6921L109.389 79.9242C109.385 79.4141 109.471 79.01 109.648 78.7119C109.827 78.4137 110.115 78.1925 110.512 78.0483L110.931 78.6201C110.63 78.7837 110.48 79.0601 110.483 79.4491L110.501 81.6838L109.403 81.6921ZM114.105 76.5084L112.4 79.7157L111.654 78.8308L112.83 76.5179L114.105 76.5084ZM115.469 81.6465L115.436 77.3888L114.931 77.3926L114.924 76.5022L116.571 76.4898L116.61 81.6379L115.469 81.6465ZM120.07 81.6119L120.044 78.1366C120.042 77.8888 119.968 77.6977 119.823 77.5634C119.681 77.4261 119.48 77.3585 119.221 77.3604L117.6 77.3726L117.593 76.4821L119.287 76.4694C119.875 76.465 120.336 76.6143 120.67 76.9172C121.006 77.2202 121.177 77.6454 121.181 78.1929L121.207 81.6034L120.07 81.6119ZM124.819 81.6757C124.384 81.6789 124.003 81.5925 123.676 81.4162C123.349 81.2371 123.094 80.9869 122.91 80.6655C122.728 80.3412 122.636 79.9644 122.633 79.535L122.609 76.4445L123.742 76.4359L123.766 79.6432C123.769 79.989 123.866 80.2693 124.058 80.484C124.25 80.6958 124.5 80.8005 124.808 80.7982C125.117 80.7959 125.364 80.6874 125.549 80.4728C125.738 80.2552 125.831 79.9735 125.828 79.6277L125.816 78.05C125.814 77.8051 125.759 77.6196 125.652 77.4936C125.544 77.3648 125.385 77.3011 125.175 77.3027C125.097 77.3033 125.013 77.314 124.924 77.3348C124.835 77.3528 124.743 77.378 124.648 77.4104L124.513 76.6765C124.662 76.5832 124.83 76.5099 125.017 76.4566C125.204 76.4005 125.381 76.3717 125.548 76.3705C125.98 76.3672 126.321 76.5059 126.571 76.7864C126.821 77.067 126.948 77.4551 126.952 77.9507L126.964 79.5025C126.967 79.9319 126.879 80.31 126.7 80.637C126.524 80.9611 126.274 81.2152 125.95 81.3992C125.628 81.5802 125.252 81.6724 124.819 81.6757ZM130.506 81.6329C130.062 81.6363 129.671 81.5398 129.332 81.3435C128.993 81.1472 128.727 80.8696 128.534 80.5109C128.341 80.1521 128.24 79.7335 128.231 79.2552L128.223 78.8576C128.222 78.6674 128.246 78.4741 128.297 78.2778C128.347 78.0786 128.416 77.8965 128.504 77.7316C128.595 77.5637 128.695 77.4333 128.804 77.3403C128.815 77.3315 128.825 77.3228 128.834 77.3141C128.845 77.3025 128.857 77.2938 128.868 77.2879L128.86 77.2707C128.765 77.2858 128.642 77.3127 128.493 77.3512C128.346 77.3898 128.214 77.4254 128.096 77.458L127.878 76.6253C128.105 76.5544 128.357 76.4935 128.633 76.4424C128.912 76.3884 129.195 76.3474 129.483 76.3193C129.774 76.2883 130.046 76.2718 130.3 76.2699C130.813 76.2661 131.25 76.3579 131.612 76.5454C131.974 76.73 132.251 77.0017 132.444 77.3605C132.637 77.7164 132.735 78.1537 132.739 78.6724L132.743 79.2213C132.747 79.6997 132.657 80.1197 132.472 80.4813C132.288 80.8429 132.026 81.1244 131.688 81.3258C131.352 81.5272 130.958 81.6295 130.506 81.6329ZM130.494 80.6907C130.719 80.689 130.914 80.627 131.08 80.5047C131.25 80.3824 131.381 80.2128 131.474 79.996C131.568 79.7791 131.613 79.5266 131.611 79.2385L131.607 78.6982C131.604 78.3812 131.556 78.1106 131.462 77.8866C131.371 77.6625 131.239 77.492 131.065 77.3751C130.891 77.2583 130.685 77.2008 130.446 77.2026C130.218 77.2043 130.024 77.2677 129.863 77.3928C129.703 77.5151 129.579 77.6932 129.491 77.9273C129.407 78.1614 129.363 78.4456 129.36 78.7799L129.363 79.2554C129.366 79.5435 129.414 79.7953 129.507 80.0108C129.604 80.2262 129.737 80.3938 129.905 80.5135C130.076 80.6333 130.272 80.6923 130.494 80.6907ZM137.548 81.4806L133.873 76.3598L135.144 76.3503L138.81 81.4711L137.548 81.4806ZM134.112 81.5064L134.098 79.7385C134.094 79.2285 134.181 78.8243 134.357 78.5262C134.536 78.228 134.824 78.0068 135.221 77.8626L135.64 78.4344C135.339 78.5981 135.19 78.8744 135.193 79.2634L135.21 81.4982L134.112 81.5064ZM138.814 76.3227L137.11 79.53L136.364 78.6451L137.539 76.3323L138.814 76.3227Z" fill="white"/>
<path d="M155.258 70.3471L155.218 65.199L159.498 65.1669L159.537 70.315L155.258 70.3471ZM156.388 69.4438L158.394 69.4288L158.368 66.0659L156.362 66.0809L156.388 69.4438ZM161.433 68.0659L161.417 66.0429L160.557 66.0494L160.55 65.159L162.547 65.144L162.57 68.0573L161.433 68.0659ZM163.565 65.1363L167.875 65.1039L167.881 65.9944L166.995 66.001L167.028 70.2587L165.887 70.2673L165.854 66.0096L163.572 66.0268L163.565 65.1363ZM169.364 68.0063L169.349 65.9833L168.489 65.9898L168.482 65.0994L170.479 65.0844L170.501 67.9977L169.364 68.0063ZM175.457 70.1954L171.782 65.0746L173.053 65.065L176.719 70.1859L175.457 70.1954ZM172.02 70.2212L172.007 68.4533C172.003 67.9432 172.089 67.5391 172.266 67.241C172.445 66.9428 172.733 66.7216 173.129 66.5774L173.549 67.1492C173.247 67.3128 173.098 67.5892 173.101 67.9782L173.118 70.2129L172.02 70.2212ZM176.723 65.0374L175.018 68.2448L174.272 67.3599L175.447 65.047L176.723 65.0374ZM178.087 70.1756L178.054 65.9179L177.548 65.9217L177.542 65.0313L179.189 65.0189L179.228 70.167L178.087 70.1756ZM182.688 70.141L182.661 66.6657C182.66 66.4179 182.586 66.2268 182.441 66.0924C182.299 65.9552 182.098 65.8875 181.839 65.8895L180.218 65.9017L180.211 65.0112L181.905 64.9985C182.493 64.9941 182.954 65.1434 183.288 65.4463C183.624 65.7493 183.795 66.1745 183.799 66.722L183.825 70.1325L182.688 70.141ZM187.437 70.2047C187.002 70.208 186.621 70.1215 186.294 69.9453C185.967 69.7662 185.711 69.516 185.527 69.1946C185.346 68.8703 185.254 68.4935 185.251 68.0641L185.227 64.9735L186.359 64.965L186.384 68.1723C186.387 68.5181 186.484 68.7984 186.676 69.0131C186.868 69.2249 187.118 69.3296 187.426 69.3273C187.734 69.325 187.981 69.2165 188.167 69.0019C188.356 68.7843 188.449 68.5026 188.446 68.1568L188.434 66.5791C188.432 66.3342 188.377 66.1487 188.27 66.0227C188.162 65.8938 188.003 65.8302 187.793 65.8318C187.715 65.8324 187.631 65.8431 187.542 65.8639C187.453 65.8819 187.361 65.9071 187.266 65.9395L187.131 65.2056C187.28 65.1123 187.448 65.039 187.635 64.9857C187.822 64.9295 187.999 64.9008 188.166 64.8996C188.598 64.8963 188.939 65.035 189.189 65.3155C189.439 65.5961 189.566 65.9841 189.57 66.4798L189.582 68.0316C189.585 68.4609 189.497 68.8391 189.318 69.1661C189.142 69.4902 188.892 69.7442 188.568 69.9282C188.246 70.1093 187.869 70.2015 187.437 70.2047ZM193.123 70.162C192.68 70.1653 192.288 70.0689 191.95 69.8726C191.611 69.6763 191.345 69.3987 191.152 69.0399C190.959 68.6812 190.858 68.2626 190.849 67.7843L190.841 67.3867C190.84 67.1965 190.864 67.0032 190.915 66.8069C190.965 66.6076 191.034 66.4256 191.122 66.2606C191.213 66.0928 191.313 65.9624 191.422 65.8693C191.433 65.8606 191.443 65.8519 191.452 65.8432C191.463 65.8316 191.475 65.8228 191.486 65.817L191.477 65.7998C191.382 65.8149 191.26 65.8417 191.111 65.8803C190.964 65.9189 190.832 65.9545 190.714 65.9871L190.495 65.1544C190.723 65.0835 190.974 65.0226 191.251 64.9715C191.53 64.9175 191.813 64.8765 192.101 64.8484C192.392 64.8174 192.664 64.8009 192.918 64.799C193.431 64.7952 193.868 64.887 194.23 65.0745C194.591 65.2591 194.869 65.5308 195.062 65.8895C195.255 66.2454 195.353 66.6827 195.357 67.2014L195.361 67.7504C195.365 68.2287 195.275 68.6487 195.09 69.0104C194.905 69.372 194.644 69.6535 194.305 69.8549C193.97 70.0562 193.576 70.1586 193.123 70.162ZM193.112 69.2197C193.337 69.2181 193.532 69.1561 193.698 69.0338C193.867 68.9115 193.999 68.7419 194.092 68.5251C194.185 68.3082 194.231 68.0557 194.229 67.7675L194.225 67.2272C194.222 66.9102 194.174 66.6397 194.08 66.4156C193.989 66.1915 193.857 66.0211 193.683 65.9042C193.509 65.7874 193.302 65.7298 193.063 65.7316C192.836 65.7334 192.642 65.7968 192.481 65.9219C192.321 66.0441 192.197 66.2223 192.109 66.4564C192.025 66.6905 191.981 66.9746 191.977 67.309L191.981 67.7844C191.983 68.0726 192.031 68.3244 192.125 68.5398C192.222 68.7552 192.354 68.9228 192.523 69.0426C192.693 69.1624 192.89 69.2214 193.112 69.2197ZM200.166 70.0097L196.491 64.8889L197.762 64.8793L201.428 70.0002L200.166 70.0097ZM196.73 70.0355L196.716 68.2676C196.712 67.7575 196.798 67.3534 196.975 67.0553C197.154 66.7571 197.442 66.5359 197.838 66.3917L198.258 66.9635C197.957 67.1271 197.807 67.4035 197.81 67.7925L197.828 70.0272L196.73 70.0355ZM201.432 64.8518L199.727 68.0591L198.981 67.1742L200.157 64.8613L201.432 64.8518ZM205.284 67.7363L205.268 65.7134L204.408 65.7199L204.401 64.8294L206.398 64.8144L206.421 67.7278L205.284 67.7363ZM207.542 70.0018C207.499 70.0021 207.453 70.001 207.404 69.9985C207.355 69.996 207.308 69.992 207.261 69.9866L207.253 68.9535C207.314 68.9617 207.373 68.9685 207.431 68.9738C207.491 68.9791 207.548 68.9816 207.599 68.9812C207.847 68.9736 208.062 68.9258 208.242 68.838C208.426 68.7502 208.578 68.628 208.698 68.4715C208.818 68.315 208.907 68.1342 208.966 67.9291L208.949 65.6858L207.812 65.6943L207.805 64.8039L210.061 64.7869L210.082 67.415C210.084 67.6916 210.115 67.9608 210.174 68.2226L210.538 69.9317L209.483 69.9397L209.17 68.5847L209.14 68.5849C209.101 68.8417 209.008 69.0772 208.86 69.2916C208.712 69.506 208.524 69.6774 208.297 69.8059C208.071 69.9344 207.819 69.9997 207.542 70.0018ZM211.888 69.9216L211.856 65.6639L211.35 65.6677L211.343 64.7773L212.99 64.7649L213.029 69.913L211.888 69.9216ZM216.78 69.9842C216.336 69.9876 215.945 69.8911 215.606 69.6948C215.268 69.4985 215.002 69.2209 214.809 68.8622C214.616 68.5034 214.515 68.0848 214.505 67.6065L214.498 67.2089C214.496 67.0187 214.521 66.8254 214.571 66.6291C214.621 66.4299 214.691 66.2478 214.779 66.0829C214.87 65.915 214.97 65.7846 215.078 65.6916C215.09 65.6828 215.1 65.6741 215.108 65.6654C215.12 65.6538 215.131 65.6451 215.143 65.6392L215.134 65.622C215.039 65.6371 214.917 65.664 214.767 65.7025C214.62 65.7411 214.488 65.7767 214.37 65.8093L214.152 64.9766C214.379 64.9058 214.631 64.8448 214.907 64.7937C215.186 64.7397 215.47 64.6987 215.758 64.6706C216.049 64.6396 216.321 64.6232 216.574 64.6212C217.087 64.6174 217.525 64.7092 217.886 64.8967C218.248 65.0813 218.525 65.353 218.718 65.7118C218.911 66.0677 219.01 66.505 219.014 67.0237L219.018 67.5726C219.022 68.051 218.931 68.471 218.747 68.8326C218.562 69.1942 218.3 69.4757 217.962 69.6771C217.626 69.8785 217.232 69.9808 216.78 69.9842ZM216.768 69.042C216.993 69.0403 217.189 68.9783 217.355 68.856C217.524 68.7337 217.655 68.5641 217.749 68.3473C217.842 68.1304 217.888 67.8779 217.885 67.5898L217.881 67.0495C217.879 66.7325 217.831 66.4619 217.737 66.2379C217.646 66.0138 217.513 65.8433 217.339 65.7264C217.166 65.6096 216.959 65.5521 216.72 65.5539C216.492 65.5556 216.298 65.619 216.138 65.7441C215.977 65.8664 215.853 66.0445 215.766 66.2786C215.681 66.5127 215.637 66.7969 215.634 67.1312L215.638 67.6067C215.64 67.8948 215.688 68.1466 215.782 68.3621C215.879 68.5775 216.011 68.7451 216.179 68.8648C216.35 68.9846 216.546 69.0436 216.768 69.042Z" fill="white"/>
<path d="M205.847 41.8443L205.84 40.9711C206.226 40.9538 206.529 40.8319 206.749 40.6055C206.972 40.379 207.082 40.0569 207.079 39.639L207.063 37.5772L203.999 37.6002L203.992 36.7098L208.193 36.6782L208.216 39.6046C208.219 40.0656 208.126 40.4612 207.935 40.7911C207.745 41.1182 207.471 41.371 207.115 41.5494C206.759 41.7279 206.337 41.8262 205.847 41.8443ZM204.11 43.6556L204.082 40.0031C204.079 39.6746 204.111 39.4294 204.176 39.2675C204.241 39.1056 204.299 38.9856 204.35 38.9074L205.262 38.9005C205.231 39.0218 205.209 39.1617 205.196 39.3203C205.183 39.4761 205.177 39.6663 205.179 39.8911L205.208 43.6473L204.11 43.6556ZM209.795 41.8146L209.76 36.6665L211.878 36.6505C212.555 36.6455 213.065 36.8059 213.408 37.1318C213.75 37.4549 213.925 37.9421 213.933 38.5933L213.958 41.7833L212.83 41.7918L212.8 38.5154C212.798 38.1782 212.722 37.9309 212.574 37.7736C212.426 37.6162 212.198 37.5386 211.889 37.5409L210.895 37.5484L210.928 41.8061L209.795 41.8146ZM216.458 36.6161L216.489 40.6533C216.743 40.7609 217.018 40.8468 217.312 40.9108C217.606 40.972 217.883 41.0017 218.143 40.9997C218.543 40.9967 218.9 40.9378 219.213 40.8231C219.527 40.7054 219.773 40.5264 219.953 40.2858C220.132 40.0453 220.221 39.7391 220.218 39.3674L220.197 36.588L221.299 36.5797L221.321 39.4801C221.324 39.8836 221.243 40.2358 221.079 40.5367C220.917 40.8377 220.691 41.0886 220.401 41.2896C220.115 41.4906 219.783 41.6416 219.406 41.7424C219.03 41.8403 218.626 41.8909 218.197 41.8941C217.748 41.8975 217.279 41.8477 216.791 41.7447C216.303 41.6389 215.838 41.4824 215.396 41.2754L215.36 36.6244L216.458 36.6161ZM217.549 40.2045C217.626 40.0915 217.682 39.934 217.718 39.732C217.757 39.53 217.775 39.3065 217.773 39.0616L217.754 36.6064L218.857 36.5981L218.874 38.8242C218.876 39.1152 218.843 39.3821 218.776 39.6246C218.709 39.8672 218.61 40.061 218.478 40.2061L217.549 40.2045ZM222.862 41.7164L223.197 38.6707C223.224 38.4341 223.285 38.2104 223.378 37.9993C223.472 37.7882 223.583 37.6245 223.712 37.5083C223.72 37.4996 223.73 37.4909 223.742 37.4821C223.756 37.4705 223.769 37.4603 223.78 37.4516L223.772 37.4387C223.654 37.4569 223.508 37.4911 223.336 37.5414C223.163 37.5888 223.012 37.6375 222.883 37.6874L222.63 36.855C222.851 36.7727 223.096 36.7017 223.363 36.642C223.634 36.5795 223.91 36.5299 224.192 36.4932C224.477 36.4564 224.747 36.4371 225 36.4352C225.746 36.4296 226.316 36.6199 226.708 37.006C227.103 37.3892 227.304 37.9568 227.313 38.7089L227.336 41.6828L225.136 41.6993L225.129 40.8089L226.197 40.8009L226.175 38.5705C226.172 38.1815 226.086 37.8838 225.917 37.6776C225.752 37.4685 225.516 37.3651 225.21 37.3674C224.951 37.3693 224.743 37.4717 224.586 37.6746C224.432 37.8775 224.336 38.1607 224.299 38.5241L223.986 41.708L222.862 41.7164Z" fill="white"/>
<defs>
<linearGradient id="paint0_linear_208_920" x1="1046.98" y1="751.145" x2="-255.912" y2="2509.62" gradientUnits="userSpaceOnUse">
<stop stop-color="#D5D5D5"/>
<stop offset="1" stop-color="#8D8D8D"/>
</linearGradient>
<linearGradient id="paint1_linear_208_920" x1="1087.47" y1="763.34" x2="-215.425" y2="2521.82" gradientUnits="userSpaceOnUse">
<stop stop-color="#D5D5D5"/>
<stop offset="1" stop-color="#8D8D8D"/>
</linearGradient>
<linearGradient id="paint2_linear_208_920" x1="1087.47" y1="763.34" x2="-215.425" y2="2521.82" gradientUnits="userSpaceOnUse">
<stop stop-color="#D5D5D5"/>
<stop offset="1" stop-color="#8D8D8D"/>
</linearGradient>
<linearGradient id="paint3_linear_208_920" x1="1184.62" y1="790.385" x2="-118.272" y2="2548.86" gradientUnits="userSpaceOnUse">
<stop stop-color="#D5D5D5"/>
<stop offset="1" stop-color="#8D8D8D"/>
</linearGradient>
<linearGradient id="paint4_linear_208_920" x1="1127.71" y1="789.771" x2="-175.179" y2="2548.25" gradientUnits="userSpaceOnUse">
<stop stop-color="#D5D5D5"/>
<stop offset="1" stop-color="#8D8D8D"/>
</linearGradient>
<linearGradient id="paint5_linear_208_920" x1="1208.29" y1="762.432" x2="-94.6026" y2="2520.91" gradientUnits="userSpaceOnUse">
<stop stop-color="#D5D5D5"/>
<stop offset="1" stop-color="#8D8D8D"/>
</linearGradient>
</defs>
</svg>
