<svg width="202" height="82" viewBox="0 0 202 82" fill="none" xmlns="http://www.w3.org/2000/svg">
<path d="M39.6304 18.2269L76.71 28.2793L115.751 55.1515L164.752 54.7789" stroke="#CDCDCD" stroke-width="1.66676"/>
<path d="M33.349 1.2732C36.6777 16.8495 36.6777 16.8495 52.5623 15.6749C36.6777 16.8495 36.6777 16.8495 40.0063 32.4258C36.6777 16.8495 36.6777 16.8495 20.793 18.024C36.6777 16.8495 36.6777 16.8495 33.349 1.2732Z" fill="url(#paint0_linear_66_1618)" stroke="#565555" stroke-width="0.333372"/>
<path d="M71.7748 12.9821C75.1035 28.5584 75.1035 28.5584 90.9881 27.3838C75.1035 28.5584 75.1035 28.5584 78.4321 44.1346C75.1035 28.5584 75.1035 28.5584 59.2188 29.7329C75.1035 28.5584 75.1035 28.5584 71.7748 12.9821Z" fill="url(#paint1_linear_66_1618)" stroke="#565555" stroke-width="0.333372"/>
<path d="M71.7748 12.9821C75.1035 28.5584 75.1035 28.5584 90.9881 27.3838C75.1035 28.5584 75.1035 28.5584 78.4321 44.1346C75.1035 28.5584 75.1035 28.5584 59.2188 29.7329C75.1035 28.5584 75.1035 28.5584 71.7748 12.9821Z" fill="url(#paint2_linear_66_1618)" stroke="#565555" stroke-width="0.333372"/>
<path d="M163.98 38.9501C167.309 54.5264 167.309 54.5264 183.194 53.3518C167.309 54.5264 167.309 54.5264 170.638 70.1027C167.309 54.5264 167.309 54.5264 151.424 55.7009C167.309 54.5264 167.309 54.5264 163.98 38.9501Z" fill="url(#paint3_linear_66_1618)" stroke="#565555" stroke-width="0.333372"/>
<path d="M109.971 38.3606C113.3 53.9369 113.3 53.9369 129.184 52.7623C113.3 53.9369 113.3 53.9369 116.628 69.5132C113.3 53.9369 113.3 53.9369 97.4151 55.1114C113.3 53.9369 113.3 53.9369 109.971 38.3606Z" fill="url(#paint4_linear_66_1618)" stroke="#565555" stroke-width="0.333372"/>
<path d="M20.4697 27.3728L20.4406 23.5403L19.9853 23.5438L19.9792 22.7422L21.4617 22.731L21.4969 27.365L20.4697 27.3728ZM25.5297 27.3344L25.5073 24.3773C25.505 24.0764 25.4307 23.8565 25.2843 23.7175C25.138 23.5759 24.9105 23.5063 24.6018 23.5087L22.7809 23.5225L22.7748 22.721L24.6619 22.7066C25.2585 22.7021 25.7174 22.8465 26.0387 23.1398C26.3626 23.4304 26.5266 23.8533 26.5309 24.4084L26.553 27.3266L25.5297 27.3344ZM22.8022 27.3551L22.7901 25.7676C22.7879 25.4693 22.816 25.2473 22.8746 25.1016C22.9357 24.9559 22.9881 24.8478 23.0316 24.7774L23.8526 24.7712C23.8301 24.8803 23.8116 25.0063 23.7971 25.1491C23.7827 25.2918 23.7762 25.4644 23.7777 25.6667L23.7905 27.3476L22.8022 27.3551ZM27.8039 27.3171L28.106 24.5754C28.1303 24.3625 28.1846 24.1611 28.2687 23.9711C28.3529 23.7811 28.4529 23.6337 28.5689 23.5291C28.5766 23.5213 28.5856 23.5134 28.5959 23.5055C28.6088 23.4951 28.6204 23.4859 28.6308 23.478L28.6229 23.4664C28.5166 23.4828 28.3859 23.5136 28.2306 23.5589C28.0753 23.6016 27.9394 23.6454 27.823 23.6904L27.5955 22.9412C27.7947 22.867 28.0147 22.8031 28.2556 22.7494C28.499 22.693 28.7477 22.6483 29.0016 22.6153C29.2582 22.5822 29.5006 22.5648 29.7289 22.5631C30.4007 22.5579 30.913 22.7292 31.2659 23.0767C31.6213 23.4216 31.8029 23.9325 31.8106 24.6095L31.831 27.2865L29.8505 27.3015L29.8444 26.5L30.8055 26.4927L30.7863 24.485C30.7836 24.1348 30.7064 23.8669 30.5545 23.6813C30.4052 23.4931 30.1931 23.4 29.9181 23.4021C29.6847 23.4039 29.4973 23.4961 29.356 23.6788C29.2173 23.8614 29.1311 24.1163 29.0972 24.4434L28.8155 27.3094L27.8039 27.3171ZM8.1501 36.7742C8.15086 36.5329 8.17007 36.3291 8.20771 36.1628C8.24534 35.9939 8.30774 35.8417 8.39491 35.7062C8.48465 35.568 8.60549 35.4257 8.75743 35.2793C8.8759 35.1668 8.98145 35.061 9.07408 34.9617C9.16929 34.8598 9.24372 34.7542 9.29736 34.6448C9.35358 34.5328 9.38115 34.4055 9.38006 34.2628C9.37829 34.0294 9.31856 33.8508 9.20089 33.7272C9.08581 33.6036 8.91673 33.5426 8.69365 33.5443C8.51208 33.5457 8.34779 33.6027 8.20078 33.7154C8.05635 33.8254 7.98376 34.0024 7.98302 34.2462L6.98306 34.2538C6.98568 33.9166 7.06136 33.6345 7.21009 33.4077C7.36142 33.1809 7.56506 33.0107 7.82101 32.8972C8.07954 32.7811 8.36833 32.7219 8.68738 32.7194C9.21654 32.7154 9.62869 32.8446 9.92381 33.1069C10.2215 33.3667 10.3722 33.7365 10.3758 34.2164C10.3776 34.4446 10.3337 34.6499 10.2443 34.8322C10.1575 35.0144 10.0421 35.1852 9.89802 35.3445C9.75395 35.5013 9.59821 35.6594 9.4308 35.8189C9.28394 35.9497 9.18643 36.0905 9.13829 36.2414C9.09015 36.3922 9.06424 36.5675 9.06057 36.7673L8.1501 36.7742ZM8.64188 38.5059C8.46808 38.5072 8.33022 38.4577 8.22829 38.3573C8.12635 38.2569 8.07482 38.1315 8.07367 37.981C8.07251 37.828 8.12212 37.7005 8.22252 37.5986C8.32289 37.494 8.45998 37.4411 8.63377 37.4398C8.81016 37.4384 8.94933 37.4893 9.05128 37.5923C9.15321 37.6926 9.20476 37.8194 9.20593 37.9724C9.20707 38.1229 9.15744 38.249 9.05705 38.351C8.95666 38.4529 8.81826 38.5045 8.64188 38.5059ZM10.9855 33.8109L14.8648 33.7814L14.8709 34.583L14.0732 34.589L14.1024 38.4216L13.0752 38.4294L13.046 34.5968L10.9916 34.6125L10.9855 33.8109ZM16.2056 36.3939L16.1917 34.5729L15.4174 34.5788L15.4114 33.7773L17.209 33.7636L17.2289 36.3861L16.2056 36.3939ZM21.6895 38.3639L18.382 33.7547L19.5259 33.746L22.8256 38.3553L21.6895 38.3639ZM18.5962 38.3874L18.5841 36.796C18.5806 36.3369 18.6583 35.9731 18.817 35.7047C18.9784 35.4363 19.2376 35.2372 19.5946 35.1074L19.9721 35.622C19.7008 35.7694 19.5665 36.0181 19.5692 36.3683L19.5845 38.3799L18.5962 38.3874ZM22.8293 33.7209L21.2948 36.6081L20.6233 35.8116L21.6815 33.7296L22.8293 33.7209ZM24.057 38.3459L24.0279 34.5134L23.5726 34.5168L23.5665 33.7153L25.049 33.704L25.0842 38.3381L24.057 38.3459ZM28.1988 38.3144L28.175 35.1861C28.1733 34.963 28.1071 34.791 27.9765 34.6701C27.8485 34.5466 27.6677 34.4857 27.4343 34.4875L25.9752 34.4985L25.9691 33.697L27.4943 33.6854C28.0235 33.6814 28.4383 33.8157 28.7387 34.0884C29.0416 34.3611 29.195 34.7439 29.1988 35.2367L29.2221 38.3066L28.1988 38.3144ZM32.4735 38.3714C32.0819 38.3744 31.7389 38.2966 31.4445 38.138C31.1502 37.9768 30.9202 37.7515 30.7545 37.4623C30.5915 37.1704 30.5085 36.8312 30.5056 36.4447L30.4844 33.6627L31.5038 33.6549L31.5258 36.542C31.5281 36.8533 31.6157 37.1055 31.7883 37.2988C31.961 37.4894 32.1861 37.5837 32.4637 37.5816C32.7412 37.5795 32.9636 37.4818 33.1307 37.2886C33.3004 37.0927 33.3841 36.8392 33.3817 36.5279L33.3709 35.1077C33.3693 34.8872 33.32 34.7203 33.2232 34.6069C33.1263 34.4909 32.9832 34.4336 32.7938 34.435C32.7238 34.4356 32.6486 34.4452 32.5684 34.464C32.4881 34.4802 32.4052 34.5028 32.3198 34.532L32.1981 33.8715C32.3323 33.7874 32.4836 33.7214 32.6518 33.6735C32.8201 33.6229 32.9794 33.597 33.1299 33.5959C33.519 33.5929 33.826 33.7177 34.051 33.9702C34.276 34.2227 34.3902 34.5721 34.3936 35.0182L34.4042 36.415C34.4072 36.8015 34.3281 37.142 34.1669 37.4363C34.0082 37.7281 33.783 37.9568 33.4911 38.1224C33.2018 38.2854 32.8626 38.3684 32.4735 38.3714ZM37.592 38.3325C37.1925 38.3355 36.8403 38.2487 36.5355 38.072C36.2306 37.8954 35.9914 37.6455 35.8177 37.3226C35.644 36.9997 35.553 36.6229 35.5445 36.1924L35.5379 35.8344C35.5366 35.6632 35.5586 35.4893 35.604 35.3125C35.6493 35.1332 35.7116 34.9693 35.7909 34.8208C35.8728 34.6697 35.9627 34.5523 36.0606 34.4686C36.0709 34.4607 36.0799 34.4529 36.0877 34.445C36.098 34.4346 36.1083 34.4267 36.1186 34.4214L36.1107 34.4059C36.0252 34.4195 35.9151 34.4437 35.7805 34.4785C35.6485 34.5132 35.5294 34.5452 35.4233 34.5746L35.2269 33.8251C35.4313 33.7613 35.6579 33.7064 35.9066 33.6604C36.1579 33.6118 36.4131 33.5748 36.6723 33.5495C36.9341 33.5216 37.1791 33.5067 37.4074 33.505C37.8691 33.5015 38.2627 33.5841 38.5883 33.7528C38.9138 33.919 39.1634 34.1635 39.3371 34.4865C39.5107 34.8068 39.5993 35.2004 39.6029 35.6673L39.6066 36.1615C39.6099 36.5921 39.5285 36.9701 39.3623 37.2957C39.1962 37.6212 38.9607 37.8746 38.656 38.0559C38.3539 38.2372 37.9992 38.3294 37.592 38.3325ZM37.5816 37.4843C37.7839 37.4828 37.9599 37.4269 38.1095 37.3169C38.2617 37.2067 38.3799 37.0541 38.464 36.8589C38.5482 36.6637 38.5892 36.4364 38.5873 36.177L38.5836 35.6907C38.5814 35.4053 38.538 35.1618 38.4535 34.9601C38.3715 34.7584 38.2523 34.605 38.0959 34.4998C37.9395 34.3946 37.7536 34.3429 37.5383 34.3445C37.3334 34.346 37.1587 34.4031 37.0143 34.5158C36.8699 34.6258 36.7582 34.7862 36.6794 34.9969C36.6032 35.2076 36.5636 35.4635 36.5607 35.7644L36.564 36.1924C36.566 36.4518 36.6092 36.6784 36.6937 36.8724C36.7808 37.0663 36.8999 37.2171 37.0512 37.3249C37.2051 37.4327 37.3819 37.4858 37.5816 37.4843ZM43.9314 38.1948L40.6239 33.5856L41.7679 33.5769L45.0676 38.1862L43.9314 38.1948ZM40.8382 38.2183L40.8261 36.6269C40.8226 36.1678 40.9002 35.804 41.059 35.5356C41.2204 35.2672 41.4796 35.0681 41.8366 34.9383L42.214 35.4529C41.9428 35.6003 41.8085 35.849 41.8111 36.1992L41.8264 38.2108L40.8382 38.2183ZM45.0712 33.5518L43.5367 36.439L42.8653 35.6425L43.9234 33.5605L45.0712 33.5518Z" fill="white"/>
<path d="M63.1037 43.11L63.0803 40.0263C63.0789 39.8409 63.025 39.6712 62.9187 39.517L60.8119 36.4575L62.0279 36.4483L63.3973 38.592L63.8378 39.2195C63.9357 39.3571 64.006 39.4977 64.0486 39.6413C64.0912 39.7848 64.1132 39.9479 64.1146 40.1305L64.1372 43.1021L63.1037 43.11ZM63.6653 39.4574L62.9864 38.591L64.0491 36.4329L65.2693 36.4236L63.6653 39.4574ZM66.3796 41.3585L66.3486 37.2704L65.863 37.2741L65.8565 36.4192L67.4377 36.4071L67.4753 41.3501L66.3796 41.3585ZM68.8054 41.34L68.7989 40.4809L71.206 40.4626L68.4026 36.3998L69.6186 36.3906L71.0255 38.5506L72.6074 40.8048L72.6112 41.3111L68.8054 41.34ZM71.2561 39.3997L70.5771 38.5332L71.6398 36.3752L72.86 36.3659L71.2561 39.3997ZM74.2487 39.1528L74.2339 37.2105L73.408 37.2168L73.4015 36.3618L75.319 36.3472L75.3402 39.1445L74.2487 39.1528ZM78.5799 41.3653C78.3199 41.3673 78.0347 41.3432 77.7244 41.293C77.4141 41.2455 77.1175 41.1731 76.8345 41.0756L77.0359 40.273C77.3021 40.3485 77.5668 40.4046 77.83 40.4413C78.0959 40.478 78.3229 40.4957 78.5111 40.4942C78.9316 40.4855 79.2504 40.3821 79.4675 40.184C79.6846 39.9859 79.7917 39.7 79.7888 39.3265L79.7724 37.1684L78.104 37.1811C78.0333 37.3393 77.9792 37.5113 77.9419 37.697C77.9046 37.8826 77.8867 38.0709 77.8881 38.2618L77.8903 38.5565C77.9514 38.5754 78.0262 38.5887 78.1148 38.5963C78.2034 38.6039 78.303 38.6059 78.4137 38.6023L78.4197 39.3992C78.2013 39.4202 77.998 39.4259 77.8097 39.4163C77.6243 39.4066 77.4511 39.3789 77.2903 39.3331C77.1294 39.2845 76.9795 39.2206 76.8406 39.1414L76.8282 38.6102C76.8262 38.3391 76.8546 38.0774 76.9136 37.8251C76.9725 37.5701 77.0567 37.3578 77.1661 37.1882L76.6182 37.1923L76.6117 36.3374L80.8575 36.3051L80.8791 39.1481C80.883 39.6599 80.7838 40.0799 80.5815 40.4079C80.3792 40.7332 80.1044 40.9733 79.7569 41.1281C79.4094 41.2829 79.0171 41.362 78.5799 41.3653ZM52.9613 47.5175L57.0991 47.486L57.1056 48.341L56.2548 48.3475L56.2859 52.4355L55.1902 52.4439L55.1591 48.3558L52.9678 48.3725L52.9613 47.5175ZM58.5293 50.2726L58.5146 48.3303L57.6887 48.3366L57.6822 47.4816L59.5996 47.467L59.6209 50.2643L58.5293 50.2726ZM64.3788 52.374L60.8508 47.4575L62.071 47.4483L65.5907 52.3648L64.3788 52.374ZM61.0793 52.3991L61.0664 50.7016C61.0627 50.2119 61.1455 49.8239 61.3149 49.5376C61.487 49.2513 61.7635 49.0389 62.1443 48.9004L62.5469 49.4493C62.2576 49.6065 62.1143 49.8718 62.1172 50.2454L62.1335 52.3911L61.0793 52.3991ZM65.5946 47.4215L63.9578 50.5012L63.2416 49.6516L64.3703 47.4308L65.5946 47.4215ZM66.9042 52.3548L66.8731 48.2668L66.3875 48.2704L66.381 47.4155L67.9623 47.4035L67.9999 52.3465L66.9042 52.3548ZM71.3221 52.3212L71.2967 48.9844C71.2949 48.7464 71.2243 48.5629 71.085 48.434C70.9484 48.3022 70.7556 48.2372 70.5066 48.2391L68.9502 48.251L68.9437 47.396L70.5707 47.3836C71.1351 47.3793 71.5775 47.5226 71.898 47.8135C72.2211 48.1043 72.3847 48.5126 72.3887 49.0383L72.4136 52.3129L71.3221 52.3212ZM75.8818 52.382C75.464 52.3852 75.0982 52.3022 74.7842 52.133C74.4702 51.9611 74.2249 51.7208 74.0482 51.4123C73.8743 51.1009 73.7858 50.7391 73.7826 50.3268L73.7601 47.3594L74.8475 47.3511L74.8709 50.4306C74.8734 50.7627 74.9668 51.0317 75.1509 51.2379C75.3351 51.4412 75.5752 51.5418 75.8713 51.5395C76.1673 51.5373 76.4045 51.4331 76.5828 51.227C76.7638 51.0181 76.8531 50.7476 76.8506 50.4156L76.839 48.9007C76.8373 48.6655 76.7847 48.4875 76.6814 48.3665C76.5781 48.2428 76.4254 48.1817 76.2235 48.1832C76.1488 48.1838 76.0686 48.1941 75.983 48.2141C75.8973 48.2313 75.809 48.2555 75.7179 48.2867L75.588 47.5821C75.7312 47.4924 75.8926 47.422 76.072 47.3709C76.2515 47.3169 76.4214 47.2893 76.5819 47.2881C76.9969 47.285 77.3245 47.4181 77.5645 47.6874C77.8045 47.9568 77.9263 48.3294 77.9299 48.8053L77.9412 50.2952C77.9444 50.7075 77.86 51.0706 77.688 51.3846C77.5188 51.6958 77.2786 51.9397 76.9673 52.1164C76.6587 52.2903 76.2969 52.3788 75.8818 52.382ZM81.3415 52.3405C80.9154 52.3437 80.5397 52.2511 80.2146 52.0627C79.8894 51.8742 79.6342 51.6078 79.4489 51.2633C79.2637 50.9188 79.1666 50.517 79.1575 50.0577L79.1505 49.6759C79.1491 49.4933 79.1726 49.3077 79.221 49.1192C79.2693 48.9279 79.3358 48.7531 79.4203 48.5947C79.5077 48.4336 79.6036 48.3083 79.708 48.219C79.719 48.2106 79.7287 48.2022 79.7369 48.1939C79.7479 48.1827 79.7589 48.1743 79.7699 48.1687L79.7615 48.1522C79.6703 48.1667 79.5529 48.1925 79.4093 48.2296C79.2684 48.2666 79.1414 48.3008 79.0282 48.3321L78.8187 47.5326C79.0368 47.4645 79.2785 47.406 79.5438 47.3569C79.8118 47.3051 80.084 47.2656 80.3605 47.2386C80.6398 47.2089 80.9011 47.193 81.1446 47.1912C81.6371 47.1874 82.057 47.2756 82.4042 47.4555C82.7514 47.6328 83.0177 47.8936 83.2029 48.2381C83.3881 48.5798 83.4826 48.9996 83.4864 49.4977L83.4904 50.0248C83.4939 50.4841 83.4071 50.8873 83.2299 51.2345C83.0526 51.5818 82.8015 51.8521 82.4765 52.0455C82.1542 52.2389 81.7759 52.3372 81.3415 52.3405ZM81.3304 51.4358C81.5463 51.4341 81.734 51.3746 81.8936 51.2572C82.0559 51.1397 82.182 50.9769 82.2717 50.7687C82.3614 50.5605 82.4052 50.318 82.4031 50.0413L82.3992 49.5225C82.3969 49.2182 82.3506 48.9584 82.2604 48.7433C82.173 48.5281 82.0459 48.3645 81.879 48.2523C81.7121 48.1401 81.5139 48.0849 81.2842 48.0866C81.0656 48.0883 80.8793 48.1492 80.7253 48.2694C80.5712 48.3867 80.4522 48.5578 80.3681 48.7826C80.2868 49.0073 80.2446 49.2802 80.2415 49.6012L80.245 50.0577C80.2471 50.3344 80.2932 50.5762 80.3833 50.783C80.4762 50.9899 80.6033 51.1508 80.7647 51.2657C80.9288 51.3807 81.1174 51.4374 81.3304 51.4358ZM88.1036 52.1936L84.5756 47.2772L85.7958 47.2679L89.3155 52.1844L88.1036 52.1936ZM84.8041 52.2187L84.7912 50.5212C84.7875 50.0315 84.8703 49.6435 85.0397 49.3572C85.2118 49.0709 85.4883 48.8585 85.8691 48.72L86.2717 49.269C85.9824 49.4261 85.8391 49.6915 85.8419 50.065L85.8583 52.2107L84.8041 52.2187ZM89.3194 47.2411L87.6826 50.3208L86.9664 49.4712L88.095 47.2504L89.3194 47.2411Z" fill="white"/>
<path d="M80.8781 74.2507L80.8405 69.3077L84.9493 69.2765L84.9869 74.2195L80.8781 74.2507ZM81.9631 73.3833L83.8888 73.3687L83.8643 70.1397L81.9385 70.1544L81.9631 73.3833ZM86.807 72.0598L86.7922 70.1175L85.9663 70.1237L85.9598 69.2688L87.8772 69.2542L87.8985 72.0515L86.807 72.0598ZM88.8545 69.2468L92.9924 69.2153L92.9989 70.0703L92.1481 70.0767L92.1792 74.1648L91.0835 74.1731L91.0524 70.0851L88.861 70.1017L88.8545 69.2468ZM94.4226 72.0019L94.4078 70.0596L93.5819 70.0658L93.5754 69.2109L95.4929 69.1963L95.5141 71.9936L94.4226 72.0019ZM100.272 74.1033L96.7441 69.1868L97.9643 69.1775L101.484 74.0941L100.272 74.1033ZM96.9726 74.1284L96.9597 72.4309C96.956 71.9411 97.0388 71.5531 97.2082 71.2668C97.3803 70.9805 97.6568 70.7681 98.0376 70.6297L98.4402 71.1786C98.1509 71.3358 98.0076 71.6011 98.0105 71.9746L98.0268 74.1203L96.9726 74.1284ZM101.488 69.1507L99.8511 72.2304L99.1349 71.3809L100.264 69.16L101.488 69.1507ZM102.797 74.0841L102.766 69.996L102.281 69.9997L102.274 69.1448L103.856 69.1327L103.893 74.0757L102.797 74.0841ZM107.215 74.0505L107.19 70.7136C107.188 70.4757 107.118 70.2922 106.978 70.1632C106.842 70.0314 106.649 69.9665 106.4 69.9684L104.844 69.9802L104.837 69.1253L106.464 69.1129C107.028 69.1086 107.471 69.2519 107.791 69.5428C108.114 69.8336 108.278 70.2419 108.282 70.7676L108.307 74.0422L107.215 74.0505ZM111.775 74.1113C111.357 74.1145 110.991 74.0315 110.677 73.8623C110.363 73.6904 110.118 73.4501 109.941 73.1415C109.768 72.8302 109.679 72.4684 109.676 72.0561L109.653 69.0887L110.741 69.0804L110.764 72.1599C110.767 72.4919 110.86 72.761 111.044 72.9671C111.228 73.1705 111.468 73.271 111.765 73.2688C112.061 73.2665 112.298 73.1624 112.476 72.9562C112.657 72.7473 112.746 72.4769 112.744 72.1449L112.732 70.63C112.731 70.3948 112.678 70.2167 112.575 70.0958C112.471 69.972 112.319 69.9109 112.117 69.9125C112.042 69.9131 111.962 69.9233 111.876 69.9434C111.791 69.9606 111.702 69.9848 111.611 70.0159L111.481 69.3113C111.624 69.2217 111.786 69.1513 111.965 69.1001C112.145 69.0462 112.315 69.0186 112.475 69.0174C112.89 69.0142 113.218 69.1473 113.458 69.4167C113.698 69.686 113.82 70.0586 113.823 70.5345L113.835 72.0245C113.838 72.4368 113.753 72.7999 113.581 73.1139C113.412 73.4251 113.172 73.669 112.861 73.8457C112.552 74.0196 112.19 74.1081 111.775 74.1113ZM117.235 74.0698C116.809 74.073 116.433 73.9804 116.108 73.7919C115.783 73.6035 115.527 73.337 115.342 72.9926C115.157 72.6481 115.06 72.2462 115.051 71.787L115.044 71.4052C115.042 71.2226 115.066 71.037 115.114 70.8485C115.163 70.6572 115.229 70.4824 115.314 70.324C115.401 70.1628 115.497 70.0376 115.601 69.9483C115.612 69.9399 115.622 69.9315 115.63 69.9231C115.641 69.912 115.652 69.9036 115.663 69.898L115.655 69.8814C115.564 69.896 115.446 69.9218 115.303 69.9588C115.162 69.9959 115.035 70.03 114.921 70.0613L114.712 69.2619C114.93 69.1938 115.172 69.1352 115.437 69.0862C115.705 69.0343 115.977 68.9949 116.254 68.9679C116.533 68.9381 116.794 68.9223 117.038 68.9204C117.53 68.9167 117.95 69.0048 118.297 69.1848C118.645 69.362 118.911 69.6229 119.096 69.9673C119.281 70.309 119.376 70.7289 119.38 71.2269L119.384 71.754C119.387 72.2133 119.3 72.6166 119.123 72.9638C118.946 73.311 118.695 73.5814 118.37 73.7748C118.047 73.9681 117.669 74.0665 117.235 74.0698ZM117.224 73.165C117.44 73.1634 117.627 73.1039 117.787 72.9864C117.949 72.869 118.075 72.7062 118.165 72.4979C118.255 72.2897 118.298 72.0473 118.296 71.7706L118.292 71.2518C118.29 70.9475 118.244 70.6877 118.154 70.4726C118.066 70.2574 117.939 70.0937 117.772 69.9816C117.605 69.8694 117.407 69.8142 117.177 69.8159C116.959 69.8176 116.773 69.8785 116.619 69.9986C116.464 70.116 116.345 70.2871 116.261 70.5119C116.18 70.7366 116.138 71.0095 116.135 71.3305L116.138 71.787C116.14 72.0637 116.186 72.3055 116.277 72.5123C116.369 72.7191 116.497 72.88 116.658 72.995C116.822 73.11 117.011 73.1667 117.224 73.165ZM123.997 73.9229L120.469 69.0064L121.689 68.9972L125.209 73.9137L123.997 73.9229ZM120.697 73.948L120.684 72.2505C120.681 71.7608 120.764 71.3728 120.933 71.0865C121.105 70.8002 121.382 70.5878 121.762 70.4493L122.165 70.9982C121.876 71.1554 121.732 71.4207 121.735 71.7943L121.752 73.94L120.697 73.948ZM125.213 68.9704L123.576 72.0501L122.86 71.2005L123.988 68.9797L125.213 68.9704ZM128.911 71.7397L128.896 69.7974L128.07 69.8036L128.064 68.9487L129.981 68.9341L130.002 71.7314L128.911 71.7397ZM131.079 73.9147C131.038 73.915 130.994 73.914 130.947 73.9116C130.9 73.9092 130.854 73.9054 130.81 73.9002L130.802 72.9082C130.86 72.9161 130.917 72.9226 130.972 72.9277C131.03 72.9328 131.084 72.9351 131.134 72.9348C131.372 72.9274 131.578 72.8816 131.752 72.7973C131.928 72.7129 132.074 72.5956 132.189 72.4453C132.304 72.295 132.39 72.1214 132.446 71.9245L132.43 69.7705L131.339 69.7788L131.332 68.9238L133.498 68.9074L133.518 71.4308C133.52 71.6964 133.549 71.9549 133.607 72.2062L133.955 73.8472L132.943 73.8549L132.642 72.5539L132.613 72.5541C132.576 72.8007 132.487 73.0269 132.344 73.2327C132.202 73.4385 132.022 73.6032 131.804 73.7266C131.587 73.85 131.345 73.9127 131.079 73.9147ZM135.252 73.8373L135.221 69.7493L134.735 69.753L134.729 68.898L136.31 68.886L136.348 73.829L135.252 73.8373ZM139.949 73.8971C139.523 73.9003 139.147 73.8077 138.822 73.6193C138.497 73.4308 138.242 73.1643 138.056 72.8199C137.871 72.4754 137.774 72.0735 137.765 71.6143L137.758 71.2325C137.756 71.0499 137.78 70.8643 137.828 70.6758C137.877 70.4845 137.943 70.3097 138.028 70.1513C138.115 69.9902 138.211 69.8649 138.315 69.7756C138.326 69.7672 138.336 69.7588 138.344 69.7504C138.355 69.7393 138.366 69.7309 138.377 69.7253L138.369 69.7088C138.278 69.7233 138.16 69.7491 138.017 69.7861C137.876 69.8232 137.749 69.8574 137.636 69.8886L137.426 69.0892C137.644 69.0211 137.886 68.9626 138.151 68.9135C138.419 68.8617 138.691 68.8222 138.968 68.7952C139.247 68.7654 139.508 68.7496 139.752 68.7478C140.244 68.744 140.664 68.8321 141.012 69.0121C141.359 69.1893 141.625 69.4502 141.81 69.7947C141.995 70.1364 142.09 70.5562 142.094 71.0543L142.098 71.5813C142.101 72.0406 142.014 72.4439 141.837 72.7911C141.66 73.1384 141.409 73.4087 141.084 73.6021C140.762 73.7954 140.383 73.8938 139.949 73.8971ZM139.938 72.9924C140.154 72.9907 140.341 72.9312 140.501 72.8137C140.663 72.6963 140.789 72.5335 140.879 72.3253C140.969 72.117 141.013 71.8746 141.01 71.5979L141.007 71.0791C141.004 70.7748 140.958 70.515 140.868 70.2999C140.78 70.0847 140.653 69.921 140.486 69.8089C140.319 69.6967 140.121 69.6415 139.892 69.6432C139.673 69.6449 139.487 69.7058 139.333 69.8259C139.179 69.9433 139.06 70.1144 138.975 70.3392C138.894 70.5639 138.852 70.8368 138.849 71.1578L138.852 71.6143C138.854 71.891 138.901 72.1328 138.991 72.3396C139.084 72.5464 139.211 72.7073 139.372 72.8223C139.536 72.9373 139.725 72.994 139.938 72.9924Z" fill="white"/>
<path d="M150.167 67.2707L150.129 62.3277L154.238 62.2965L154.276 67.2395L150.167 67.2707ZM151.252 66.4033L153.178 66.3887L153.153 63.1598L151.227 63.1744L151.252 66.4033ZM156.096 65.0798L156.081 63.1375L155.255 63.1438L155.249 62.2888L157.166 62.2742L157.187 65.0715L156.096 65.0798ZM158.467 67.2076L158.461 66.3485L160.868 66.3302L158.064 62.2674L159.281 62.2582L160.687 64.4182L162.269 66.6724L162.273 67.1787L158.467 67.2076ZM160.918 65.2673L160.239 64.4009L161.302 62.2428L162.522 62.2335L160.918 65.2673ZM163.416 67.17L163.41 66.3109L165.817 66.2926L163.014 62.2298L164.23 62.2205L165.637 64.3806L167.218 66.6347L167.222 67.1411L163.416 67.17ZM165.867 65.2297L165.188 64.3632L166.251 62.2052L167.471 62.1959L165.867 65.2297ZM168.673 67.13L168.642 63.042L168.156 63.0457L168.15 62.1907L169.731 62.1787L169.768 67.1217L168.673 67.13ZM173.058 67.1963C172.798 67.1983 172.513 67.1742 172.203 67.124C171.892 67.0765 171.596 67.0041 171.313 66.9066L171.514 66.104C171.78 66.1795 172.045 66.2356 172.308 66.2723C172.574 66.309 172.801 66.3267 172.989 66.3252C173.41 66.3165 173.729 66.2131 173.946 66.015C174.163 65.8169 174.27 65.531 174.267 65.1575L174.251 62.9994L172.582 63.012C172.512 63.1703 172.457 63.3423 172.42 63.5279C172.383 63.7136 172.365 63.9019 172.366 64.0928L172.369 64.3875C172.43 64.4064 172.504 64.4197 172.593 64.4273C172.682 64.4349 172.781 64.4369 172.892 64.4333L172.898 65.2302C172.68 65.2512 172.476 65.2569 172.288 65.2473C172.102 65.2376 171.929 65.2099 171.769 65.1641C171.608 65.1155 171.458 65.0516 171.319 64.9724L171.306 64.4412C171.304 64.1701 171.333 63.9084 171.392 63.6561C171.451 63.4011 171.535 63.1888 171.644 63.0192L171.096 63.0233L171.09 62.1684L175.336 62.1361L175.357 64.9791C175.361 65.4909 175.262 65.9109 175.06 66.2389C174.857 66.5642 174.583 66.8043 174.235 66.9591C173.888 67.1139 173.495 67.193 173.058 67.1963ZM176.836 67.068L177.158 64.1436C177.184 63.9165 177.242 63.7016 177.332 63.4989C177.422 63.2962 177.529 63.1391 177.652 63.0275C177.66 63.0191 177.67 63.0107 177.681 63.0023C177.695 62.9912 177.707 62.9814 177.718 62.973L177.71 62.9606C177.596 62.9781 177.457 63.011 177.291 63.0593C177.126 63.1048 176.981 63.1515 176.857 63.1995L176.614 62.4003C176.826 62.3212 177.061 62.253 177.318 62.1957C177.578 62.1357 177.843 62.088 178.114 62.0527C178.387 62.0174 178.646 61.9989 178.89 61.997C179.606 61.9916 180.153 62.1742 180.529 62.5449C180.908 62.9128 181.102 63.4578 181.11 64.1799L181.132 67.0353L179.019 67.0514L179.013 66.1964L180.038 66.1886L180.017 64.0471C180.015 63.6736 179.932 63.3878 179.77 63.1898C179.611 62.989 179.385 62.8898 179.091 62.892C178.842 62.8939 178.643 62.9923 178.492 63.1871C178.344 63.3819 178.252 63.6538 178.216 64.0027L177.915 67.0598L176.836 67.068ZM186.586 68.7205L186.542 62.9059L184.259 62.9233L184.252 62.0683L187.61 62.0428L187.661 68.7123L186.586 68.7205ZM189.472 64.8261L189.457 62.8838L188.631 62.89L188.625 62.0351L190.542 62.0205L190.563 64.8178L189.472 64.8261ZM195.321 66.9274L191.793 62.011L193.013 62.0017L196.533 66.9182L195.321 66.9274ZM192.022 66.9525L192.009 65.2551C192.005 64.7653 192.088 64.3773 192.257 64.091C192.43 63.8047 192.706 63.5923 193.087 63.4538L193.489 64.0028C193.2 64.1599 193.057 64.4253 193.06 64.7988L193.076 66.9445L192.022 66.9525ZM196.537 61.9749L194.9 65.0546L194.184 64.205L195.313 61.9842L196.537 61.9749ZM154.111 76.4356C154.112 76.1782 154.132 75.9609 154.172 75.7835C154.213 75.6033 154.279 75.4409 154.372 75.2964C154.468 75.149 154.597 74.9972 154.759 74.841C154.885 74.7211 154.998 74.6081 155.097 74.5022C155.198 74.3936 155.278 74.2809 155.335 74.1642C155.395 74.0448 155.424 73.909 155.423 73.7568C155.421 73.5078 155.357 73.3174 155.232 73.1855C155.109 73.0536 154.929 72.9886 154.691 72.9904C154.497 72.9919 154.322 73.0527 154.165 73.1729C154.011 73.2902 153.934 73.479 153.933 73.7391L152.866 73.7472C152.869 73.3875 152.95 73.0866 153.108 72.8447C153.27 72.6027 153.487 72.4212 153.76 72.3002C154.036 72.1763 154.344 72.1131 154.684 72.1105C155.249 72.1062 155.688 72.244 156.003 72.5238C156.32 72.8009 156.481 73.1954 156.485 73.7072C156.487 73.9507 156.44 74.1697 156.345 74.3641C156.252 74.5585 156.129 74.7407 155.975 74.9106C155.822 75.0778 155.656 75.2465 155.477 75.4166C155.32 75.5562 155.216 75.7064 155.165 75.8673C155.114 76.0281 155.086 76.2151 155.082 76.4282L154.111 76.4356ZM154.636 78.2827C154.45 78.2841 154.303 78.2313 154.194 78.1242C154.086 78.0171 154.031 77.8834 154.029 77.7229C154.028 77.5596 154.081 77.4236 154.188 77.3149C154.295 77.2034 154.442 77.147 154.627 77.1456C154.815 77.1441 154.963 77.1983 155.072 77.3082C155.181 77.4153 155.236 77.5504 155.237 77.7137C155.238 77.8742 155.185 78.0088 155.078 78.1175C154.971 78.2262 154.824 78.2813 154.636 78.2827ZM157.135 73.2748L161.273 73.2433L161.28 74.0983L160.429 74.1048L160.46 78.1928L159.364 78.2011L159.333 74.1131L157.142 74.1297L157.135 73.2748ZM162.704 76.0299L162.689 74.0876L161.863 74.0939L161.856 73.2389L163.774 73.2243L163.795 76.0216L162.704 76.0299ZM168.553 78.1313L165.025 73.2148L166.245 73.2055L169.765 78.1221L168.553 78.1313ZM165.253 78.1564L165.241 76.4589C165.237 75.9692 165.32 75.5811 165.489 75.2948C165.661 75.0085 165.938 74.7961 166.318 74.6577L166.721 75.2066C166.432 75.3638 166.289 75.6291 166.291 76.0026L166.308 78.1483L165.253 78.1564ZM169.769 73.1787L168.132 76.2584L167.416 75.4089L168.544 73.1881L169.769 73.1787ZM171.078 78.1121L171.047 74.024L170.562 74.0277L170.555 73.1728L172.136 73.1607L172.174 78.1037L171.078 78.1121ZM175.496 78.0785L175.471 74.7416C175.469 74.5037 175.399 74.3202 175.259 74.1912C175.123 74.0595 174.93 73.9945 174.681 73.9964L173.124 74.0082L173.118 73.1533L174.745 73.1409C175.309 73.1366 175.752 73.2799 176.072 73.5708C176.395 73.8616 176.559 74.2699 176.563 74.7956L176.588 78.0702L175.496 78.0785ZM180.056 78.1393C179.638 78.1425 179.272 78.0595 178.958 77.8903C178.644 77.7184 178.399 77.4781 178.222 77.1695C178.048 76.8582 177.96 76.4964 177.957 76.0841L177.934 73.1167L179.022 73.1084L179.045 76.1879C179.048 76.5199 179.141 76.789 179.325 76.9951C179.509 77.1985 179.749 77.2991 180.045 77.2968C180.342 77.2946 180.579 77.1904 180.757 76.9843C180.938 76.7754 181.027 76.5049 181.025 76.1729L181.013 74.658C181.011 74.4228 180.959 74.2448 180.856 74.1238C180.752 74.0001 180.6 73.939 180.398 73.9405C180.323 73.9411 180.243 73.9514 180.157 73.9714C180.071 73.9886 179.983 74.0128 179.892 74.044L179.762 73.3393C179.905 73.2497 180.067 73.1793 180.246 73.1281C180.426 73.0742 180.596 73.0466 180.756 73.0454C181.171 73.0422 181.499 73.1753 181.739 73.4447C181.979 73.714 182.1 74.0867 182.104 74.5626L182.115 76.0525C182.119 76.4648 182.034 76.8279 181.862 77.1419C181.693 77.4531 181.453 77.697 181.141 77.8737C180.833 78.0476 180.471 78.1361 180.056 78.1393ZM185.516 78.0978C185.09 78.101 184.714 78.0084 184.389 77.82C184.064 77.6315 183.808 77.365 183.623 77.0206C183.438 76.6761 183.341 76.2742 183.332 75.815L183.325 75.4332C183.323 75.2506 183.347 75.065 183.395 74.8765C183.443 74.6852 183.51 74.5104 183.595 74.352C183.682 74.1908 183.778 74.0656 183.882 73.9763C183.893 73.9679 183.903 73.9595 183.911 73.9511C183.922 73.94 183.933 73.9316 183.944 73.926L183.936 73.9094C183.844 73.924 183.727 73.9498 183.583 73.9868C183.443 74.0239 183.316 74.058 183.202 74.0893L182.993 73.2899C183.211 73.2218 183.453 73.1633 183.718 73.1142C183.986 73.0624 184.258 73.0229 184.535 72.9959C184.814 72.9661 185.075 72.9503 185.319 72.9485C185.811 72.9447 186.231 73.0328 186.578 73.2128C186.926 73.39 187.192 73.6509 187.377 73.9953C187.562 74.3371 187.657 74.7569 187.661 75.255L187.665 75.782C187.668 76.2413 187.581 76.6446 187.404 76.9918C187.227 77.3391 186.976 77.6094 186.651 77.8028C186.328 77.9961 185.95 78.0945 185.516 78.0978ZM185.505 77.193C185.72 77.1914 185.908 77.1319 186.068 77.0144C186.23 76.897 186.356 76.7342 186.446 76.526C186.536 76.3177 186.579 76.0753 186.577 75.7986L186.573 75.2798C186.571 74.9755 186.525 74.7157 186.435 74.5006C186.347 74.2854 186.22 74.1217 186.053 74.0096C185.886 73.8974 185.688 73.8422 185.458 73.8439C185.24 73.8456 185.053 73.9065 184.899 74.0266C184.745 74.144 184.626 74.3151 184.542 74.5399C184.461 74.7646 184.419 75.0375 184.416 75.3585L184.419 75.815C184.421 76.0917 184.467 76.3335 184.557 76.5403C184.65 76.7471 184.777 76.908 184.939 77.023C185.103 77.138 185.292 77.1947 185.505 77.193ZM192.278 77.9509L188.75 73.0344L189.97 73.0252L193.49 77.9417L192.278 77.9509ZM188.978 77.976L188.965 76.2785C188.962 75.7888 189.044 75.4008 189.214 75.1145C189.386 74.8282 189.662 74.6158 190.043 74.4773L190.446 75.0263C190.157 75.1834 190.013 75.4487 190.016 75.8223L190.032 77.968L188.978 77.976ZM193.494 72.9984L191.857 76.0781L191.141 75.2285L192.269 73.0077L193.494 72.9984Z" fill="white"/>
<defs>
<linearGradient id="paint0_linear_66_1618" x1="994.014" y1="721.36" x2="-261.581" y2="2396.44" gradientUnits="userSpaceOnUse">
<stop stop-color="#D5D5D5"/>
<stop offset="1" stop-color="#8D8D8D"/>
</linearGradient>
<linearGradient id="paint1_linear_66_1618" x1="1032.44" y1="733.069" x2="-223.156" y2="2408.15" gradientUnits="userSpaceOnUse">
<stop stop-color="#D5D5D5"/>
<stop offset="1" stop-color="#8D8D8D"/>
</linearGradient>
<linearGradient id="paint2_linear_66_1618" x1="1032.44" y1="733.069" x2="-223.156" y2="2408.15" gradientUnits="userSpaceOnUse">
<stop stop-color="#D5D5D5"/>
<stop offset="1" stop-color="#8D8D8D"/>
</linearGradient>
<linearGradient id="paint3_linear_66_1618" x1="1124.65" y1="759.037" x2="-130.95" y2="2434.12" gradientUnits="userSpaceOnUse">
<stop stop-color="#D5D5D5"/>
<stop offset="1" stop-color="#8D8D8D"/>
</linearGradient>
<linearGradient id="paint4_linear_66_1618" x1="1070.64" y1="758.448" x2="-184.959" y2="2433.53" gradientUnits="userSpaceOnUse">
<stop stop-color="#D5D5D5"/>
<stop offset="1" stop-color="#8D8D8D"/>
</linearGradient>
</defs>
</svg>
