<svg width="384" height="146" viewBox="0 0 384 146" fill="none" xmlns="http://www.w3.org/2000/svg">
<path d="M70.1765 32.4809L135.836 50.2814L204.969 97.866L291.74 97.2063L341.252 48.7197" stroke="#CDCDCD" stroke-width="2.95146"/>
<path d="M59.0538 2.4597C64.948 30.0413 64.948 30.0413 93.0756 27.9614C64.948 30.0413 64.948 30.0413 70.8423 57.6228C64.948 30.0413 64.948 30.0413 36.8205 32.1211C64.948 30.0413 64.948 30.0413 59.0538 2.4597Z" fill="url(#paint0_linear_62_1030)" stroke="#565555" stroke-width="0.590314"/>
<path d="M127.097 23.1936C132.991 50.7751 132.991 50.7751 161.119 48.6953C132.991 50.7751 132.991 50.7751 138.885 78.3567C132.991 50.7751 132.991 50.7751 104.864 52.8549C132.991 50.7751 132.991 50.7751 127.097 23.1936Z" fill="url(#paint1_linear_62_1030)" stroke="#565555" stroke-width="0.590314"/>
<path d="M127.097 23.1936C132.991 50.7751 132.991 50.7751 161.119 48.6953C132.991 50.7751 132.991 50.7751 138.885 78.3567C132.991 50.7751 132.991 50.7751 104.864 52.8549C132.991 50.7751 132.991 50.7751 127.097 23.1936Z" fill="url(#paint2_linear_62_1030)" stroke="#565555" stroke-width="0.590314"/>
<path d="M290.372 69.177C296.266 96.7585 296.266 96.7585 324.394 94.6787C296.266 96.7585 296.266 96.7585 302.161 124.34C296.266 96.7585 296.266 96.7585 268.139 98.8384C296.266 96.7585 296.266 96.7585 290.372 69.177Z" fill="url(#paint3_linear_62_1030)" stroke="#565555" stroke-width="0.590314"/>
<path d="M194.734 68.1332C200.628 95.7147 200.628 95.7147 228.756 93.6349C200.628 95.7147 200.628 95.7147 206.523 123.296C200.628 95.7147 200.628 95.7147 172.501 97.7945C200.628 95.7147 200.628 95.7147 194.734 68.1332Z" fill="url(#paint4_linear_62_1030)" stroke="#565555" stroke-width="0.590314"/>
<path d="M330.152 21.6498C336.046 49.2313 336.046 49.2313 364.174 47.1515C336.046 49.2313 336.046 49.2313 341.94 76.8129C336.046 49.2313 336.046 49.2313 307.919 51.3112C336.046 49.2313 336.046 49.2313 330.152 21.6498Z" fill="url(#paint5_linear_62_1030)" stroke="#565555" stroke-width="0.590314"/>
<path d="M36.2479 48.7393L36.1963 41.9528L35.3902 41.9589L35.3794 40.5396L38.0044 40.5196L38.0668 48.7255L36.2479 48.7393ZM45.2081 48.6712L45.1683 43.4349C45.1642 42.9021 45.0326 42.5126 44.7735 42.2665C44.5144 42.0159 44.1115 41.8926 43.5649 41.8967L40.3404 41.9213L40.3296 40.5019L43.6713 40.4765C44.7277 40.4685 45.5404 40.7242 46.1094 41.2435C46.6829 41.7582 46.9734 42.507 46.9808 43.49L47.0201 48.6574L45.2081 48.6712ZM40.3783 48.7079L40.3569 45.8969C40.3529 45.3686 40.4027 44.9755 40.5064 44.7175C40.6147 44.4594 40.7074 44.2681 40.7845 44.1435L42.2383 44.1324C42.1984 44.3256 42.1657 44.5487 42.14 44.8015C42.1144 45.0544 42.1029 45.3599 42.1057 45.7182L42.1283 48.6946L40.3783 48.7079ZM49.2351 48.6406L49.7701 43.7858C49.8132 43.4088 49.9092 43.052 50.0582 42.7156C50.2073 42.3791 50.3844 42.1182 50.5897 41.9329C50.6034 41.919 50.6194 41.9051 50.6376 41.8912C50.6605 41.8727 50.681 41.8564 50.6993 41.8425L50.6854 41.8219C50.4972 41.8509 50.2657 41.9055 49.9907 41.9857C49.7156 42.0613 49.4751 42.1389 49.269 42.2186L48.8661 40.8918C49.2188 40.7605 49.6084 40.6473 50.0349 40.5522C50.4659 40.4524 50.9063 40.3733 51.356 40.3148C51.8104 40.2562 52.2396 40.2254 52.6438 40.2223C53.8335 40.2132 54.7407 40.5164 55.3655 41.1318C55.9949 41.7425 56.3164 42.6473 56.3301 43.8461L56.3662 48.5864L52.8592 48.613L52.8484 47.1937L54.5502 47.1808L54.5163 43.6256C54.5116 43.0056 54.3748 42.5312 54.1058 42.2025C53.8415 41.8692 53.4659 41.7043 52.979 41.708C52.5656 41.7112 52.2338 41.8745 51.9836 42.1979C51.738 42.5213 51.5853 42.9727 51.5253 43.5519L51.0265 48.627L49.2351 48.6406ZM14.429 64.9085C14.4304 64.4813 14.4644 64.1204 14.531 63.8259C14.5977 63.5268 14.7082 63.2573 14.8625 63.0172C15.0214 62.7726 15.2354 62.5206 15.5045 62.2613C15.7142 62.0622 15.9012 61.8747 16.0652 61.6989C16.2338 61.5185 16.3656 61.3315 16.4606 61.1378C16.5601 60.9395 16.6089 60.7141 16.607 60.4614C16.6039 60.0481 16.4981 59.7319 16.2897 59.513C16.0859 59.2941 15.7865 59.1861 15.3915 59.1891C15.07 59.1915 14.7791 59.2925 14.5188 59.492C14.263 59.6869 14.1345 60.0002 14.1332 60.432L12.3624 60.4455C12.3671 59.8483 12.5011 59.3489 12.7645 58.9472C13.0324 58.5456 13.393 58.2442 13.8463 58.0433C14.3041 57.8377 14.8154 57.7327 15.3804 57.7284C16.3174 57.7213 17.0473 57.95 17.5699 58.4146C18.097 58.8745 18.3638 59.5294 18.3703 60.3791C18.3734 60.7833 18.2957 61.1468 18.1374 61.4696C17.9837 61.7923 17.7793 62.0947 17.5242 62.3769C17.2691 62.6544 16.9933 62.9344 16.6969 63.2169C16.4368 63.4485 16.2641 63.6979 16.1789 63.965C16.0936 64.2321 16.0478 64.5425 16.0413 64.8962L14.429 64.9085ZM15.2998 67.9749C14.9921 67.9773 14.748 67.8896 14.5675 67.7118C14.387 67.534 14.2957 67.3119 14.2937 67.0455C14.2916 66.7745 14.3795 66.5487 14.5573 66.3683C14.735 66.1832 14.9777 66.0894 15.2855 66.0871C15.5978 66.0847 15.8443 66.1747 16.0248 66.3571C16.2053 66.5349 16.2966 66.7593 16.2986 67.0303C16.3007 67.2967 16.2128 67.5201 16.035 67.7006C15.8572 67.8811 15.6122 67.9726 15.2998 67.9749ZM19.4499 59.6612L26.3192 59.609L26.33 61.0283L24.9175 61.0391L24.9691 67.8256L23.1502 67.8395L23.0986 61.0529L19.4607 61.0806L19.4499 59.6612ZM28.6935 64.235L28.669 61.0105L27.2979 61.021L27.2871 59.6016L30.4702 59.5774L30.5055 64.2213L28.6935 64.235ZM38.4042 67.7235L32.5474 59.5617L34.573 59.5463L40.416 67.7082L38.4042 67.7235ZM32.9267 67.7651L32.9053 64.9472C32.8991 64.1341 33.0366 63.49 33.3178 63.0147C33.6036 62.5394 34.0625 62.1868 34.6947 61.9569L35.3631 62.8683C34.8828 63.1292 34.6449 63.5697 34.6497 64.1897L34.6767 67.7518L32.9267 67.7651ZM40.4226 59.5018L37.7053 64.6144L36.5163 63.204L38.39 59.5172L40.4226 59.5018ZM42.5966 67.6916L42.545 60.9051L41.7388 60.9112L41.7281 59.4919L44.3531 59.4719L44.4155 67.6778L42.5966 67.6916ZM49.9307 67.6359L49.8886 62.0964C49.8856 61.7013 49.7685 61.3968 49.5372 61.1826C49.3104 60.9639 48.9903 60.8561 48.577 60.8592L45.9932 60.8788L45.9824 59.4595L48.6833 59.439C49.6203 59.4319 50.3548 59.6697 50.8867 60.1526C51.4232 60.6354 51.6948 61.3132 51.7015 62.1859L51.7428 67.6221L49.9307 67.6359ZM57.5004 67.7368C56.8068 67.7421 56.1994 67.6043 55.6782 67.3234C55.157 67.038 54.7497 66.6392 54.4564 66.1269C54.1677 65.6101 54.0207 65.0094 54.0155 64.325L53.9781 59.3987L55.7832 59.385L55.8221 64.4973C55.8263 65.0485 55.9813 65.4952 56.287 65.8374C56.5928 66.175 56.9914 66.3419 57.4829 66.3382C57.9743 66.3345 58.3681 66.1615 58.664 65.8193C58.9646 65.4725 59.1128 65.0235 59.1086 64.4723L59.0894 61.9575C59.0865 61.5671 58.9993 61.2715 58.8278 61.0707C58.6562 60.8652 58.4028 60.7638 58.0675 60.7664C57.9435 60.7673 57.8104 60.7844 57.6683 60.8176C57.5261 60.8463 57.3794 60.8864 57.2282 60.9381L57.0126 59.7684C57.2503 59.6196 57.5182 59.5027 57.8161 59.4178C58.114 59.3282 58.3962 59.2825 58.6626 59.2804C59.3516 59.2752 59.8953 59.4961 60.2937 59.9433C60.6922 60.3904 60.8944 61.009 60.9004 61.7991L60.9192 64.2725C60.9244 64.9569 60.7843 65.5597 60.4989 66.081C60.218 66.5976 59.8191 67.0026 59.3023 67.2959C58.79 67.5846 58.1894 67.7316 57.5004 67.7368ZM66.5639 67.6679C65.8566 67.6733 65.233 67.5195 64.6931 67.2067C64.1533 66.8938 63.7296 66.4515 63.4221 65.8796C63.1146 65.3078 62.9534 64.6406 62.9384 63.8782L62.9267 63.2444C62.9244 62.9412 62.9634 62.6332 63.0437 62.3202C63.1239 62.0026 63.2343 61.7124 63.3747 61.4495C63.5196 61.182 63.6788 60.9741 63.8522 60.8257C63.8705 60.8118 63.8865 60.7979 63.9002 60.784C63.9184 60.7655 63.9367 60.7516 63.955 60.7423L63.941 60.7148C63.7896 60.7389 63.5947 60.7818 63.3563 60.8433C63.1225 60.9048 62.9116 60.9615 62.7237 61.0135L62.3759 59.6863C62.738 59.5733 63.1392 59.4761 63.5795 59.3946C64.0245 59.3086 64.4764 59.2431 64.9354 59.1983C65.399 59.1488 65.8329 59.1226 66.2371 59.1195C67.0547 59.1133 67.7517 59.2596 68.3282 59.5584C68.9046 59.8525 69.3466 60.2856 69.6541 60.8574C69.9616 61.4247 70.1185 62.1217 70.1248 62.9485L70.1314 63.8235C70.1372 64.586 69.993 65.2555 69.6988 65.8319C69.4046 66.4083 68.9877 66.8571 68.4481 67.1781C67.9131 67.4991 67.2851 67.6624 66.5639 67.6679ZM66.5456 66.1659C66.9039 66.1632 67.2155 66.0644 67.4804 65.8694C67.75 65.6745 67.9592 65.4041 68.1082 65.0585C68.2571 64.7128 68.3299 64.3104 68.3264 63.851L68.3198 62.9898C68.316 62.4845 68.2392 62.0533 68.0895 61.6962C67.9444 61.339 67.7333 61.0673 67.4563 60.881C67.1793 60.6948 66.8501 60.6031 66.4689 60.606C66.106 60.6088 65.7967 60.7099 65.541 60.9094C65.2853 61.1042 65.0876 61.3883 64.948 61.7614C64.8131 62.1345 64.743 62.5875 64.7379 63.1204L64.7436 63.8783C64.7471 64.3376 64.8237 64.739 64.9733 65.0823C65.1275 65.4257 65.3385 65.6928 65.6064 65.8837C65.8789 66.0745 66.1919 66.1686 66.5456 66.1659ZM77.7897 67.4241L71.9329 59.2622L73.9585 59.2468L79.8016 67.4088L77.7897 67.4241ZM72.3122 67.4657L72.2908 64.6477C72.2846 63.8347 72.4221 63.1906 72.7033 62.7153C72.9891 62.24 73.4481 61.8874 74.0802 61.6575L74.7486 62.5688C74.2683 62.8297 74.0305 63.2702 74.0352 63.8903L74.0623 67.4524L72.3122 67.4657ZM79.8081 59.2024L77.0908 64.315L75.9018 62.9046L77.7755 59.2178L79.8081 59.2024Z" fill="white"/>
<path d="M111.751 77.6061L111.709 72.1457C111.707 71.8174 111.611 71.5168 111.423 71.2438L107.692 65.8261L109.846 65.8097L112.27 69.6057L113.051 70.717C113.224 70.9606 113.348 71.2096 113.424 71.4638C113.499 71.718 113.538 72.0068 113.541 72.3302L113.581 77.5922L111.751 77.6061ZM112.745 71.1382L111.543 69.6039L113.425 65.7825L115.585 65.7661L112.745 71.1382ZM117.552 74.5046L117.496 67.2656L116.637 67.2721L116.625 65.7582L119.425 65.7369L119.492 74.4898L117.552 74.5046ZM121.847 74.4719L121.835 72.9506L126.098 72.9182L121.134 65.7239L123.287 65.7075L125.778 69.5325L128.579 73.5241L128.586 74.4207L121.847 74.4719ZM126.187 71.036L124.984 69.5017L126.866 65.6803L129.027 65.6639L126.187 71.036ZM131.486 70.5989L131.46 67.1594L129.997 67.1705L129.986 65.6566L133.381 65.6308L133.419 70.5842L131.486 70.5989ZM139.156 74.5167C138.695 74.5202 138.19 74.4775 137.641 74.3886C137.091 74.3046 136.566 74.1763 136.065 74.0037L136.421 72.5825C136.893 72.7161 137.362 72.8154 137.827 72.8805C138.298 72.9455 138.7 72.9768 139.034 72.9742C139.778 72.9588 140.343 72.7756 140.727 72.4248C141.112 72.074 141.301 71.5679 141.296 70.9065L141.267 67.0849L138.313 67.1073C138.187 67.3876 138.092 67.6921 138.026 68.0209C137.96 68.3496 137.928 68.6831 137.93 69.0211L137.934 69.5429C138.042 69.5764 138.175 69.5999 138.332 69.6134C138.489 69.6269 138.665 69.6305 138.861 69.6241L138.872 71.0351C138.485 71.0724 138.125 71.0825 137.792 71.0654C137.463 71.0483 137.157 70.9992 136.872 70.918C136.587 70.832 136.322 70.7189 136.075 70.5787L136.054 69.6381C136.05 69.1579 136.1 68.6945 136.205 68.2478C136.309 67.7963 136.458 67.4203 136.652 67.1199L135.682 67.1273L135.67 65.6134L143.189 65.5562L143.227 70.5904C143.234 71.4969 143.058 72.2405 142.7 72.8214C142.342 73.3974 141.855 73.8225 141.24 74.0966C140.624 74.3708 139.93 74.5108 139.156 74.5167ZM93.7794 83.9324L101.107 83.8767L101.118 85.3906L99.6115 85.4021L99.6665 92.6411L97.7263 92.6558L97.6713 85.4168L93.7909 85.4463L93.7794 83.9324ZM103.639 88.8111L103.613 85.3716L102.151 85.3828L102.139 83.8688L105.534 83.843L105.572 88.7964L103.639 88.8111ZM113.997 92.5321L107.75 83.8262L109.911 83.8097L116.143 92.5158L113.997 92.5321ZM108.155 92.5765L108.132 89.5707C108.125 88.7035 108.272 88.0164 108.572 87.5094C108.877 87.0024 109.366 86.6263 110.04 86.3811L110.753 87.3532C110.241 87.6315 109.987 88.1014 109.992 88.7628L110.021 92.5623L108.155 92.5765ZM116.15 83.7623L113.252 89.2157L111.984 87.7113L113.982 83.7788L116.15 83.7623ZM118.469 92.4981L118.414 85.2591L117.554 85.2657L117.543 83.7517L120.343 83.7304L120.409 92.4834L118.469 92.4981ZM126.292 92.4386L126.247 86.5299C126.244 86.1085 126.119 85.7836 125.872 85.5552C125.631 85.3218 125.289 85.2068 124.848 85.2102L122.092 85.2312L122.081 83.7172L124.962 83.6953C125.961 83.6877 126.745 83.9414 127.312 84.4565C127.884 84.9715 128.174 85.6945 128.181 86.6254L128.225 92.4239L126.292 92.4386ZM134.367 92.5463C133.627 92.5519 132.979 92.405 132.423 92.1054C131.867 91.8009 131.432 91.3755 131.12 90.8291C130.812 90.2778 130.655 89.6371 130.649 88.9071L130.609 83.6524L132.535 83.6377L132.576 89.0909C132.581 89.6788 132.746 90.1553 133.072 90.5203C133.398 90.8804 133.824 91.0584 134.348 91.0545C134.872 91.0505 135.292 90.866 135.608 90.501C135.928 90.1311 136.086 89.6522 136.082 89.0642L136.062 86.3817C136.058 85.9653 135.965 85.65 135.782 85.4358C135.599 85.2167 135.329 85.1085 134.971 85.1112C134.839 85.1122 134.697 85.1304 134.546 85.1659C134.394 85.1964 134.237 85.2393 134.076 85.2944L133.846 84.0467C134.1 83.888 134.386 83.7633 134.703 83.6727C135.021 83.5772 135.322 83.5283 135.606 83.5262C136.341 83.5206 136.921 83.7563 137.346 84.2332C137.771 84.7102 137.987 85.37 137.993 86.2127L138.013 88.8511C138.019 89.5811 137.869 90.2241 137.565 90.7801C137.265 91.3312 136.84 91.7631 136.289 92.076C135.742 92.3839 135.101 92.5407 134.367 92.5463ZM144.034 92.4728C143.28 92.4785 142.615 92.3146 142.039 91.9808C141.463 91.6471 141.011 91.1753 140.683 90.5653C140.355 89.9553 140.183 89.2437 140.167 88.4305L140.155 87.7544C140.152 87.431 140.194 87.1024 140.279 86.7686C140.365 86.4299 140.483 86.1203 140.632 85.8399C140.787 85.5545 140.957 85.3327 141.142 85.1745C141.161 85.1597 141.178 85.1448 141.193 85.13C141.212 85.1103 141.232 85.0954 141.251 85.0855L141.237 85.0562C141.075 85.0819 140.867 85.1276 140.613 85.1932C140.363 85.2588 140.139 85.3193 139.938 85.3748L139.567 83.9591C139.953 83.8386 140.381 83.7349 140.851 83.648C141.326 83.5562 141.808 83.4864 142.297 83.4386C142.792 83.3858 143.255 83.3578 143.686 83.3545C144.558 83.3479 145.301 83.5039 145.916 83.8226C146.531 84.1364 147.003 84.5983 147.331 85.2083C147.659 85.8134 147.826 86.5569 147.833 87.4388L147.84 88.3722C147.846 89.1855 147.692 89.8996 147.378 90.5144C147.064 91.1293 146.62 91.6079 146.044 91.9504C145.473 92.2928 144.804 92.467 144.034 92.4728ZM144.015 90.8707C144.397 90.8678 144.729 90.7624 145.012 90.5545C145.299 90.3465 145.523 90.0581 145.682 89.6895C145.84 89.3208 145.918 88.8914 145.914 88.4015L145.907 87.4828C145.903 86.9439 145.821 86.4839 145.662 86.103C145.507 85.722 145.282 85.4321 144.986 85.2335C144.691 85.0348 144.34 84.9371 143.933 84.9402C143.546 84.9431 143.216 85.051 142.943 85.2637C142.67 85.4716 142.46 85.7745 142.311 86.1725C142.167 86.5705 142.092 87.0537 142.087 87.6221L142.093 88.4305C142.096 88.9205 142.178 89.3486 142.338 89.7149C142.502 90.0811 142.727 90.366 143.013 90.5697C143.304 90.7732 143.638 90.8736 144.015 90.8707ZM156.008 92.2127L149.761 83.5068L151.922 83.4903L158.154 92.1964L156.008 92.2127ZM150.166 92.2571L150.143 89.2513C150.136 88.3841 150.283 87.697 150.583 87.19C150.888 86.6831 151.377 86.3069 152.052 86.0617L152.765 87.0338C152.252 87.3121 151.999 87.782 152.004 88.4434L152.033 92.243L150.166 92.2571ZM158.161 83.4429L155.263 88.8963L153.995 87.392L155.993 83.4594L158.161 83.4429Z" fill="white"/>
<path d="M156.993 120.791L156.926 112.038L164.202 111.982L164.269 120.735L156.993 120.791ZM158.914 119.255L162.324 119.229L162.281 113.511L158.871 113.537L158.914 119.255ZM167.492 116.911L167.466 113.472L166.003 113.483L165.992 111.969L169.387 111.943L169.425 116.896L167.492 116.911ZM171.691 120.679L171.68 119.158L175.942 119.125L170.978 111.931L173.131 111.915L175.622 115.739L178.424 119.731L178.43 120.628L171.691 120.679ZM176.031 117.243L174.828 115.709L176.71 111.887L178.871 111.871L176.031 117.243ZM180.455 120.612L180.443 119.091L184.706 119.059L179.742 111.864L181.895 111.848L184.386 115.673L187.187 119.664L187.194 120.561L180.455 120.612ZM184.795 117.176L183.592 115.642L185.474 111.821L187.635 111.804L184.795 117.176ZM189.763 120.542L189.708 113.303L188.848 113.309L188.836 111.795L191.636 111.774L191.703 120.527L189.763 120.542ZM197.528 120.659C197.068 120.662 196.563 120.62 196.013 120.531C195.464 120.447 194.939 120.318 194.438 120.146L194.794 118.725C195.266 118.858 195.734 118.958 196.2 119.023C196.671 119.088 197.073 119.119 197.406 119.116C198.151 119.101 198.716 118.918 199.1 118.567C199.484 118.216 199.674 117.71 199.669 117.049L199.64 113.227L196.686 113.249C196.56 113.53 196.465 113.834 196.399 114.163C196.333 114.492 196.301 114.825 196.303 115.163L196.307 115.685C196.415 115.719 196.548 115.742 196.705 115.756C196.862 115.769 197.038 115.773 197.234 115.766L197.245 117.177C196.858 117.215 196.498 117.225 196.165 117.208C195.836 117.19 195.529 117.141 195.245 117.06C194.96 116.974 194.694 116.861 194.448 116.721L194.426 115.78C194.423 115.3 194.473 114.837 194.578 114.39C194.682 113.938 194.831 113.562 195.025 113.262L194.055 113.269L194.043 111.756L201.561 111.698L201.6 116.733C201.607 117.639 201.431 118.383 201.073 118.964C200.715 119.54 200.228 119.965 199.613 120.239C198.997 120.513 198.303 120.653 197.528 120.659ZM204.218 120.432L204.789 115.253C204.835 114.851 204.937 114.47 205.096 114.112C205.255 113.753 205.444 113.474 205.663 113.277C205.678 113.262 205.695 113.247 205.714 113.232C205.739 113.212 205.761 113.195 205.78 113.18L205.765 113.158C205.565 113.189 205.318 113.248 205.024 113.333C204.731 113.414 204.474 113.496 204.255 113.581L203.825 112.166C204.201 112.026 204.617 111.905 205.072 111.804C205.531 111.698 206.001 111.613 206.481 111.551C206.965 111.488 207.423 111.455 207.854 111.452C209.123 111.442 210.091 111.766 210.757 112.422C211.429 113.074 211.772 114.039 211.786 115.318L211.825 120.374L208.084 120.402L208.073 118.888L209.888 118.874L209.852 115.082C209.847 114.421 209.701 113.915 209.414 113.564C209.132 113.209 208.731 113.033 208.212 113.037C207.771 113.04 207.417 113.214 207.15 113.559C206.888 113.904 206.725 114.386 206.661 115.004L206.129 120.417L204.218 120.432ZM221.483 123.358L221.404 113.062L217.362 113.092L217.351 111.578L223.296 111.533L223.386 123.343L221.483 123.358ZM226.593 116.462L226.567 113.022L225.105 113.033L225.093 111.519L228.488 111.494L228.526 116.447L226.593 116.462ZM236.951 120.183L230.704 111.477L232.865 111.46L239.097 120.166L236.951 120.183ZM231.109 120.227L231.086 117.221C231.079 116.354 231.226 115.667 231.526 115.16C231.831 114.653 232.32 114.277 232.995 114.032L233.708 115.004C233.195 115.282 232.941 115.752 232.947 116.413L232.975 120.213L231.109 120.227ZM239.104 111.413L236.206 116.866L234.938 115.362L236.936 111.429L239.104 111.413ZM163.974 136.541C163.975 136.085 164.011 135.7 164.082 135.386C164.153 135.067 164.271 134.78 164.436 134.524C164.605 134.263 164.834 133.994 165.121 133.717C165.344 133.505 165.544 133.305 165.719 133.118C165.899 132.925 166.039 132.726 166.141 132.519C166.247 132.307 166.299 132.067 166.297 131.798C166.293 131.357 166.181 131.019 165.958 130.786C165.741 130.552 165.422 130.437 165 130.44C164.657 130.443 164.347 130.551 164.069 130.763C163.796 130.971 163.659 131.306 163.658 131.766L161.769 131.781C161.774 131.143 161.917 130.611 162.198 130.182C162.484 129.754 162.868 129.433 163.352 129.218C163.84 128.999 164.386 128.887 164.988 128.882C165.988 128.875 166.766 129.119 167.324 129.614C167.886 130.105 168.171 130.803 168.178 131.71C168.181 132.141 168.098 132.529 167.929 132.873C167.765 133.217 167.547 133.54 167.275 133.841C167.003 134.137 166.709 134.435 166.393 134.737C166.115 134.984 165.931 135.25 165.84 135.535C165.749 135.82 165.7 136.151 165.693 136.528L163.974 136.541ZM164.902 139.812C164.574 139.814 164.314 139.721 164.121 139.531C163.929 139.342 163.831 139.105 163.829 138.821C163.827 138.531 163.921 138.291 164.11 138.098C164.3 137.901 164.559 137.801 164.887 137.798C165.22 137.796 165.483 137.892 165.676 138.086C165.868 138.276 165.966 138.515 165.968 138.804C165.97 139.088 165.876 139.327 165.687 139.519C165.497 139.712 165.236 139.809 164.902 139.812ZM169.329 130.944L176.656 130.888L176.668 132.402L175.161 132.414L175.216 139.653L173.276 139.667L173.221 132.428L169.341 132.458L169.329 130.944ZM179.189 135.823L179.163 132.383L177.7 132.394L177.689 130.88L181.084 130.855L181.122 135.808L179.189 135.823ZM189.547 139.544L183.3 130.838L185.46 130.821L191.693 139.527L189.547 139.544ZM183.704 139.588L183.682 136.582C183.675 135.715 183.822 135.028 184.122 134.521C184.426 134.014 184.916 133.638 185.59 133.393L186.303 134.365C185.791 134.643 185.537 135.113 185.542 135.774L185.571 139.574L183.704 139.588ZM191.7 130.774L188.802 136.227L187.533 134.723L189.532 130.79L191.7 130.774ZM194.019 139.51L193.964 132.271L193.104 132.277L193.093 130.763L195.893 130.742L195.959 139.495L194.019 139.51ZM201.842 139.45L201.797 133.541C201.794 133.12 201.669 132.795 201.422 132.567C201.18 132.333 200.839 132.218 200.398 132.222L197.642 132.243L197.631 130.729L200.511 130.707C201.511 130.699 202.294 130.953 202.862 131.468C203.434 131.983 203.724 132.706 203.731 133.637L203.775 139.436L201.842 139.45ZM209.916 139.558C209.176 139.564 208.529 139.417 207.973 139.117C207.417 138.813 206.982 138.387 206.669 137.841C206.361 137.289 206.205 136.649 206.199 135.919L206.159 130.664L208.085 130.649L208.126 136.102C208.131 136.69 208.296 137.167 208.622 137.532C208.948 137.892 209.373 138.07 209.898 138.066C210.422 138.062 210.842 137.878 211.158 137.513C211.478 137.143 211.636 136.664 211.632 136.076L211.611 133.393C211.608 132.977 211.515 132.662 211.332 132.447C211.149 132.228 210.879 132.12 210.521 132.123C210.389 132.124 210.247 132.142 210.095 132.177C209.944 132.208 209.787 132.251 209.626 132.306L209.396 131.058C209.65 130.9 209.935 130.775 210.253 130.684C210.571 130.589 210.872 130.54 211.156 130.538C211.891 130.532 212.471 130.768 212.896 131.245C213.321 131.722 213.537 132.382 213.543 133.224L213.563 135.863C213.569 136.593 213.419 137.236 213.115 137.792C212.815 138.343 212.39 138.775 211.838 139.088C211.292 139.396 210.651 139.552 209.916 139.558ZM219.584 139.484C218.83 139.49 218.164 139.326 217.589 138.992C217.013 138.659 216.561 138.187 216.233 137.577C215.905 136.967 215.733 136.255 215.717 135.442L215.704 134.766C215.702 134.443 215.744 134.114 215.829 133.78C215.915 133.441 216.032 133.132 216.182 132.851C216.337 132.566 216.507 132.344 216.692 132.186C216.711 132.171 216.728 132.156 216.743 132.142C216.762 132.122 216.782 132.107 216.801 132.097L216.786 132.068C216.625 132.094 216.417 132.139 216.163 132.205C215.913 132.27 215.688 132.331 215.488 132.386L215.117 130.971C215.503 130.85 215.931 130.746 216.401 130.66C216.875 130.568 217.357 130.498 217.847 130.45C218.342 130.397 218.804 130.369 219.235 130.366C220.108 130.359 220.851 130.516 221.466 130.834C222.081 131.148 222.552 131.61 222.88 132.22C223.208 132.825 223.376 133.568 223.382 134.45L223.389 135.384C223.396 136.197 223.242 136.911 222.928 137.526C222.614 138.141 222.17 138.62 221.594 138.962C221.023 139.304 220.353 139.479 219.584 139.484ZM219.565 137.882C219.947 137.879 220.279 137.774 220.562 137.566C220.849 137.358 221.072 137.07 221.231 136.701C221.39 136.332 221.468 135.903 221.464 135.413L221.457 134.494C221.453 133.955 221.371 133.496 221.211 133.115C221.057 132.734 220.831 132.444 220.536 132.245C220.24 132.046 219.889 131.949 219.483 131.952C219.096 131.955 218.766 132.063 218.493 132.275C218.22 132.483 218.009 132.786 217.86 133.184C217.717 133.582 217.642 134.065 217.636 134.634L217.642 135.442C217.646 135.932 217.728 136.36 217.887 136.726C218.052 137.093 218.277 137.378 218.563 137.581C218.853 137.785 219.187 137.885 219.565 137.882ZM231.558 139.224L225.311 130.518L227.472 130.502L233.704 139.208L231.558 139.224ZM225.716 139.269L225.693 136.263C225.686 135.396 225.833 134.709 226.133 134.202C226.438 133.695 226.927 133.319 227.601 133.073L228.314 134.045C227.802 134.324 227.548 134.794 227.553 135.455L227.582 139.255L225.716 139.269ZM233.711 130.454L230.813 135.908L229.545 134.404L231.543 130.471L233.711 130.454Z" fill="white"/>
<path d="M260.32 120.005L260.253 111.252L267.529 111.197L267.596 119.95L260.32 120.005ZM262.241 118.469L265.651 118.443L265.608 112.725L262.198 112.751L262.241 118.469ZM270.819 116.126L270.793 112.686L269.33 112.697L269.319 111.183L272.714 111.157L272.752 116.111L270.819 116.126ZM274.444 111.144L281.772 111.089L281.783 112.603L280.277 112.614L280.332 119.853L278.391 119.868L278.336 112.629L274.456 112.658L274.444 111.144ZM284.304 116.023L284.278 112.584L282.816 112.595L282.804 111.081L286.199 111.055L286.237 116.008L284.304 116.023ZM294.662 119.744L288.415 111.038L290.576 111.022L296.808 119.728L294.662 119.744ZM288.82 119.788L288.797 116.783C288.79 115.915 288.937 115.228 289.237 114.721C289.542 114.214 290.031 113.838 290.706 113.593L291.419 114.565C290.906 114.843 290.653 115.313 290.658 115.975L290.686 119.774L288.82 119.788ZM296.815 110.974L293.917 116.428L292.649 114.923L294.647 110.991L296.815 110.974ZM299.134 119.71L299.079 112.471L298.219 112.478L298.208 110.964L301.008 110.942L301.074 119.695L299.134 119.71ZM306.957 119.651L306.912 113.742C306.909 113.32 306.784 112.996 306.538 112.767C306.296 112.534 305.954 112.419 305.513 112.422L302.757 112.443L302.746 110.929L305.627 110.907C306.626 110.9 307.41 111.153 307.977 111.668C308.549 112.183 308.839 112.906 308.846 113.837L308.89 119.636L306.957 119.651ZM315.032 119.758C314.292 119.764 313.644 119.617 313.088 119.317C312.532 119.013 312.098 118.587 311.785 118.041C311.477 117.49 311.32 116.849 311.314 116.119L311.274 110.864L313.2 110.85L313.241 116.303C313.246 116.891 313.411 117.367 313.737 117.732C314.064 118.092 314.489 118.27 315.013 118.266C315.537 118.262 315.957 118.078 316.273 117.713C316.593 117.343 316.752 116.864 316.747 116.276L316.727 113.594C316.723 113.177 316.63 112.862 316.448 112.648C316.265 112.429 315.994 112.32 315.637 112.323C315.504 112.324 315.362 112.342 315.211 112.378C315.059 112.408 314.903 112.451 314.741 112.506L314.511 111.259C314.765 111.1 315.051 110.975 315.368 110.885C315.686 110.789 315.987 110.74 316.271 110.738C317.006 110.732 317.586 110.968 318.011 111.445C318.436 111.922 318.652 112.582 318.658 113.425L318.678 116.063C318.684 116.793 318.534 117.436 318.23 117.992C317.93 118.543 317.505 118.975 316.954 119.288C316.407 119.596 315.767 119.753 315.032 119.758ZM324.699 119.685C323.945 119.69 323.28 119.526 322.704 119.193C322.128 118.859 321.676 118.387 321.348 117.777C321.02 117.167 320.848 116.456 320.832 115.642L320.82 114.966C320.817 114.643 320.859 114.314 320.944 113.981C321.03 113.642 321.148 113.332 321.298 113.052C321.452 112.766 321.622 112.545 321.807 112.386C321.826 112.372 321.843 112.357 321.858 112.342C321.878 112.322 321.897 112.307 321.917 112.297L321.902 112.268C321.74 112.294 321.532 112.34 321.278 112.405C321.029 112.471 320.804 112.531 320.603 112.587L320.232 111.171C320.618 111.05 321.046 110.947 321.516 110.86C321.991 110.768 322.473 110.698 322.962 110.65C323.457 110.598 323.92 110.57 324.351 110.566C325.223 110.56 325.966 110.716 326.581 111.035C327.196 111.348 327.668 111.81 327.996 112.42C328.324 113.025 328.491 113.769 328.498 114.651L328.505 115.584C328.511 116.397 328.357 117.111 328.043 117.726C327.73 118.341 327.285 118.82 326.709 119.162C326.139 119.505 325.469 119.679 324.699 119.685ZM324.68 118.083C325.062 118.08 325.394 117.974 325.677 117.766C325.965 117.558 326.188 117.27 326.347 116.901C326.506 116.533 326.583 116.103 326.579 115.613L326.572 114.695C326.568 114.156 326.486 113.696 326.327 113.315C326.172 112.934 325.947 112.644 325.651 112.445C325.356 112.247 325.005 112.149 324.598 112.152C324.211 112.155 323.881 112.263 323.608 112.476C323.335 112.683 323.125 112.986 322.976 113.384C322.832 113.782 322.757 114.266 322.752 114.834L322.758 115.642C322.761 116.132 322.843 116.561 323.003 116.927C323.167 117.293 323.392 117.578 323.678 117.782C323.969 117.985 324.303 118.085 324.68 118.083ZM336.674 119.425L330.426 110.719L332.587 110.702L338.82 119.408L336.674 119.425ZM330.831 119.469L330.808 116.463C330.801 115.596 330.948 114.909 331.248 114.402C331.553 113.895 332.042 113.519 332.717 113.274L333.43 114.246C332.917 114.524 332.664 114.994 332.669 115.655L332.698 119.455L330.831 119.469ZM338.826 110.655L335.928 116.108L334.66 114.604L336.658 110.671L338.826 110.655ZM345.375 115.559L345.349 112.119L343.887 112.13L343.875 110.616L347.27 110.591L347.308 115.544L345.375 115.559ZM349.215 119.41C349.142 119.411 349.063 119.409 348.98 119.405C348.897 119.4 348.816 119.394 348.737 119.384L348.724 117.628C348.827 117.642 348.927 117.653 349.026 117.662C349.129 117.671 349.224 117.676 349.312 117.675C349.734 117.662 350.098 117.581 350.406 117.431C350.718 117.282 350.976 117.074 351.18 116.808C351.384 116.542 351.536 116.235 351.636 115.886L351.607 112.072L349.674 112.086L349.663 110.572L353.499 110.543L353.533 115.012C353.536 115.482 353.589 115.94 353.69 116.385L354.308 119.291L352.514 119.304L351.982 117L351.931 117.001C351.866 117.437 351.707 117.838 351.455 118.202C351.203 118.567 350.884 118.858 350.499 119.077C350.113 119.296 349.686 119.407 349.215 119.41ZM356.604 119.273L356.549 112.034L355.689 112.041L355.678 110.527L358.478 110.505L358.544 119.258L356.604 119.273ZM364.921 119.379C364.166 119.385 363.501 119.221 362.925 118.887C362.35 118.553 361.898 118.081 361.57 117.471C361.242 116.861 361.07 116.15 361.054 115.337L361.041 114.661C361.039 114.337 361.08 114.009 361.166 113.675C361.252 113.336 361.369 113.026 361.519 112.746C361.674 112.461 361.844 112.239 362.028 112.081C362.048 112.066 362.065 112.051 362.08 112.036C362.099 112.016 362.119 112.002 362.138 111.992L362.123 111.962C361.962 111.988 361.754 112.034 361.499 112.099C361.25 112.165 361.025 112.225 360.825 112.281L360.454 110.865C360.84 110.745 361.268 110.641 361.738 110.554C362.212 110.462 362.694 110.393 363.184 110.345C363.678 110.292 364.141 110.264 364.572 110.261C365.444 110.254 366.188 110.41 366.803 110.729C367.418 111.043 367.889 111.504 368.217 112.114C368.545 112.72 368.713 113.463 368.719 114.345L368.726 115.278C368.732 116.092 368.579 116.806 368.265 117.421C367.951 118.035 367.506 118.514 366.931 118.857C366.36 119.199 365.69 119.373 364.921 119.379ZM364.901 117.777C365.284 117.774 365.616 117.669 365.899 117.461C366.186 117.253 366.409 116.964 366.568 116.596C366.727 116.227 366.805 115.798 366.801 115.308L366.794 114.389C366.79 113.85 366.708 113.39 366.548 113.009C366.393 112.628 366.168 112.338 365.873 112.14C365.577 111.941 365.226 111.843 364.82 111.846C364.433 111.849 364.103 111.957 363.83 112.17C363.557 112.378 363.346 112.681 363.197 113.079C363.053 113.477 362.979 113.96 362.973 114.528L362.979 115.337C362.983 115.827 363.065 116.255 363.224 116.621C363.389 116.987 363.614 117.272 363.9 117.476C364.19 117.679 364.524 117.78 364.901 117.777Z" fill="white"/>
<path d="M345.508 71.5424L345.497 70.0578C346.153 70.0283 346.669 69.8211 347.043 69.436C347.422 69.051 347.609 68.5032 347.604 67.7928L347.577 64.2872L342.367 64.3268L342.355 62.8129L349.499 62.7586L349.536 67.734C349.542 68.5179 349.383 69.1904 349.059 69.7514C348.735 70.3076 348.271 70.7374 347.665 71.0409C347.06 71.3444 346.341 71.5115 345.508 71.5424ZM342.555 74.6223L342.508 68.4122C342.504 67.8536 342.557 67.4367 342.667 67.1615C342.778 66.8863 342.877 66.6822 342.964 66.5492L344.515 66.5374C344.462 66.7436 344.425 66.9815 344.403 67.2512C344.38 67.516 344.37 67.8394 344.373 68.2216L344.422 74.6081L342.555 74.6223ZM352.222 71.4913L352.162 62.7383L355.764 62.7109C356.915 62.7022 357.782 62.9749 358.364 63.529C358.947 64.0783 359.244 64.9065 359.258 66.0138L359.299 71.4375L357.381 71.4521L357.331 65.8814C357.327 65.3082 357.199 64.8878 356.947 64.6202C356.695 64.3526 356.307 64.2208 355.782 64.2248L354.092 64.2377L354.147 71.4767L352.222 71.4913ZM363.55 62.6517L363.602 69.5159C364.035 69.6988 364.501 69.8447 365.002 69.9536C365.503 70.0576 365.973 70.1079 366.414 70.1046C367.095 70.0994 367.702 69.9992 368.235 69.8041C368.767 69.6041 369.186 69.2995 369.492 68.8905C369.797 68.4815 369.948 67.961 369.943 67.329L369.907 62.6034L371.781 62.5892L371.819 67.5205C371.824 68.2064 371.686 68.8052 371.406 69.317C371.131 69.8286 370.747 70.2554 370.255 70.5972C369.767 70.939 369.203 71.1956 368.563 71.3671C367.922 71.5336 367.237 71.6197 366.507 71.6252C365.742 71.6311 364.945 71.5465 364.116 71.3715C363.287 71.1916 362.496 70.9257 361.743 70.5737L361.683 62.6659L363.55 62.6517ZM365.404 68.7526C365.535 68.5605 365.631 68.2927 365.692 67.9493C365.758 67.6058 365.79 67.2258 365.787 66.8093L365.755 62.635L367.629 62.6207L367.658 66.4056C367.661 66.9004 367.606 67.3541 367.492 67.7665C367.377 68.179 367.208 68.5086 366.985 68.7552L365.404 68.7526ZM374.438 71.3224L375.009 66.1439C375.055 65.7418 375.157 65.3613 375.316 65.0024C375.475 64.6435 375.664 64.3652 375.883 64.1675C375.898 64.1527 375.915 64.1379 375.934 64.1231C375.959 64.1033 375.98 64.086 376 64.0711L375.985 64.0492C375.784 64.0801 375.537 64.1383 375.244 64.2239C374.951 64.3045 374.694 64.3873 374.474 64.4722L374.045 63.057C374.421 62.917 374.836 62.7962 375.291 62.6948C375.751 62.5884 376.221 62.504 376.7 62.4415C377.185 62.379 377.643 62.3461 378.074 62.3429C379.343 62.3332 380.311 62.6566 380.977 63.313C381.649 63.9645 381.992 64.9296 382.006 66.2083L382.045 71.2646L378.304 71.293L378.292 69.7791L380.108 69.7653L380.071 65.9731C380.066 65.3117 379.92 64.8057 379.634 64.4551C379.352 64.0995 378.951 63.9237 378.432 63.9277C377.991 63.931 377.637 64.1052 377.37 64.4502C377.108 64.7952 376.945 65.2766 376.881 65.8945L376.349 71.3079L374.438 71.3224Z" fill="white"/>
<defs>
<linearGradient id="paint0_linear_62_1030" x1="1760.14" y1="1277.55" x2="-463.191" y2="4243.68" gradientUnits="userSpaceOnUse">
<stop stop-color="#D5D5D5"/>
<stop offset="1" stop-color="#8D8D8D"/>
</linearGradient>
<linearGradient id="paint1_linear_62_1030" x1="1828.18" y1="1298.28" x2="-395.148" y2="4264.42" gradientUnits="userSpaceOnUse">
<stop stop-color="#D5D5D5"/>
<stop offset="1" stop-color="#8D8D8D"/>
</linearGradient>
<linearGradient id="paint2_linear_62_1030" x1="1828.18" y1="1298.28" x2="-395.148" y2="4264.42" gradientUnits="userSpaceOnUse">
<stop stop-color="#D5D5D5"/>
<stop offset="1" stop-color="#8D8D8D"/>
</linearGradient>
<linearGradient id="paint3_linear_62_1030" x1="1991.46" y1="1344.26" x2="-231.873" y2="4310.4" gradientUnits="userSpaceOnUse">
<stop stop-color="#D5D5D5"/>
<stop offset="1" stop-color="#8D8D8D"/>
</linearGradient>
<linearGradient id="paint4_linear_62_1030" x1="1895.82" y1="1343.22" x2="-327.511" y2="4309.36" gradientUnits="userSpaceOnUse">
<stop stop-color="#D5D5D5"/>
<stop offset="1" stop-color="#8D8D8D"/>
</linearGradient>
<linearGradient id="paint5_linear_62_1030" x1="2031.24" y1="1296.74" x2="-192.093" y2="4262.87" gradientUnits="userSpaceOnUse">
<stop stop-color="#D5D5D5"/>
<stop offset="1" stop-color="#8D8D8D"/>
</linearGradient>
</defs>
</svg>
