<svg width="55" height="54" viewBox="0 0 55 54" fill="none" xmlns="http://www.w3.org/2000/svg">
<path d="M50.6017 1.164C51.4158 0.351775 52.7946 0.278662 53.7101 0.978455C54.6646 1.70797 54.7763 3.01908 53.923 3.87103L31.8839 25.872C29.7361 28.016 26.1566 28.0449 23.9747 25.9423V25.9413L1.10364 3.8974C0.235724 3.06081 0.318442 1.74698 1.26086 1.00092C2.1642 0.286006 3.54394 0.340407 4.37219 1.13861L27.2443 23.1835C27.6366 23.5614 28.1676 23.5603 28.5626 23.166L50.6017 1.164Z" fill="white" stroke="white"/>
<path d="M50.6017 27.164C51.4158 26.3518 52.7946 26.2787 53.7101 26.9785C54.6646 27.708 54.7763 29.0191 53.923 29.871L31.8839 51.872C29.7361 54.016 26.1566 54.0449 23.9747 51.9423V51.9413L1.10364 29.8974C0.235724 29.0608 0.318442 27.747 1.26086 27.0009C2.1642 26.286 3.54394 26.3404 4.37219 27.1386L27.2443 49.1835C27.6366 49.5614 28.1676 49.5603 28.5626 49.166L50.6017 27.164Z" fill="white" stroke="white"/>
</svg>
