<svg width="37" height="37" viewBox="0 0 37 37" fill="none" xmlns="http://www.w3.org/2000/svg">
<path d="M33.8911 16.0531L13.0671 3.31555C12.6304 3.04932 12.1308 2.90372 11.6195 2.89363C11.1081 2.88353 10.6032 3.0093 10.1564 3.25809C9.70948 3.50687 9.33662 3.86977 9.07582 4.30975C8.81502 4.74972 8.67563 5.25101 8.67188 5.76246V31.2375C8.67563 31.749 8.81502 32.2503 9.07582 32.6903C9.33662 33.1302 9.70948 33.4931 10.1564 33.7419C10.6032 33.9907 11.1081 34.1165 11.6195 34.1064C12.1308 34.0963 12.6304 33.9507 13.0671 33.6845L33.8911 20.9469C34.311 20.6913 34.6581 20.332 34.8989 19.9034C35.1397 19.4749 35.2662 18.9916 35.2662 18.5C35.2662 18.0084 35.1397 17.5251 34.8989 17.0966C34.6581 16.668 34.311 16.3087 33.8911 16.0531ZM12.1406 30.1854V6.81465L31.2419 18.5L12.1406 30.1854Z" fill="#F9F9F9"/>
</svg>
