<svg width="30" height="31" viewBox="0 0 30 31" fill="none" xmlns="http://www.w3.org/2000/svg">
<path d="M14.627 0.5C18.555 0.5 22.085 1.75922 24.627 4.10254C27.1631 6.44056 28.7539 9.89175 28.7539 14.3545C28.7538 23.3183 22.3586 30.5 14.627 30.5C6.8955 30.4997 0.500087 23.3181 0.5 14.3545C0.5 9.89174 2.0914 6.44057 4.62793 4.10254C7.17009 1.75949 10.6993 0.500096 14.627 0.5ZM2.04883 18.6611C3.66736 24.7417 8.65344 29.2371 14.627 29.2373C20.5995 29.2373 25.5846 24.7417 27.2031 18.6611L27.3711 18.0322H22.4893L22.4629 18.5049C22.3668 20.2127 20.9656 21.5674 19.2412 21.5674C17.5161 21.5673 16.1123 20.2118 16.0176 18.5049L15.9912 18.0322H13.2949V18.5322C13.2949 20.3215 11.8433 21.7764 10.0508 21.7764C8.26125 21.7762 6.80957 20.3216 6.80957 18.5322V18.0322H1.88184L2.04883 18.6611ZM27.7637 14.1328L27.5986 13.9834C24.1645 10.8946 19.5902 10.9363 15.9805 11.6885C14.1645 12.0669 12.5595 12.6309 11.4102 13.0996C11.2395 13.1692 11.0798 13.2391 10.9297 13.3037L12.5146 10.332L13.3193 8.82227L11.8281 9.66113L4.36914 13.8545L1.98828 13.8555H1.48828V14.3555C1.48828 15.1281 1.54311 15.8862 1.64062 16.625L1.69824 17.0596H27.5547L27.6123 16.626C27.7114 15.8865 27.7637 15.1269 27.7637 14.3555V14.1328Z" fill="#7D5B5B" stroke="#7D5B5B"/>
</svg>
