<svg width="54" height="54" viewBox="0 0 54 54" fill="none" xmlns="http://www.w3.org/2000/svg">
<path fill-rule="evenodd" clip-rule="evenodd" d="M27 0C12.0885 0 0 12.0885 0 27C0 41.9115 12.0885 54 27 54C41.9115 54 54 41.9115 54 27C54 12.0885 41.9115 0 27 0ZM3.76744 27C3.76744 20.8383 6.21515 14.9291 10.5721 10.5721C14.9291 6.21515 20.8383 3.76744 27 3.76744C33.1617 3.76744 39.0709 6.21515 43.4279 10.5721C47.7848 14.9291 50.2326 20.8383 50.2326 27C50.2326 33.1617 47.7848 39.0709 43.4279 43.4279C39.0709 47.7848 33.1617 50.2326 27 50.2326C20.8383 50.2326 14.9291 47.7848 10.5721 43.4279C6.21515 39.0709 3.76744 33.1617 3.76744 27Z" fill="white"/>
</svg>
